<?xml version="1.0" encoding="utf-8"?>
<!-- Generator: Adobe Illustrator 17.1.0, SVG Export Plug-In . SVG Version: 6.00 Build 0)  -->
<!DOCTYPE svg PUBLIC "-//W3C//DTD SVG 1.1//EN" "http://www.w3.org/Graphics/SVG/1.1/DTD/svg11.dtd">
<svg version="1.1"
	 id="svg3207" xmlns:rdf="http://www.w3.org/1999/02/22-rdf-syntax-ns#" xmlns:cc="http://creativecommons.org/ns#" xmlns:dc="http://purl.org/dc/elements/1.1/" xmlns:svg="http://www.w3.org/2000/svg"
	 xmlns="http://www.w3.org/2000/svg" xmlns:xlink="http://www.w3.org/1999/xlink" x="0px" y="0px" width="150px" height="150px"
	 viewBox="0 0 150 150" enable-background="new 0 0 150 150" xml:space="preserve">
<g id="layer1" transform="translate(-467.71 -623.53)">
	<path id="path2396" fill="none" stroke="#FFFFFF" stroke-width="5" stroke-linecap="round" stroke-linejoin="round" d="
		M479.8,704.5c0,0,10.1,4.4,13.5,7.2c5.1,4.1,9.8,21.4,13.2,16.3c20.6-31,25-92.6,25-92.6s0.2,50.6,3.8,72.1
		c2.7,16.3,10.1,60.5,15.3,53.3c8.7-11.9,11.6-44.9,16.9-60.8c2.5-7.6,9.5,15.3,16,23.1c2.9,3.5,2.5-13.4,8-13
		c13.3,1.1,14.2,0.4,14.2,0.4"/>
</g>
</svg>
