<?xml version="1.0" encoding="utf-8"?>
<!-- Generator: Adobe Illustrator 17.1.0, SVG Export Plug-In . SVG Version: 6.00 Build 0)  -->
<!DOCTYPE svg PUBLIC "-//W3C//DTD SVG 1.1//EN" "http://www.w3.org/Graphics/SVG/1.1/DTD/svg11.dtd">
<svg version="1.1"
	 id="svg4000" xmlns:rdf="http://www.w3.org/1999/02/22-rdf-syntax-ns#" xmlns:cc="http://creativecommons.org/ns#" xmlns:dc="http://purl.org/dc/elements/1.1/" xmlns:svg="http://www.w3.org/2000/svg"
	 xmlns="http://www.w3.org/2000/svg" xmlns:xlink="http://www.w3.org/1999/xlink" x="0px" y="0px" width="150px" height="150px"
	 viewBox="0 0 150 150" enable-background="new 0 0 150 150" xml:space="preserve">
<g>
	<g id="XMLID_1_">
		<g>
			<path fill="#FFFFFF" d="M80.6,105.4c0-3.1-2.5-5.6-5.6-5.6s-5.5,2.5-5.5,5.6c0,3.1,2.5,5.5,5.5,5.5
				C78.1,110.9,80.6,108.5,80.6,105.4z M126.8,31.3v78.5c0,3.8-3.1,6.8-6.8,6.8H30c-3.8,0-6.8-3.1-6.8-6.8V31.3
				c0-3.8,3.1-6.8,6.8-6.8h90C123.8,24.6,126.8,27.6,126.8,31.3z M120.2,87.5V37.8c0-3.8-3.1-6.8-6.8-6.8H36.7
				c-3.8,0-6.8,3.1-6.8,6.8v49.7c0,3.8,3.1,6.8,6.8,6.8h76.8C117.2,94.3,120.2,91.2,120.2,87.5z"/>
		</g>
	</g>
</g>
<rect id="rect4551" x="70.2" y="112" fill="#FFFFFF" width="9.7" height="13.5"/>
<line fill="none" stroke="#FFFFFF" stroke-width="4" stroke-linecap="round" stroke-miterlimit="10" x1="56.1" y1="125.5" x2="94" y2="125.5"/>
</svg>
