<?xml version="1.0" encoding="UTF-8" standalone="no"?>
<!-- Created with Inkscape (http://www.inkscape.org/) -->

<svg
   xmlns:dc="http://purl.org/dc/elements/1.1/"
   xmlns:cc="http://creativecommons.org/ns#"
   xmlns:rdf="http://www.w3.org/1999/02/22-rdf-syntax-ns#"
   xmlns:svg="http://www.w3.org/2000/svg"
   xmlns="http://www.w3.org/2000/svg"
   xmlns:sodipodi="http://sodipodi.sourceforge.net/DTD/sodipodi-0.dtd"
   xmlns:inkscape="http://www.inkscape.org/namespaces/inkscape"
   width="500"
   height="255"
   id="svg2"
   version="1.1"
   inkscape:version="0.47 r22583"
   sodipodi:docname="Bouygues.svg">
  <defs
     id="defs4">
    <inkscape:perspective
       sodipodi:type="inkscape:persp3d"
       inkscape:vp_x="0 : 526.18109 : 1"
       inkscape:vp_y="0 : 1000 : 0"
       inkscape:vp_z="744.09448 : 526.18109 : 1"
       inkscape:persp3d-origin="372.04724 : 350.78739 : 1"
       id="perspective10" />
    <inkscape:perspective
       id="perspective2828"
       inkscape:persp3d-origin="0.5 : 0.33333333 : 1"
       inkscape:vp_z="1 : 0.5 : 1"
       inkscape:vp_y="0 : 1000 : 0"
       inkscape:vp_x="0 : 0.5 : 1"
       sodipodi:type="inkscape:persp3d" />
    <inkscape:perspective
       id="perspective3661"
       inkscape:persp3d-origin="0.5 : 0.33333333 : 1"
       inkscape:vp_z="1 : 0.5 : 1"
       inkscape:vp_y="0 : 1000 : 0"
       inkscape:vp_x="0 : 0.5 : 1"
       sodipodi:type="inkscape:persp3d" />
    <inkscape:perspective
       id="perspective2887"
       inkscape:persp3d-origin="0.5 : 0.33333333 : 1"
       inkscape:vp_z="1 : 0.5 : 1"
       inkscape:vp_y="0 : 1000 : 0"
       inkscape:vp_x="0 : 0.5 : 1"
       sodipodi:type="inkscape:persp3d" />
  </defs>
  <sodipodi:namedview
     id="base"
     pagecolor="#ffffff"
     bordercolor="#666666"
     borderopacity="1.0"
     inkscape:pageopacity="0.0"
     inkscape:pageshadow="2"
     inkscape:zoom="1"
     inkscape:cx="270.97706"
     inkscape:cy="206.33111"
     inkscape:document-units="px"
     inkscape:current-layer="svg2"
     showgrid="false"
     inkscape:window-width="1440"
     inkscape:window-height="851"
     inkscape:window-x="0"
     inkscape:window-y="24"
     inkscape:window-maximized="1" />
  <metadata
     id="metadata7">
    <rdf:RDF>
      <cc:Work
         rdf:about="">
        <dc:format>image/svg+xml</dc:format>
        <dc:type
           rdf:resource="http://purl.org/dc/dcmitype/StillImage" />
        <dc:title />
      </cc:Work>
    </rdf:RDF>
  </metadata>
  <path
     sodipodi:nodetypes="csssssssscccsccccsccc"
     id="path3612"
     d="M 103.02474,253.42082 C 62.252501,245.98752 25.980588,216.68752 9.9497005,178.23586 -1.4875537,150.8025 -3.107708,117.7988 5.5783682,89.18868 13.395858,63.4395 33.432684,36.75612 56.302888,21.63798 73.922163,9.99093 89.030285,4.21072 109,1.47662 c 15.55521,-2.12969 266.44479,-2.12969 282,0 41.53407,5.68652 77.10551,31.6385 96.45214,70.36895 15.66785,31.36581 16.67543,72.6246 2.59816,106.39029 -16.18023,38.80986 -52.59972,68.02026 -93.79109,75.22556 -7.60509,1.3303 -27.00805,1.5184 -147.25921,1.4272 -112.23964,-0.085 -139.91735,-0.3634 -145.97526,-1.4678 z m 285.46789,-91.33345 c 7.16926,-2.88634 16.0157,-11.26645 19.26569,-18.25012 8.80959,-18.93032 0.70512,-40.63689 -18.54025,-49.65719 L 383.5,91.5 l -267,0 -5.71807,2.68006 c -11.511201,5.3953 -19.829242,16.08302 -21.712113,27.89756 -3.044914,19.10608 10.10567,38.09568 28.975483,41.84095 L 382.5,164.5 l 5.99263,-2.41263 z"
     style="fill:#ed5f35;stroke:#000000;stroke-width:2px" />
  <path
     id="path2877"
     d="M 120.74854,147.41521 C 120.33685,147.00351 120,137.96667 120,127.33333 L 120,108 l 9.92327,0 c 9.21674,0 10.14234,0.18433 13,2.58889 2.48202,2.08848 3.07673,3.35449 3.07673,6.54966 0,2.17843 -0.64142,5.20115 -1.42539,6.71716 -1.29286,2.50013 -1.25043,2.86565 0.45641,3.93159 2.6716,1.66844 4.16329,7.9251 2.94308,12.34432 -1.74511,6.32028 -3.81193,7.3258 -15.82764,7.70026 -5.85716,0.18253 -10.98622,-0.005 -11.39792,-0.41667 z M 138,137 c 1.72754,-3.22795 -0.36775,-6 -4.53518,-6 -3.37562,0 -3.46482,0.10297 -3.46482,4 0,3.89703 0.0892,4 3.46482,4 2.44136,0 3.78098,-0.59077 4.53518,-2 z m -1.18358,-17.25 c 0.29285,-2.54509 0.0507,-2.75 -3.25,-2.75 -3.31241,0 -3.56642,0.21818 -3.56642,3.06336 0,2.85371 0.22242,3.04191 3.25,2.75 2.70808,-0.26111 3.30276,-0.77191 3.56642,-3.06336 z M 162.5,146.79345 c -12.42936,-4.34471 -17.40334,-19.38955 -9.91482,-29.98945 9.64675,-13.65483 30.79321,-10.04001 34.94718,5.97395 3.97794,15.33537 -10.40078,29.13 -25.03236,24.0155 z m 13.57692,-11.71653 C 182.51845,128.6354 178.11099,118 169,118 c -7.58902,0 -12.31174,7.61111 -8.88296,14.31574 3.22902,6.31403 11.05337,7.6677 15.95988,2.76118 z M 202.5,147.09279 c -4.28809,-1.06558 -7.16554,-2.7772 -8.94872,-5.32303 C 192.3087,139.99572 192,136.41529 192,123.77749 L 192,108 l 5,0 5,0 0,13.87756 c 0,15.21246 0.47465,16.54265 5.68953,15.9447 L 210.5,137.5 l 0.27673,-14.75 0.27674,-14.75 5.47326,0 5.47327,0 0,14.53212 c 0,16.27284 -1.029,20.40666 -5.67122,22.78321 -3.70046,1.89443 -10.06574,2.71258 -13.82878,1.77746 z m 32.5,-7.26011 c 0,-8.05719 -0.0809,-8.32003 -6,-19.4931 -3.3,-6.22919 -6,-11.55389 -6,-11.83269 C 223,108.2281 225.62308,108 228.82906,108 l 5.82907,0 2.34187,5 c 1.28803,2.75 2.63803,5 3,5 0.36197,0 1.71197,-2.25 3,-5 l 2.34187,-5 5.86765,0 5.86764,0 -6.03858,11.84429 C 245.11559,131.46185 245,131.8447 245,139.84429 l 0,8.15571 -5,0 -5,0 0,-8.16732 z m 33.5,7.67584 c -0.55,-0.18347 -2.20282,-0.59781 -3.67293,-0.92076 -6.3314,-1.39086 -12.76509,-10.23135 -12.79953,-17.58776 -0.0411,-8.78998 5.59981,-17.73182 12.65501,-20.06025 8.51169,-2.80911 19.38335,1.38629 23.47808,9.06025 l 1.86756,3.5 -5.13939,0.3066 c -4.08535,0.24373 -5.58837,-0.11518 -7.32855,-1.75 -2.39844,-2.25322 -8.34241,-2.77873 -11.61564,-1.02696 -5.3199,2.84713 -6.0979,11.90798 -1.42379,16.58209 C 267.96705,139.05796 278,138.89516 278,135.39301 278,134.38806 276.6071,134 273,134 l -5,0 0,-4 0,-4 11,0 11,0 0,3.53212 c 0,4.2638 -2.31733,10.11231 -5.23901,13.2223 -2.96054,3.15134 -12.60924,5.97226 -16.26099,4.7541 z m 32.91519,-0.92993 c -1.69665,-0.73872 -4.05915,-2.5818 -5.25,-4.09572 C 294.15159,139.92299 294,138.61955 294,123.86514 L 294,108 l 4.5,0 4.5,0 0,13.56574 c 0,7.46116 0.46583,14.43616 1.03518,15.5 1.17324,2.19222 5.86335,2.63573 7.76482,0.73426 0.82145,-0.82145 1.2,-5.71111 1.2,-15.5 l 0,-14.3 4.5,0 4.5,0 -0.004,15.25 c -0.003,13.53164 -0.23114,15.62299 -2.02189,18.56018 -3.40021,5.577 -11.76562,7.72633 -18.55918,4.76841 z M 325,128 l 0,-20 13,0 13,0 0,4.5 0,4.5 -7.5,0 -7.5,0 0,3.5 0,3.5 7.5575,0 7.5575,0 -0.3075,4.25 -0.3075,4.25 -7.25,0.29381 -7.25,0.29381 0,2.95619 0,2.95619 7.5,0 7.5,0 0,4.5 0,4.5 -13,0 -13,0 0,-20 z m 35.5,18.65285 c -3.75263,-1.72571 -6.04131,-4.35283 -6.88474,-7.90285 -0.64326,-2.70749 -0.5795,-2.75 4.12514,-2.75 3.6955,0 5.06159,0.45328 6.02753,2 1.49916,2.40054 4.49079,2.59812 6.30164,0.41618 2.04123,-2.45954 0.0687,-4.49195 -7.14333,-7.36034 -5.4055,-2.14987 -6.7247,-3.167 -8.30526,-6.40352 -1.57858,-3.23245 -1.70119,-4.44123 -0.76682,-7.55988 1.75767,-5.8666 5.18572,-8.40576 11.90954,-8.8214 7.96768,-0.49254 12.72643,2.5716 14.72128,9.47896 0.61306,2.12281 0.36334,2.25 -4.41759,2.25 C 372.19797,120 371,119.64032 371,118.47856 c 0,-2.35584 -4.56809,-4.0819 -6.51864,-2.46309 -3.03544,2.51919 -1.32626,5.3167 5.18376,8.48453 7.53224,3.66525 10.03541,5.86005 10.8349,9.5001 0.8089,3.68289 -1.64485,9.39347 -4.97334,11.57437 -3.46468,2.27015 -11.2242,2.82701 -15.02668,1.07838 z"
     style="fill:#383636" />
</svg>
