<?xml version="1.0" encoding="utf-8"?>
<!-- Generator: Adobe Illustrator 17.1.0, SVG Export Plug-In . SVG Version: 6.00 Build 0)  -->
<!DOCTYPE svg PUBLIC "-//W3C//DTD SVG 1.1//EN" "http://www.w3.org/Graphics/SVG/1.1/DTD/svg11.dtd">
<svg version="1.1" id="Calque_1" xmlns="http://www.w3.org/2000/svg" xmlns:xlink="http://www.w3.org/1999/xlink" x="0px" y="0px"
	 width="150px" height="150px" viewBox="0 0 150 150" enable-background="new 0 0 150 150" xml:space="preserve">
<g id="Calque_1_1_">
</g>
<g id="Calque_2">
	<line fill="none" stroke="#FFFFFF" stroke-width="2" stroke-miterlimit="10" x1="79.8" y1="18.2" x2="22.3" y2="1.8"/>
	<line fill="none" stroke="#FFFFFF" stroke-width="2" stroke-miterlimit="10" x1="79.8" y1="18.2" x2="-30.8" y2="121.8"/>
	<line fill="none" stroke="#FFFFFF" stroke-width="2" stroke-miterlimit="10" x1="77" y1="36.7" x2="-32.8" y2="139.7"/>
	<line fill="none" stroke="#FFFFFF" stroke-width="2" stroke-miterlimit="10" x1="119.2" y1="53.9" x2="-4.4" y2="149.5"/>
	<line fill="none" stroke="#FFFFFF" stroke-width="2" stroke-miterlimit="10" x1="114.7" y1="71.8" x2="146.1" y2="87.3"/>
	<line fill="none" stroke="#FFFFFF" stroke-width="2" stroke-miterlimit="10" x1="146.1" y1="87.3" x2="56.2" y2="149.5"/>
	<line fill="none" stroke="#FFFFFF" stroke-width="2" stroke-miterlimit="10" x1="146.1" y1="87.3" x2="143.6" y2="109.8"/>
	<line fill="none" stroke="#FFFFFF" stroke-width="2" stroke-miterlimit="10" x1="143.6" y1="109.8" x2="86.1" y2="149.5"/>
	<line fill="none" stroke="#FFFFFF" stroke-width="2" stroke-miterlimit="10" x1="119.2" y1="53.9" x2="116.9" y2="70"/>
	<line fill="none" stroke="#FFFFFF" stroke-width="2" stroke-miterlimit="10" x1="116.9" y1="70" x2="14.1" y2="149.5"/>
	<line fill="none" stroke="#FFFFFF" stroke-width="2" stroke-miterlimit="10" x1="102.7" y1="66.7" x2="62.8" y2="50.1"/>
	<path fill="none" stroke="#FFFFFF" stroke-miterlimit="10" d="M-581.5-245.9"/>
	<path fill="none" stroke="#FFFFFF" stroke-width="2" stroke-miterlimit="10" d="M45.2,66.7"/>
	<line fill="none" stroke="#FFFFFF" stroke-width="2" stroke-miterlimit="10" x1="79.8" y1="84.3" x2="45.2" y2="66.7"/>
	<line fill="none" stroke="#FFFFFF" stroke-width="2" stroke-miterlimit="10" x1="24.5" y1="85.9" x2="53.8" y2="104.5"/>
	<line fill="none" stroke="#FFFFFF" stroke-width="2" stroke-miterlimit="10" x1="-0.9" y1="109.8" x2="22.3" y2="128.8"/>
	<path fill="none" stroke="#FFFFFF" stroke-width="2" stroke-miterlimit="10" d="M-0.9,109.8"/>
	<path fill="none" stroke="#FFFFFF" stroke-miterlimit="10" d="M-581.5-245.9"/>
	<line fill="none" stroke="#FFFFFF" stroke-width="2" stroke-miterlimit="10" x1="75.5" y1="38.2" x2="119.2" y2="53.9"/>
	<line fill="none" stroke="#FFFFFF" stroke-width="2" stroke-miterlimit="10" x1="-17.3" y1="130.3" x2="97.3" y2="46.1"/>
	<polyline fill="none" stroke="#FFFFFF" stroke-width="2" stroke-miterlimit="10" points="62.8,50.1 45.1,66.7 24.5,85.9 	"/>
	<line fill="none" stroke="#FFFFFF" stroke-miterlimit="10" x1="956.5" y1="365.5" x2="951.3" y2="403.1"/>
	<line fill="none" stroke="#FFFFFF" stroke-width="2" stroke-miterlimit="10" x1="102.7" y1="66.7" x2="100.5" y2="82.8"/>
	<line fill="none" stroke="#FFFFFF" stroke-width="2" stroke-miterlimit="10" x1="79.8" y1="84.3" x2="77.5" y2="100.5"/>
	<line fill="none" stroke="#FFFFFF" stroke-width="2" stroke-miterlimit="10" x1="53.8" y1="104.5" x2="51.5" y2="120.6"/>
	<line fill="none" stroke="#FFFFFF" stroke-width="2" stroke-miterlimit="10" x1="22.3" y1="128.8" x2="20.1" y2="145"/>
	<line fill="none" stroke="#FFFFFF" stroke-width="2" stroke-miterlimit="10" x1="79.6" y1="18.2" x2="77" y2="37.3"/>
</g>
</svg>
