<?xml version="1.0" encoding="utf-8"?>
<!-- Generator: Adobe Illustrator 17.1.0, SVG Export Plug-In . SVG Version: 6.00 Build 0)  -->
<!DOCTYPE svg PUBLIC "-//W3C//DTD SVG 1.1//EN" "http://www.w3.org/Graphics/SVG/1.1/DTD/svg11.dtd">
<svg version="1.1"
	 id="svg2" xmlns:cc="http://creativecommons.org/ns#" xmlns:rdf="http://www.w3.org/1999/02/22-rdf-syntax-ns#" xmlns:dc="http://purl.org/dc/elements/1.1/" xmlns:svg="http://www.w3.org/2000/svg"
	 xmlns="http://www.w3.org/2000/svg" xmlns:xlink="http://www.w3.org/1999/xlink" x="0px" y="0px" width="150px" height="150px"
	 viewBox="0 0 150 150" enable-background="new 0 0 150 150" xml:space="preserve">
<g id="layer1" transform="translate(-50 -756.93)">
	<path id="path2987" fill="#FFFFFF" d="M181,835.4c0.9-1,1.7-2.2,2.6-4.3c5.2-13.5-11-4.9-13.3-19.1c-2.3-14.2,15.9-11.1,6.8-22.3
		c-9.2-11.3-9.6,7.1-23.3,1.9c-13.5-5.2-1.7-19.2-15.9-17c-14.2,2.3,1.3,11.8-10,21c-11.3,9.2-17.4-8.3-22.6,5.4
		c-5.2,13.5,11,4.9,13.3,19.1s-15.9,11.1-6.7,22.4c9.2,11.3,9.6-7.1,23.3-1.9c13.5,5.2,1.7,19.2,15.9,17c14.2-2.3-1.3-11.8,10-21
		C170.3,828.8,176.2,840,181,835.4L181,835.4z M154.9,829.2c-7.2,5.9-17.8,4.7-23.6-2.5c-5.9-7.2-4.7-17.8,2.5-23.6
		c7.2-5.9,17.8-4.7,23.6,2.5C163.3,812.8,162.1,823.4,154.9,829.2z"/>
	<path id="path2992" fill="#FFFFFF" d="M126.2,854.7c0.3-0.9,0.4-2.1,0.1-3.7c-1.6-10.8-8.9,0.9-15.7-7.5
		c-6.9-8.5,6.1-13.1-4.1-16.9c-10.2-3.8-3.6,8.2-14.3,9.9c-10.8,1.6-8.2-11.9-16.8-5c-8.5,6.9,5.4,7.1,1.4,17.4
		c-3.8,10.2-14.4,1.1-12.7,12c1.6,10.8,8.9-0.9,15.7,7.5c6.8,8.4-6.1,13.1,4.1,16.9c10.2,3.8,3.6-8.2,14.3-9.9
		c10.8-1.6,8.2,11.9,16.8,5s-5.4-7.1-1.4-17.4C116.8,854.4,124.8,859.5,126.2,854.7L126.2,854.7z M107,860.4
		c-2.5,6.5-9.7,9.6-16.3,7.4c-6.5-2.5-9.6-9.7-7.4-16.3c2.5-6.5,9.7-9.6,16.3-7.4C106.2,846.7,109.4,854,107,860.4z"/>
</g>
</svg>
