<?xml version="1.0" encoding="utf-8"?>
<!-- Generator: Adobe Illustrator 17.1.0, SVG Export Plug-In . SVG Version: 6.00 Build 0)  -->
<!DOCTYPE svg PUBLIC "-//W3C//DTD SVG 1.1//EN" "http://www.w3.org/Graphics/SVG/1.1/DTD/svg11.dtd">
<svg version="1.1" id="Calque_1" xmlns="http://www.w3.org/2000/svg" xmlns:xlink="http://www.w3.org/1999/xlink" x="0px" y="0px"
	 width="516.1px" height="573.2px" viewBox="0 0 516.1 573.2" enable-background="new 0 0 516.1 573.2" xml:space="preserve">
<g>
	<g enable-background="new    ">
		<path fill="#FFFFFF" d="M208.2,21.2c0.7-0.1,1.7-0.2,3-0.2c1.4,0,2.5,0.3,3.2,0.9c0.6,0.5,1.1,1.4,1.1,2.4c0,1-0.3,1.9-0.9,2.4
			c-0.8,0.8-2,1.2-3.4,1.2c-0.4,0-0.7,0-1-0.1v4.1h-2V21.2z M210.2,26.3c0.2,0.1,0.6,0.1,1,0.1c1.5,0,2.4-0.7,2.4-2
			c0-1.2-0.8-1.8-2.2-1.8c-0.5,0-0.9,0-1.1,0.1V26.3z"/>
		<path fill="#FFFFFF" d="M216.9,26.6c0-1.1,0-1.8-0.1-2.5h1.7l0.1,1.5h0.1c0.4-1.1,1.3-1.7,2.1-1.7c0.2,0,0.3,0,0.5,0v1.9
			c-0.2,0-0.3-0.1-0.6-0.1c-0.9,0-1.6,0.6-1.8,1.5c0,0.2-0.1,0.4-0.1,0.6v4h-2V26.6z"/>
		<path fill="#FFFFFF" d="M223.8,28.5c0,1.4,1.2,2,2.4,2c0.9,0,1.6-0.1,2.2-0.4l0.3,1.4c-0.7,0.3-1.6,0.5-2.7,0.5
			c-2.5,0-4-1.6-4-3.9c0-2.2,1.3-4.2,3.8-4.2c2.5,0,3.4,2.1,3.4,3.8c0,0.4,0,0.7-0.1,0.8H223.8z M227.3,27.2c0-0.7-0.3-1.9-1.6-1.9
			c-1.2,0-1.7,1.1-1.8,1.9H227.3z"/>
		<path fill="#FFFFFF" d="M230.7,26.4c0-0.9,0-1.6-0.1-2.3h1.7l0.1,1.2h0c0.4-0.6,1.1-1.3,2.4-1.3c1,0,1.8,0.6,2.2,1.4h0
			c0.3-0.4,0.6-0.8,1-1c0.4-0.3,0.9-0.5,1.6-0.5c1.3,0,2.6,0.9,2.6,3.4v4.6h-1.9v-4.3c0-1.3-0.4-2.1-1.4-2.1c-0.7,0-1.2,0.5-1.4,1
			c0,0.2-0.1,0.4-0.1,0.7v4.7h-1.9v-4.5c0-1.1-0.4-1.9-1.3-1.9c-0.7,0-1.2,0.6-1.4,1.1c-0.1,0.2-0.1,0.4-0.1,0.6v4.6h-1.9V26.4z"/>
		<path fill="#FFFFFF" d="M246.4,21.9c0,0.6-0.4,1.1-1.1,1.1c-0.7,0-1.1-0.5-1.1-1.1c0-0.6,0.4-1.1,1.1-1.1
			C245.9,20.8,246.4,21.3,246.4,21.9z M244.3,31.9v-7.8h2v7.8H244.3z"/>
		<path fill="#FFFFFF" d="M249.8,28.5c0,1.4,1.2,2,2.4,2c0.9,0,1.6-0.1,2.2-0.4l0.3,1.4c-0.7,0.3-1.6,0.5-2.7,0.5
			c-2.5,0-4-1.6-4-3.9c0-2.2,1.3-4.2,3.8-4.2c2.5,0,3.4,2.1,3.4,3.8c0,0.4,0,0.7-0.1,0.8H249.8z M253.2,27.2c0-0.7-0.3-1.9-1.6-1.9
			c-1.2,0-1.7,1.1-1.8,1.9H253.2z"/>
		<path fill="#FFFFFF" d="M256.6,26.6c0-1.1,0-1.8-0.1-2.5h1.7l0.1,1.5h0.1c0.4-1.1,1.3-1.7,2.1-1.7c0.2,0,0.3,0,0.5,0v1.9
			c-0.2,0-0.3-0.1-0.6-0.1c-0.9,0-1.6,0.6-1.8,1.5c0,0.2-0.1,0.4-0.1,0.6v4h-2V26.6z"/>
		<path fill="#FFFFFF" d="M271.4,31.7c-0.4,0.2-1.2,0.4-2.2,0.4c-2.4,0-4-1.6-4-4c0-2.3,1.6-4.2,4.3-4.2c0.7,0,1.5,0.2,1.9,0.4
			l-0.4,1.5c-0.3-0.1-0.8-0.3-1.5-0.3c-1.5,0-2.4,1.1-2.4,2.5c0,1.6,1,2.5,2.4,2.5c0.7,0,1.2-0.1,1.6-0.3L271.4,31.7z"/>
		<path fill="#FFFFFF" d="M280.1,27.9c0,2.9-2,4.1-4,4.1c-2.2,0-3.9-1.5-3.9-4c0-2.6,1.7-4.1,4-4.1
			C278.5,23.9,280.1,25.6,280.1,27.9z M274.2,28c0,1.5,0.7,2.6,1.9,2.6c1.1,0,1.9-1.1,1.9-2.7c0-1.2-0.5-2.6-1.9-2.6
			C274.8,25.4,274.2,26.7,274.2,28z"/>
		<path fill="#FFFFFF" d="M281.7,26.4c0-0.9,0-1.6-0.1-2.3h1.7l0.1,1.2h0c0.3-0.6,1.2-1.3,2.5-1.3c1.4,0,2.8,0.9,2.8,3.3v4.6h-2
			v-4.4c0-1.1-0.4-2-1.5-2c-0.8,0-1.3,0.6-1.5,1.2c-0.1,0.2-0.1,0.4-0.1,0.6v4.6h-2V26.4z"/>
		<path fill="#FFFFFF" d="M293,21.9v2.2h1.9v1.5H293V29c0,0.9,0.3,1.4,1,1.4c0.3,0,0.6,0,0.8-0.1l0,1.5c-0.3,0.1-0.8,0.2-1.4,0.2
			c-0.7,0-1.3-0.2-1.7-0.6c-0.4-0.4-0.6-1.2-0.6-2.2v-3.7H290v-1.5h1.1v-1.8L293,21.9z"/>
		<path fill="#FFFFFF" d="M300.8,31.9l-0.1-0.9h0c-0.5,0.6-1.3,1-2.3,1c-1.6,0-2.4-1.1-2.4-2.3c0-2,1.7-3,4.6-2.9v-0.1
			c0-0.5-0.2-1.4-1.6-1.4c-0.8,0-1.6,0.2-2.1,0.6l-0.4-1.3c0.6-0.4,1.6-0.7,2.8-0.7c2.5,0,3.2,1.6,3.2,3.3V30c0,0.7,0,1.4,0.1,1.9
			H300.8z M300.5,28.1c-1.4,0-2.7,0.3-2.7,1.5c0,0.8,0.5,1.1,1.1,1.1c0.8,0,1.4-0.5,1.5-1.1c0-0.1,0.1-0.3,0.1-0.4V28.1z"/>
		<path fill="#FFFFFF" d="M310.2,31.7c-0.4,0.2-1.2,0.4-2.2,0.4c-2.4,0-4-1.6-4-4c0-2.3,1.6-4.2,4.3-4.2c0.7,0,1.5,0.2,1.9,0.4
			l-0.4,1.5c-0.3-0.1-0.8-0.3-1.5-0.3c-1.5,0-2.4,1.1-2.4,2.5c0,1.6,1,2.5,2.4,2.5c0.7,0,1.2-0.1,1.6-0.3L310.2,31.7z"/>
		<path fill="#FFFFFF" d="M314.2,21.9v2.2h1.9v1.5h-1.9V29c0,0.9,0.3,1.4,1,1.4c0.3,0,0.6,0,0.8-0.1l0,1.5c-0.3,0.1-0.8,0.2-1.4,0.2
			c-0.7,0-1.3-0.2-1.7-0.6c-0.4-0.4-0.6-1.2-0.6-2.2v-3.7h-1.1v-1.5h1.1v-1.8L314.2,21.9z"/>
	</g>
	<path fill="none" stroke="#FFFFFF" d="M189.1,42.6c0,6.3,5.1,11.3,11.3,11.3h123c6.3,0,11.3-5.1,11.3-11.3V11.8
		c0-6.3-5.1-11.3-11.3-11.3h-123c-6.3,0-11.3,5.1-11.3,11.3L189.1,42.6L189.1,42.6z"/>
</g>
<g>
	<g enable-background="new    ">
		<path fill="#FFFFFF" d="M237.1,158.2H233v3.2h4.5v1.6h-6.5v-10.8h6.3v1.6H233v2.8h4.1V158.2z"/>
		<path fill="#FFFFFF" d="M239.2,157.6c0-0.9,0-1.6-0.1-2.3h1.7l0.1,1.2h0c0.3-0.6,1.2-1.3,2.5-1.3c1.4,0,2.8,0.9,2.8,3.3v4.6h-2
			v-4.4c0-1.1-0.4-2-1.5-2c-0.8,0-1.3,0.6-1.5,1.2c-0.1,0.2-0.1,0.4-0.1,0.6v4.6h-2V157.6z"/>
		<path fill="#FFFFFF" d="M250.5,153v2.2h1.9v1.5h-1.9v3.4c0,0.9,0.3,1.4,1,1.4c0.3,0,0.6,0,0.8-0.1l0,1.5c-0.3,0.1-0.8,0.2-1.4,0.2
			c-0.7,0-1.3-0.2-1.7-0.6c-0.4-0.4-0.6-1.2-0.6-2.2v-3.7h-1.1v-1.5h1.1v-1.8L250.5,153z"/>
		<path fill="#FFFFFF" d="M253.9,157.7c0-1.1,0-1.8-0.1-2.5h1.7l0.1,1.5h0.1c0.4-1.1,1.3-1.7,2.1-1.7c0.2,0,0.3,0,0.5,0v1.9
			c-0.2,0-0.3-0.1-0.6-0.1c-0.9,0-1.6,0.6-1.8,1.5c0,0.2-0.1,0.4-0.1,0.6v4h-2V157.7z"/>
		<path fill="#FFFFFF" d="M260.8,159.7c0,1.4,1.2,2,2.4,2c0.9,0,1.6-0.1,2.2-0.4l0.3,1.4c-0.7,0.3-1.6,0.5-2.7,0.5
			c-2.5,0-4-1.6-4-3.9c0-2.2,1.3-4.2,3.8-4.2c2.5,0,3.4,2.1,3.4,3.8c0,0.4,0,0.7-0.1,0.8H260.8z M264.3,158.3c0-0.7-0.3-1.9-1.6-1.9
			c-1.2,0-1.7,1.1-1.8,1.9H264.3z"/>
		<path fill="#FFFFFF" d="M270,153v2.2h1.9v1.5H270v3.4c0,0.9,0.3,1.4,1,1.4c0.3,0,0.6,0,0.8-0.1l0,1.5c-0.3,0.1-0.8,0.2-1.4,0.2
			c-0.7,0-1.3-0.2-1.7-0.6c-0.4-0.4-0.6-1.2-0.6-2.2v-3.7h-1.1v-1.5h1.1v-1.8L270,153z"/>
		<path fill="#FFFFFF" d="M275.4,153.1c0,0.6-0.4,1.1-1.1,1.1c-0.7,0-1.1-0.5-1.1-1.1c0-0.6,0.4-1.1,1.1-1.1
			C275,152,275.4,152.5,275.4,153.1z M273.3,163v-7.8h2v7.8H273.3z"/>
		<path fill="#FFFFFF" d="M278.8,159.7c0,1.4,1.2,2,2.4,2c0.9,0,1.6-0.1,2.2-0.4l0.3,1.4c-0.7,0.3-1.6,0.5-2.7,0.5
			c-2.5,0-4-1.6-4-3.9c0-2.2,1.3-4.2,3.8-4.2c2.5,0,3.4,2.1,3.4,3.8c0,0.4,0,0.7-0.1,0.8H278.8z M282.2,158.3c0-0.7-0.3-1.9-1.6-1.9
			c-1.2,0-1.7,1.1-1.8,1.9H282.2z"/>
		<path fill="#FFFFFF" d="M285.7,157.6c0-0.9,0-1.6-0.1-2.3h1.7l0.1,1.2h0c0.3-0.6,1.2-1.3,2.5-1.3c1.4,0,2.8,0.9,2.8,3.3v4.6h-2
			v-4.4c0-1.1-0.4-2-1.5-2c-0.8,0-1.3,0.6-1.5,1.2c-0.1,0.2-0.1,0.4-0.1,0.6v4.6h-2V157.6z"/>
	</g>
	<g enable-background="new    ">
		<path fill="#FFFFFF" d="M153.8,188h-3.1v2.9h3.5v0.9h-4.5v-8.1h4.4v0.9h-3.3v2.6h3.1V188z"/>
		<path fill="#FFFFFF" d="M159.6,191.6c-0.3,0.1-0.9,0.3-1.7,0.3c-1.8,0-2.9-1.2-2.9-3c0-1.8,1.2-3.1,3.1-3.1c0.6,0,1.2,0.2,1.5,0.3
			l-0.2,0.8c-0.3-0.1-0.6-0.3-1.2-0.3c-1.3,0-2.1,1-2.1,2.2c0,1.3,0.9,2.2,2,2.2c0.6,0,1-0.2,1.3-0.3L159.6,191.6z"/>
		<path fill="#FFFFFF" d="M166,188.9c0,2.1-1.5,3.1-2.9,3.1c-1.6,0-2.8-1.2-2.8-3c0-1.9,1.3-3.1,2.9-3.1
			C164.9,185.9,166,187.1,166,188.9z M161.4,188.9c0,1.3,0.7,2.2,1.8,2.2c1,0,1.8-0.9,1.8-2.3c0-1-0.5-2.2-1.7-2.2
			C161.9,186.7,161.4,187.8,161.4,188.9z"/>
		<path fill="#FFFFFF" d="M172.2,190.2c0,0.6,0,1.1,0,1.6h-0.9l-0.1-0.9h0c-0.3,0.5-0.9,1.1-1.9,1.1c-0.9,0-2-0.5-2-2.5V186h1.1v3.2
			c0,1.1,0.3,1.8,1.3,1.8c0.7,0,1.2-0.5,1.4-1c0.1-0.2,0.1-0.3,0.1-0.5V186h1.1V190.2z"/>
		<path fill="#FFFFFF" d="M175.2,184.4v1.7h1.5v0.8h-1.5v3.1c0,0.7,0.2,1.1,0.8,1.1c0.3,0,0.5,0,0.6-0.1l0,0.8
			c-0.2,0.1-0.5,0.1-0.9,0.1c-0.5,0-0.9-0.2-1.1-0.4c-0.3-0.3-0.4-0.8-0.4-1.5v-3.2h-0.9V186h0.9v-1.4L175.2,184.4z"/>
		<path fill="#FFFFFF" d="M178.4,189.1c0,1.4,0.9,2,2,2c0.8,0,1.2-0.1,1.6-0.3l0.2,0.8c-0.4,0.2-1,0.4-1.9,0.4
			c-1.8,0-2.9-1.2-2.9-2.9s1-3.1,2.7-3.1c1.9,0,2.4,1.7,2.4,2.7c0,0.2,0,0.4,0,0.5H178.4z M181.5,188.4c0-0.7-0.3-1.7-1.5-1.7
			c-1.1,0-1.5,1-1.6,1.7H181.5z"/>
		<path fill="#FFFFFF" d="M191.4,183.3v7c0,0.5,0,1.1,0,1.5h-0.9l0-1h0c-0.3,0.6-1,1.1-2,1.1c-1.4,0-2.5-1.2-2.5-3
			c0-1.9,1.2-3.1,2.6-3.1c0.9,0,1.5,0.4,1.8,0.9h0v-3.5H191.4z M190.4,188.4c0-0.1,0-0.3,0-0.4c-0.2-0.7-0.7-1.2-1.5-1.2
			c-1.1,0-1.7,1-1.7,2.2c0,1.2,0.6,2.1,1.7,2.1c0.7,0,1.4-0.5,1.5-1.3c0-0.1,0-0.3,0-0.5V188.4z"/>
		<path fill="#FFFFFF" d="M193.8,189.1c0,1.4,0.9,2,2,2c0.8,0,1.2-0.1,1.6-0.3l0.2,0.8c-0.4,0.2-1,0.4-1.9,0.4
			c-1.8,0-2.9-1.2-2.9-2.9s1-3.1,2.7-3.1c1.9,0,2.4,1.7,2.4,2.7c0,0.2,0,0.4,0,0.5H193.8z M196.9,188.4c0-0.7-0.3-1.7-1.5-1.7
			c-1.1,0-1.5,1-1.6,1.7H196.9z"/>
		<path fill="#FFFFFF" d="M199,190.8c0.3,0.2,0.9,0.4,1.4,0.4c0.8,0,1.1-0.4,1.1-0.9c0-0.5-0.3-0.8-1.1-1.1c-1-0.4-1.5-0.9-1.5-1.6
			c0-0.9,0.8-1.7,2-1.7c0.6,0,1.1,0.2,1.4,0.4l-0.3,0.8c-0.2-0.1-0.6-0.3-1.2-0.3c-0.6,0-1,0.4-1,0.8c0,0.5,0.3,0.7,1.1,1
			c1,0.4,1.5,0.9,1.5,1.8c0,1-0.8,1.7-2.2,1.7c-0.6,0-1.2-0.2-1.6-0.4L199,190.8z"/>
		<path fill="#FFFFFF" d="M210.6,191.6c-0.3,0.1-0.9,0.3-1.7,0.3c-1.8,0-2.9-1.2-2.9-3c0-1.8,1.2-3.1,3.1-3.1c0.6,0,1.2,0.2,1.5,0.3
			l-0.2,0.8c-0.3-0.1-0.6-0.3-1.2-0.3c-1.3,0-2.1,1-2.1,2.2c0,1.3,0.9,2.2,2,2.2c0.6,0,1-0.2,1.3-0.3L210.6,191.6z"/>
		<path fill="#FFFFFF" d="M217,188.9c0,2.1-1.5,3.1-2.9,3.1c-1.6,0-2.8-1.2-2.8-3c0-1.9,1.3-3.1,2.9-3.1
			C215.9,185.9,217,187.1,217,188.9z M212.4,188.9c0,1.3,0.7,2.2,1.8,2.2c1,0,1.8-0.9,1.8-2.3c0-1-0.5-2.2-1.7-2.2
			C213,186.7,212.4,187.8,212.4,188.9z"/>
		<path fill="#FFFFFF" d="M218.4,187.6c0-0.6,0-1.1,0-1.6h0.9l0.1,1h0c0.3-0.6,1-1.1,1.9-1.1c0.8,0,2.1,0.5,2.1,2.5v3.5h-1.1v-3.3
			c0-0.9-0.3-1.7-1.3-1.7c-0.7,0-1.2,0.5-1.4,1.1c0,0.1-0.1,0.3-0.1,0.5v3.5h-1.1V187.6z"/>
		<path fill="#FFFFFF" d="M226.3,184.4v1.7h1.5v0.8h-1.5v3.1c0,0.7,0.2,1.1,0.8,1.1c0.3,0,0.5,0,0.6-0.1l0,0.8
			c-0.2,0.1-0.5,0.1-0.9,0.1c-0.5,0-0.9-0.2-1.1-0.4c-0.3-0.3-0.4-0.8-0.4-1.5v-3.2h-0.9V186h0.9v-1.4L226.3,184.4z"/>
		<path fill="#FFFFFF" d="M229,187.8c0-0.7,0-1.3,0-1.8h0.9l0,1.1h0c0.3-0.8,0.9-1.3,1.6-1.3c0.1,0,0.2,0,0.3,0v1
			c-0.1,0-0.2,0-0.4,0c-0.7,0-1.3,0.6-1.4,1.4c0,0.1,0,0.3,0,0.5v3.1h-1V187.8z"/>
		<path fill="#FFFFFF" d="M236,191.8l-0.1-0.7h0c-0.3,0.5-0.9,0.9-1.8,0.9c-1.2,0-1.8-0.8-1.8-1.7c0-1.4,1.2-2.2,3.5-2.2V188
			c0-0.5-0.1-1.3-1.3-1.3c-0.5,0-1.1,0.2-1.5,0.4l-0.2-0.7c0.5-0.3,1.2-0.5,1.9-0.5c1.8,0,2.2,1.2,2.2,2.4v2.2c0,0.5,0,1,0.1,1.4
			H236z M235.9,188.9c-1.2,0-2.5,0.2-2.5,1.3c0,0.7,0.5,1,1,1c0.8,0,1.2-0.5,1.4-1c0-0.1,0.1-0.2,0.1-0.3V188.9z"/>
		<path fill="#FFFFFF" d="M239.8,184.4c0,0.4-0.3,0.6-0.7,0.6c-0.4,0-0.6-0.3-0.6-0.6c0-0.4,0.3-0.7,0.7-0.7
			C239.5,183.7,239.8,184,239.8,184.4z M238.6,191.8V186h1.1v5.8H238.6z"/>
		<path fill="#FFFFFF" d="M241.4,187.6c0-0.6,0-1.1,0-1.6h0.9l0.1,1h0c0.3-0.6,1-1.1,1.9-1.1c0.8,0,2.1,0.5,2.1,2.5v3.5h-1.1v-3.3
			c0-0.9-0.3-1.7-1.3-1.7c-0.7,0-1.2,0.5-1.4,1.1c0,0.1-0.1,0.3-0.1,0.5v3.5h-1.1V187.6z"/>
		<path fill="#FFFFFF" d="M249.3,184.4v1.7h1.5v0.8h-1.5v3.1c0,0.7,0.2,1.1,0.8,1.1c0.3,0,0.5,0,0.6-0.1l0,0.8
			c-0.2,0.1-0.5,0.1-0.9,0.1c-0.5,0-0.9-0.2-1.1-0.4c-0.3-0.3-0.4-0.8-0.4-1.5v-3.2h-0.9V186h0.9v-1.4L249.3,184.4z"/>
		<path fill="#FFFFFF" d="M252.5,189.1c0,1.4,0.9,2,2,2c0.8,0,1.2-0.1,1.6-0.3l0.2,0.8c-0.4,0.2-1,0.4-1.9,0.4
			c-1.8,0-2.9-1.2-2.9-2.9s1-3.1,2.7-3.1c1.9,0,2.4,1.7,2.4,2.7c0,0.2,0,0.4,0,0.5H252.5z M255.6,188.4c0-0.7-0.3-1.7-1.5-1.7
			c-1.1,0-1.5,1-1.6,1.7H255.6z"/>
		<path fill="#FFFFFF" d="M257.8,190.8c0.3,0.2,0.9,0.4,1.4,0.4c0.8,0,1.1-0.4,1.1-0.9c0-0.5-0.3-0.8-1.1-1.1
			c-1-0.4-1.5-0.9-1.5-1.6c0-0.9,0.8-1.7,2-1.7c0.6,0,1.1,0.2,1.4,0.4l-0.3,0.8c-0.2-0.1-0.6-0.3-1.2-0.3c-0.6,0-1,0.4-1,0.8
			c0,0.5,0.3,0.7,1.1,1c1,0.4,1.5,0.9,1.5,1.8c0,1-0.8,1.7-2.2,1.7c-0.6,0-1.2-0.2-1.6-0.4L257.8,190.8z"/>
		<path fill="#FFFFFF" d="M268.4,191.8l-0.1-0.7h0c-0.3,0.5-0.9,0.9-1.8,0.9c-1.2,0-1.8-0.8-1.8-1.7c0-1.4,1.2-2.2,3.5-2.2V188
			c0-0.5-0.1-1.3-1.3-1.3c-0.5,0-1.1,0.2-1.5,0.4l-0.2-0.7c0.5-0.3,1.2-0.5,1.9-0.5c1.8,0,2.2,1.2,2.2,2.4v2.2c0,0.5,0,1,0.1,1.4
			H268.4z M268.3,188.9c-1.2,0-2.5,0.2-2.5,1.3c0,0.7,0.5,1,1,1c0.8,0,1.2-0.5,1.4-1c0-0.1,0.1-0.2,0.1-0.3V188.9z"/>
		<path fill="#FFFFFF" d="M275.9,190.2c0,0.6,0,1.1,0,1.6H275l-0.1-0.9h0c-0.3,0.5-0.9,1.1-1.9,1.1c-0.9,0-2-0.5-2-2.5V186h1.1v3.2
			c0,1.1,0.3,1.8,1.3,1.8c0.7,0,1.2-0.5,1.4-1c0.1-0.2,0.1-0.3,0.1-0.5V186h1.1V190.2z"/>
		<path fill="#FFFFFF" d="M278.9,184.4v1.7h1.5v0.8h-1.5v3.1c0,0.7,0.2,1.1,0.8,1.1c0.3,0,0.5,0,0.6-0.1l0,0.8
			c-0.2,0.1-0.5,0.1-0.9,0.1c-0.5,0-0.9-0.2-1.1-0.4c-0.3-0.3-0.4-0.8-0.4-1.5v-3.2H277V186h0.9v-1.4L278.9,184.4z"/>
		<path fill="#FFFFFF" d="M286.8,188.9c0,2.1-1.5,3.1-2.9,3.1c-1.6,0-2.8-1.2-2.8-3c0-1.9,1.3-3.1,2.9-3.1
			C285.7,185.9,286.8,187.1,286.8,188.9z M282.2,188.9c0,1.3,0.7,2.2,1.8,2.2c1,0,1.8-0.9,1.8-2.3c0-1-0.5-2.2-1.7-2.2
			S282.2,187.8,282.2,188.9z"/>
		<path fill="#FFFFFF" d="M293,190.2c0,0.6,0,1.1,0,1.6h-0.9l-0.1-0.9h0c-0.3,0.5-0.9,1.1-1.9,1.1c-0.9,0-2-0.5-2-2.5V186h1.1v3.2
			c0,1.1,0.3,1.8,1.3,1.8c0.7,0,1.2-0.5,1.4-1c0.1-0.2,0.1-0.3,0.1-0.5V186h1.1V190.2z"/>
		<path fill="#FFFFFF" d="M294.7,187.8c0-0.7,0-1.3,0-1.8h0.9l0,1.1h0c0.3-0.8,0.9-1.3,1.6-1.3c0.1,0,0.2,0,0.3,0v1
			c-0.1,0-0.2,0-0.4,0c-0.7,0-1.3,0.6-1.4,1.4c0,0.1,0,0.3,0,0.5v3.1h-1V187.8z"/>
		<path fill="#FFFFFF" d="M306.2,183.3v7c0,0.5,0,1.1,0,1.5h-0.9l0-1h0c-0.3,0.6-1,1.1-2,1.1c-1.4,0-2.5-1.2-2.5-3
			c0-1.9,1.2-3.1,2.6-3.1c0.9,0,1.5,0.4,1.8,0.9h0v-3.5H306.2z M305.2,188.4c0-0.1,0-0.3,0-0.4c-0.2-0.7-0.7-1.2-1.5-1.2
			c-1.1,0-1.7,1-1.7,2.2c0,1.2,0.6,2.1,1.7,2.1c0.7,0,1.4-0.5,1.5-1.3c0-0.1,0-0.3,0-0.5V188.4z"/>
		<path fill="#FFFFFF" d="M308.6,189.1c0,1.4,0.9,2,2,2c0.8,0,1.2-0.1,1.6-0.3l0.2,0.8c-0.4,0.2-1,0.4-1.9,0.4
			c-1.8,0-2.9-1.2-2.9-2.9s1-3.1,2.7-3.1c1.9,0,2.4,1.7,2.4,2.7c0,0.2,0,0.4,0,0.5H308.6z M311.6,188.4c0-0.7-0.3-1.7-1.5-1.7
			c-1.1,0-1.5,1-1.6,1.7H311.6z"/>
		<path fill="#FFFFFF" d="M316.9,186l1.1,3.3c0.2,0.5,0.3,1,0.5,1.5h0c0.1-0.5,0.3-1,0.5-1.5l1.1-3.3h1.1l-2.3,5.8h-1l-2.2-5.8
			H316.9z"/>
		<path fill="#FFFFFF" d="M327.4,188.9c0,2.1-1.5,3.1-2.9,3.1c-1.6,0-2.8-1.2-2.8-3c0-1.9,1.3-3.1,2.9-3.1
			C326.3,185.9,327.4,187.1,327.4,188.9z M322.8,188.9c0,1.3,0.7,2.2,1.8,2.2c1,0,1.8-0.9,1.8-2.3c0-1-0.5-2.2-1.7-2.2
			S322.8,187.8,322.8,188.9z"/>
		<path fill="#FFFFFF" d="M330,184.4v1.7h1.5v0.8H330v3.1c0,0.7,0.2,1.1,0.8,1.1c0.3,0,0.5,0,0.6-0.1l0,0.8
			c-0.2,0.1-0.5,0.1-0.9,0.1c-0.5,0-0.9-0.2-1.1-0.4c-0.3-0.3-0.4-0.8-0.4-1.5v-3.2h-0.9V186h0.9v-1.4L330,184.4z"/>
		<path fill="#FFFFFF" d="M332.7,187.8c0-0.7,0-1.3,0-1.8h0.9l0,1.1h0c0.3-0.8,0.9-1.3,1.6-1.3c0.1,0,0.2,0,0.3,0v1
			c-0.1,0-0.2,0-0.4,0c-0.7,0-1.3,0.6-1.4,1.4c0,0.1,0,0.3,0,0.5v3.1h-1V187.8z"/>
		<path fill="#FFFFFF" d="M337.1,189.1c0,1.4,0.9,2,2,2c0.8,0,1.2-0.1,1.6-0.3l0.2,0.8c-0.4,0.2-1,0.4-1.9,0.4
			c-1.8,0-2.9-1.2-2.9-2.9s1-3.1,2.7-3.1c1.9,0,2.4,1.7,2.4,2.7c0,0.2,0,0.4,0,0.5H337.1z M340.2,188.4c0-0.7-0.3-1.7-1.5-1.7
			c-1.1,0-1.5,1-1.6,1.7H340.2z"/>
		<path fill="#FFFFFF" d="M345.1,187.9c0-0.7,0-1.3,0-1.9h0.9l0,1h0c0.4-0.7,1.1-1.1,2.1-1.1c1.4,0,2.5,1.2,2.5,3
			c0,2.1-1.3,3.1-2.6,3.1c-0.8,0-1.4-0.3-1.8-0.9h0v3.2h-1V187.9z M346.1,189.5c0,0.2,0,0.3,0,0.4c0.2,0.7,0.8,1.2,1.6,1.2
			c1.1,0,1.8-0.9,1.8-2.2c0-1.2-0.6-2.2-1.7-2.2c-0.7,0-1.4,0.5-1.6,1.3c0,0.1-0.1,0.3-0.1,0.4V189.5z"/>
		<path fill="#FFFFFF" d="M351.9,187.8c0-0.7,0-1.3,0-1.8h0.9l0,1.1h0c0.3-0.8,0.9-1.3,1.6-1.3c0.1,0,0.2,0,0.3,0v1
			c-0.1,0-0.2,0-0.4,0c-0.7,0-1.3,0.6-1.4,1.4c0,0.1,0,0.3,0,0.5v3.1h-1V187.8z"/>
		<path fill="#FFFFFF" d="M361,188.9c0,2.1-1.5,3.1-2.9,3.1c-1.6,0-2.8-1.2-2.8-3c0-1.9,1.3-3.1,2.9-3.1
			C359.9,185.9,361,187.1,361,188.9z M356.4,188.9c0,1.3,0.7,2.2,1.8,2.2c1,0,1.8-0.9,1.8-2.3c0-1-0.5-2.2-1.7-2.2
			C356.9,186.7,356.4,187.8,356.4,188.9z"/>
		<path fill="#FFFFFF" d="M360.9,193.5c0.5,0,0.9-0.2,1.2-0.4c0.3-0.3,0.4-0.8,0.4-2.2V186h1.1v5.3c0,1.1-0.2,1.9-0.7,2.4
			c-0.5,0.5-1.2,0.7-1.8,0.7L360.9,193.5z M363.6,184.4c0,0.3-0.2,0.6-0.7,0.6c-0.4,0-0.6-0.3-0.6-0.6c0-0.4,0.3-0.7,0.7-0.7
			C363.4,183.7,363.6,184,363.6,184.4z"/>
		<path fill="#FFFFFF" d="M365.8,189.1c0,1.4,0.9,2,2,2c0.8,0,1.2-0.1,1.6-0.3l0.2,0.8c-0.4,0.2-1,0.4-1.9,0.4
			c-1.8,0-2.9-1.2-2.9-2.9s1-3.1,2.7-3.1c1.9,0,2.4,1.7,2.4,2.7c0,0.2,0,0.4,0,0.5H365.8z M368.9,188.4c0-0.7-0.3-1.7-1.5-1.7
			c-1.1,0-1.5,1-1.6,1.7H368.9z"/>
		<path fill="#FFFFFF" d="M372.5,184.4v1.7h1.5v0.8h-1.5v3.1c0,0.7,0.2,1.1,0.8,1.1c0.3,0,0.5,0,0.6-0.1l0,0.8
			c-0.2,0.1-0.5,0.1-0.9,0.1c-0.5,0-0.9-0.2-1.1-0.4c-0.3-0.3-0.4-0.8-0.4-1.5v-3.2h-0.9V186h0.9v-1.4L372.5,184.4z"/>
	</g>
	<g enable-background="new    ">
		<path fill="#FFFFFF" d="M214.1,203.7l-0.8,2.5h-1.1l2.7-8.1h1.3l2.8,8.1h-1.1l-0.9-2.5H214.1z M216.8,202.9l-0.8-2.3
			c-0.2-0.5-0.3-1-0.4-1.5h0c-0.1,0.5-0.3,1-0.4,1.5l-0.8,2.3H216.8z"/>
		<path fill="#FFFFFF" d="M220.1,202c0-0.6,0-1.1,0-1.6h0.9l0.1,1h0c0.3-0.6,1-1.1,1.9-1.1c0.8,0,2.1,0.5,2.1,2.5v3.5H224v-3.3
			c0-0.9-0.3-1.7-1.3-1.7c-0.7,0-1.2,0.5-1.4,1.1c0,0.1-0.1,0.3-0.1,0.5v3.5h-1.1V202z"/>
		<path fill="#FFFFFF" d="M230,206.2l-0.1-0.7h0c-0.3,0.5-0.9,0.9-1.8,0.9c-1.2,0-1.8-0.8-1.8-1.7c0-1.4,1.2-2.2,3.5-2.2v-0.1
			c0-0.5-0.1-1.3-1.3-1.3c-0.5,0-1.1,0.2-1.5,0.4l-0.2-0.7c0.5-0.3,1.2-0.5,1.9-0.5c1.8,0,2.2,1.2,2.2,2.4v2.2c0,0.5,0,1,0.1,1.4
			H230z M229.8,203.3c-1.2,0-2.5,0.2-2.5,1.3c0,0.7,0.5,1,1,1c0.8,0,1.2-0.5,1.4-1c0-0.1,0.1-0.2,0.1-0.3V203.3z"/>
		<path fill="#FFFFFF" d="M232.5,197.7h1.1v8.5h-1.1V197.7z"/>
		<path fill="#FFFFFF" d="M235.8,200.4l1.3,3.4c0.1,0.4,0.3,0.8,0.4,1.2h0c0.1-0.3,0.2-0.8,0.4-1.2l1.2-3.4h1.1l-1.6,4.1
			c-0.8,2-1.3,3-2,3.6c-0.5,0.5-1,0.6-1.3,0.7l-0.3-0.9c0.3-0.1,0.6-0.3,0.9-0.5c0.3-0.2,0.6-0.6,0.9-1.2c0-0.1,0.1-0.2,0.1-0.3
			c0-0.1,0-0.1-0.1-0.3l-2.1-5.3H235.8z"/>
		<path fill="#FFFFFF" d="M240.8,205.2c0.3,0.2,0.9,0.4,1.4,0.4c0.8,0,1.1-0.4,1.1-0.9c0-0.5-0.3-0.8-1.1-1.1
			c-1-0.4-1.5-0.9-1.5-1.6c0-0.9,0.8-1.7,2-1.7c0.6,0,1.1,0.2,1.4,0.4l-0.3,0.8c-0.2-0.1-0.6-0.3-1.2-0.3c-0.6,0-1,0.4-1,0.8
			c0,0.5,0.3,0.7,1.1,1c1,0.4,1.5,0.9,1.5,1.8c0,1-0.8,1.7-2.2,1.7c-0.6,0-1.2-0.2-1.6-0.4L240.8,205.2z"/>
		<path fill="#FFFFFF" d="M246.3,203.5c0,1.4,0.9,2,2,2c0.8,0,1.2-0.1,1.6-0.3l0.2,0.8c-0.4,0.2-1,0.4-1.9,0.4
			c-1.8,0-2.9-1.2-2.9-2.9s1-3.1,2.7-3.1c1.9,0,2.4,1.7,2.4,2.7c0,0.2,0,0.4,0,0.5H246.3z M249.4,202.8c0-0.7-0.3-1.7-1.5-1.7
			c-1.1,0-1.5,1-1.6,1.7H249.4z"/>
		<path fill="#FFFFFF" d="M259.3,197.7v7c0,0.5,0,1.1,0,1.5h-0.9l0-1h0c-0.3,0.6-1,1.1-2,1.1c-1.4,0-2.5-1.2-2.5-3
			c0-1.9,1.2-3.1,2.6-3.1c0.9,0,1.5,0.4,1.8,0.9h0v-3.5H259.3z M258.2,202.8c0-0.1,0-0.3,0-0.4c-0.2-0.7-0.7-1.2-1.5-1.2
			c-1.1,0-1.7,1-1.7,2.2c0,1.2,0.6,2.1,1.7,2.1c0.7,0,1.4-0.5,1.5-1.3c0-0.1,0-0.3,0-0.5V202.8z"/>
		<path fill="#FFFFFF" d="M261.6,203.5c0,1.4,0.9,2,2,2c0.8,0,1.2-0.1,1.6-0.3l0.2,0.8c-0.4,0.2-1,0.4-1.9,0.4
			c-1.8,0-2.9-1.2-2.9-2.9s1-3.1,2.7-3.1c1.9,0,2.4,1.7,2.4,2.7c0,0.2,0,0.4,0,0.5H261.6z M264.7,202.8c0-0.7-0.3-1.7-1.5-1.7
			c-1.1,0-1.5,1-1.6,1.7H264.7z"/>
		<path fill="#FFFFFF" d="M266.9,205.2c0.3,0.2,0.9,0.4,1.4,0.4c0.8,0,1.1-0.4,1.1-0.9c0-0.5-0.3-0.8-1.1-1.1
			c-1-0.4-1.5-0.9-1.5-1.6c0-0.9,0.8-1.7,2-1.7c0.6,0,1.1,0.2,1.4,0.4l-0.3,0.8c-0.2-0.1-0.6-0.3-1.2-0.3c-0.6,0-1,0.4-1,0.8
			c0,0.5,0.3,0.7,1.1,1c1,0.4,1.5,0.9,1.5,1.8c0,1-0.8,1.7-2.2,1.7c-0.6,0-1.2-0.2-1.6-0.4L266.9,205.2z"/>
		<path fill="#FFFFFF" d="M274.3,206.2c0-0.4,0-1,0-1.5v-7h1v3.6h0c0.4-0.6,1-1.1,2-1.1c1.4,0,2.5,1.2,2.4,3c0,2.1-1.3,3.1-2.6,3.1
			c-0.8,0-1.5-0.3-1.9-1.1h0l0,1H274.3z M275.4,203.9c0,0.1,0,0.3,0,0.4c0.2,0.7,0.8,1.2,1.6,1.2c1.1,0,1.8-0.9,1.8-2.2
			c0-1.2-0.6-2.2-1.7-2.2c-0.7,0-1.4,0.5-1.6,1.3c0,0.1-0.1,0.3-0.1,0.4V203.9z"/>
		<path fill="#FFFFFF" d="M281.8,203.5c0,1.4,0.9,2,2,2c0.8,0,1.2-0.1,1.6-0.3l0.2,0.8c-0.4,0.2-1,0.4-1.9,0.4
			c-1.8,0-2.9-1.2-2.9-2.9s1-3.1,2.7-3.1c1.9,0,2.4,1.7,2.4,2.7c0,0.2,0,0.4,0,0.5H281.8z M284.8,202.8c0-0.7-0.3-1.7-1.5-1.7
			c-1.1,0-1.5,1-1.6,1.7H284.8z"/>
		<path fill="#FFFFFF" d="M287,205.2c0.3,0.2,0.9,0.4,1.4,0.4c0.8,0,1.1-0.4,1.1-0.9c0-0.5-0.3-0.8-1.1-1.1c-1-0.4-1.5-0.9-1.5-1.6
			c0-0.9,0.8-1.7,2-1.7c0.6,0,1.1,0.2,1.4,0.4l-0.3,0.8c-0.2-0.1-0.6-0.3-1.2-0.3c-0.6,0-1,0.4-1,0.8c0,0.5,0.3,0.7,1.1,1
			c1,0.4,1.5,0.9,1.5,1.8c0,1-0.8,1.7-2.2,1.7c-0.6,0-1.2-0.2-1.6-0.4L287,205.2z"/>
		<path fill="#FFFFFF" d="M297.2,203.3c0,2.1-1.5,3.1-2.9,3.1c-1.6,0-2.8-1.2-2.8-3c0-1.9,1.3-3.1,2.9-3.1
			C296.1,200.3,297.2,201.5,297.2,203.3z M292.6,203.3c0,1.3,0.7,2.2,1.8,2.2c1,0,1.8-0.9,1.8-2.3c0-1-0.5-2.2-1.7-2.2
			C293.1,201.1,292.6,202.2,292.6,203.3z"/>
		<path fill="#FFFFFF" d="M299.7,198.8c0,0.4-0.3,0.6-0.7,0.6c-0.4,0-0.6-0.3-0.6-0.6c0-0.4,0.3-0.7,0.7-0.7
			C299.4,198.1,299.7,198.4,299.7,198.8z M298.5,206.2v-5.8h1.1v5.8H298.5z"/>
		<path fill="#FFFFFF" d="M301.3,202c0-0.6,0-1.1,0-1.6h0.9l0.1,1h0c0.3-0.6,1-1.1,1.9-1.1c0.8,0,2.1,0.5,2.1,2.5v3.5h-1.1v-3.3
			c0-0.9-0.3-1.7-1.3-1.7c-0.7,0-1.2,0.5-1.4,1.1c0,0.1-0.1,0.3-0.1,0.5v3.5h-1.1V202z"/>
		<path fill="#FFFFFF" d="M307.8,205.2c0.3,0.2,0.9,0.4,1.4,0.4c0.8,0,1.1-0.4,1.1-0.9c0-0.5-0.3-0.8-1.1-1.1
			c-1-0.4-1.5-0.9-1.5-1.6c0-0.9,0.8-1.7,2-1.7c0.6,0,1.1,0.2,1.4,0.4l-0.3,0.8c-0.2-0.1-0.6-0.3-1.2-0.3c-0.6,0-1,0.4-1,0.8
			c0,0.5,0.3,0.7,1.1,1c1,0.4,1.5,0.9,1.5,1.8c0,1-0.8,1.7-2.2,1.7c-0.6,0-1.2-0.2-1.6-0.4L307.8,205.2z"/>
	</g>
	<path fill="none" stroke="#FFFFFF" d="M130.7,215.9c0,6.3,5.1,11.3,11.3,11.3h239.9c6.3,0,11.3-5.1,11.3-11.3V143
		c0-6.3-5.1-11.3-11.3-11.3H142c-6.3,0-11.3,5.1-11.3,11.3V215.9z"/>
</g>
<g>
	<g enable-background="new    ">
		<path fill="#FFFFFF" d="M23.6,320.6c0.7-0.1,1.7-0.2,3-0.2c1.4,0,2.5,0.3,3.2,0.9c0.6,0.5,1.1,1.4,1.1,2.4c0,1-0.3,1.9-0.9,2.4
			c-0.8,0.8-2,1.2-3.4,1.2c-0.4,0-0.7,0-1-0.1v4.1h-2V320.6z M25.5,325.7c0.2,0.1,0.6,0.1,1,0.1c1.5,0,2.4-0.7,2.4-2
			c0-1.2-0.8-1.8-2.2-1.8c-0.5,0-0.9,0-1.1,0.1V325.7z"/>
		<path fill="#FFFFFF" d="M32.2,326c0-1.1,0-1.8-0.1-2.5h1.7L34,325H34c0.4-1.1,1.3-1.7,2.1-1.7c0.2,0,0.3,0,0.5,0v1.9
			c-0.2,0-0.3-0.1-0.6-0.1c-0.9,0-1.6,0.6-1.8,1.5c0,0.2-0.1,0.4-0.1,0.6v4h-2V326z"/>
		<path fill="#FFFFFF" d="M45.2,327.3c0,2.9-2,4.1-4,4.1c-2.2,0-3.9-1.5-3.9-4c0-2.6,1.7-4.1,4-4.1
			C43.7,323.3,45.2,324.9,45.2,327.3z M39.3,327.4c0,1.5,0.7,2.6,1.9,2.6c1.1,0,1.9-1.1,1.9-2.7c0-1.2-0.5-2.6-1.9-2.6
			C39.9,324.7,39.3,326.1,39.3,327.4z"/>
		<path fill="#FFFFFF" d="M46.8,326.1c0-1,0-1.9-0.1-2.6h1.7l0.1,1.2h0c0.6-0.9,1.5-1.4,2.7-1.4c1.8,0,3.3,1.5,3.3,4
			c0,2.8-1.8,4.2-3.6,4.2c-1,0-1.8-0.4-2.2-1h0v4h-2V326.1z M48.8,328c0,0.2,0,0.4,0.1,0.5c0.2,0.8,0.9,1.4,1.7,1.4c1.2,0,2-1,2-2.6
			c0-1.4-0.7-2.5-1.9-2.5c-0.8,0-1.6,0.6-1.8,1.5c0,0.2-0.1,0.3-0.1,0.5V328z"/>
		<path fill="#FFFFFF" d="M63.6,327.3c0,2.9-2,4.1-4,4.1c-2.2,0-3.9-1.5-3.9-4c0-2.6,1.7-4.1,4-4.1C62,323.3,63.6,324.9,63.6,327.3z
			 M57.7,327.4c0,1.5,0.7,2.6,1.9,2.6c1.1,0,1.9-1.1,1.9-2.7c0-1.2-0.5-2.6-1.9-2.6C58.3,324.7,57.7,326.1,57.7,327.4z"/>
		<path fill="#FFFFFF" d="M65.1,329.5c0.4,0.3,1.3,0.6,2,0.6c0.9,0,1.2-0.4,1.2-0.9c0-0.5-0.3-0.8-1.3-1.1c-1.5-0.5-2.2-1.4-2.1-2.3
			c0-1.4,1.1-2.4,2.9-2.4c0.9,0,1.6,0.2,2.1,0.5l-0.4,1.4c-0.3-0.2-1-0.4-1.6-0.4c-0.7,0-1.1,0.3-1.1,0.8c0,0.5,0.4,0.7,1.4,1.1
			c1.4,0.5,2.1,1.2,2.1,2.4c0,1.4-1.1,2.4-3.2,2.4c-0.9,0-1.8-0.2-2.4-0.5L65.1,329.5z"/>
		<path fill="#FFFFFF" d="M74,321.3c0,0.6-0.4,1.1-1.1,1.1c-0.7,0-1.1-0.5-1.1-1.1c0-0.6,0.4-1.1,1.1-1.1
			C73.5,320.2,74,320.7,74,321.3z M71.9,331.3v-7.8h2v7.8H71.9z"/>
		<path fill="#FFFFFF" d="M78.2,321.3v2.2h1.9v1.5h-1.9v3.4c0,0.9,0.3,1.4,1,1.4c0.3,0,0.6,0,0.8-0.1l0,1.5
			c-0.3,0.1-0.8,0.2-1.4,0.2c-0.7,0-1.3-0.2-1.7-0.6c-0.4-0.4-0.6-1.2-0.6-2.2V325h-1.1v-1.5h1.1v-1.8L78.2,321.3z"/>
		<path fill="#FFFFFF" d="M83.7,321.3c0,0.6-0.4,1.1-1.1,1.1c-0.7,0-1.1-0.5-1.1-1.1c0-0.6,0.4-1.1,1.1-1.1
			C83.3,320.2,83.7,320.7,83.7,321.3z M81.6,331.3v-7.8h2v7.8H81.6z"/>
		<path fill="#FFFFFF" d="M93.1,327.3c0,2.9-2,4.1-4,4.1c-2.2,0-3.9-1.5-3.9-4c0-2.6,1.7-4.1,4-4.1
			C91.5,323.3,93.1,324.9,93.1,327.3z M87.2,327.4c0,1.5,0.7,2.6,1.9,2.6c1.1,0,1.9-1.1,1.9-2.7c0-1.2-0.5-2.6-1.9-2.6
			C87.8,324.7,87.2,326.1,87.2,327.4z"/>
		<path fill="#FFFFFF" d="M94.7,325.8c0-0.9,0-1.6-0.1-2.3h1.7l0.1,1.2h0c0.3-0.6,1.2-1.3,2.5-1.3c1.4,0,2.8,0.9,2.8,3.3v4.6h-2
			v-4.4c0-1.1-0.4-2-1.5-2c-0.8,0-1.3,0.6-1.5,1.2c-0.1,0.2-0.1,0.4-0.1,0.6v4.6h-2V325.8z"/>
		<path fill="#FFFFFF" d="M112.9,331c-0.4,0.2-1.2,0.4-2.2,0.4c-2.4,0-4-1.6-4-4c0-2.3,1.6-4.2,4.3-4.2c0.7,0,1.5,0.2,1.9,0.4
			l-0.4,1.5c-0.3-0.1-0.8-0.3-1.5-0.3c-1.5,0-2.4,1.1-2.4,2.5c0,1.6,1,2.5,2.4,2.5c0.7,0,1.2-0.1,1.6-0.3L112.9,331z"/>
		<path fill="#FFFFFF" d="M121.6,327.3c0,2.9-2,4.1-4,4.1c-2.2,0-3.9-1.5-3.9-4c0-2.6,1.7-4.1,4-4.1
			C120.1,323.3,121.6,324.9,121.6,327.3z M115.7,327.4c0,1.5,0.7,2.6,1.9,2.6c1.1,0,1.9-1.1,1.9-2.7c0-1.2-0.5-2.6-1.9-2.6
			C116.3,324.7,115.7,326.1,115.7,327.4z"/>
		<path fill="#FFFFFF" d="M123.2,325.8c0-0.9,0-1.6-0.1-2.3h1.7l0.1,1.2h0c0.4-0.6,1.1-1.3,2.4-1.3c1,0,1.8,0.6,2.2,1.4h0
			c0.3-0.4,0.6-0.8,1-1c0.4-0.3,0.9-0.5,1.6-0.5c1.3,0,2.6,0.9,2.6,3.4v4.6h-1.9V327c0-1.3-0.4-2.1-1.4-2.1c-0.7,0-1.2,0.5-1.4,1
			c0,0.2-0.1,0.4-0.1,0.7v4.7H128v-4.5c0-1.1-0.4-1.9-1.3-1.9c-0.7,0-1.2,0.6-1.4,1.1c-0.1,0.2-0.1,0.4-0.1,0.6v4.6h-1.9V325.8z"/>
		<path fill="#FFFFFF" d="M136.8,325.8c0-0.9,0-1.6-0.1-2.3h1.7l0.1,1.2h0c0.4-0.6,1.1-1.3,2.4-1.3c1,0,1.8,0.6,2.2,1.4h0
			c0.3-0.4,0.6-0.8,1-1c0.4-0.3,0.9-0.5,1.6-0.5c1.3,0,2.6,0.9,2.6,3.4v4.6h-1.9V327c0-1.3-0.4-2.1-1.4-2.1c-0.7,0-1.2,0.5-1.4,1
			c0,0.2-0.1,0.4-0.1,0.7v4.7h-1.9v-4.5c0-1.1-0.4-1.9-1.3-1.9c-0.7,0-1.2,0.6-1.4,1.1c-0.1,0.2-0.1,0.4-0.1,0.6v4.6h-1.9V325.8z"/>
		<path fill="#FFFFFF" d="M151.8,327.9c0,1.4,1.2,2,2.4,2c0.9,0,1.6-0.1,2.2-0.4l0.3,1.4c-0.7,0.3-1.6,0.5-2.7,0.5
			c-2.5,0-4-1.6-4-3.9c0-2.2,1.3-4.2,3.8-4.2c2.5,0,3.4,2.1,3.4,3.8c0,0.4,0,0.7-0.1,0.8H151.8z M155.2,326.6c0-0.7-0.3-1.9-1.6-1.9
			c-1.2,0-1.7,1.1-1.8,1.9H155.2z"/>
		<path fill="#FFFFFF" d="M158.6,326c0-1.1,0-1.8-0.1-2.5h1.7l0.1,1.5h0.1c0.4-1.1,1.3-1.7,2.1-1.7c0.2,0,0.3,0,0.5,0v1.9
			c-0.2,0-0.3-0.1-0.6-0.1c-0.9,0-1.6,0.6-1.8,1.5c0,0.2-0.1,0.4-0.1,0.6v4h-2V326z"/>
		<path fill="#FFFFFF" d="M169.9,331c-0.4,0.2-1.2,0.4-2.2,0.4c-2.4,0-4-1.6-4-4c0-2.3,1.6-4.2,4.3-4.2c0.7,0,1.5,0.2,1.9,0.4
			l-0.4,1.5c-0.3-0.1-0.8-0.3-1.5-0.3c-1.5,0-2.4,1.1-2.4,2.5c0,1.6,1,2.5,2.4,2.5c0.7,0,1.2-0.1,1.6-0.3L169.9,331z"/>
		<path fill="#FFFFFF" d="M173.5,321.3c0,0.6-0.4,1.1-1.1,1.1c-0.7,0-1.1-0.5-1.1-1.1c0-0.6,0.4-1.1,1.1-1.1
			C173,320.2,173.4,320.7,173.5,321.3z M171.4,331.3v-7.8h2v7.8H171.4z"/>
		<path fill="#FFFFFF" d="M179.8,331.3l-0.1-0.9h0c-0.5,0.6-1.3,1-2.3,1c-1.6,0-2.4-1.1-2.4-2.3c0-2,1.7-3,4.6-2.9v-0.1
			c0-0.5-0.2-1.4-1.6-1.4c-0.8,0-1.6,0.2-2.1,0.6l-0.4-1.3c0.6-0.4,1.6-0.7,2.8-0.7c2.5,0,3.2,1.6,3.2,3.3v2.8c0,0.7,0,1.4,0.1,1.9
			H179.8z M179.6,327.5c-1.4,0-2.7,0.3-2.7,1.5c0,0.8,0.5,1.1,1.1,1.1c0.8,0,1.4-0.5,1.5-1.1c0-0.1,0.1-0.3,0.1-0.4V327.5z"/>
		<path fill="#FFFFFF" d="M183.6,319.9h2v11.4h-2V319.9z"/>
		<path fill="#FFFFFF" d="M189.1,327.9c0,1.4,1.2,2,2.4,2c0.9,0,1.6-0.1,2.2-0.4l0.3,1.4c-0.7,0.3-1.6,0.5-2.7,0.5
			c-2.5,0-4-1.6-4-3.9c0-2.2,1.3-4.2,3.8-4.2c2.5,0,3.4,2.1,3.4,3.8c0,0.4,0,0.7-0.1,0.8H189.1z M192.5,326.6c0-0.7-0.3-1.9-1.6-1.9
			c-1.2,0-1.7,1.1-1.8,1.9H192.5z"/>
	</g>
	<g enable-background="new    ">
		<path fill="#FFFFFF" d="M19.1,352.1c0.5-0.1,1.2-0.2,2-0.2c1,0,1.8,0.2,2.3,0.7c0.4,0.4,0.7,1,0.7,1.7c0,0.7-0.2,1.3-0.6,1.7
			c-0.6,0.6-1.5,0.9-2.5,0.9c-0.3,0-0.6,0-0.8-0.1v3.2h-1V352.1z M20.2,356c0.2,0.1,0.5,0.1,0.9,0.1c1.3,0,2-0.6,2-1.7
			c0-1.1-0.8-1.6-1.9-1.6c-0.5,0-0.8,0-1,0.1V356z"/>
		<path fill="#FFFFFF" d="M25.3,356.1c0-0.7,0-1.3,0-1.8h0.9l0,1.1h0c0.3-0.8,0.9-1.3,1.6-1.3c0.1,0,0.2,0,0.3,0v1
			c-0.1,0-0.2,0-0.4,0c-0.7,0-1.3,0.6-1.4,1.4c0,0.1,0,0.3,0,0.5v3.1h-1V356.1z"/>
		<path fill="#FFFFFF" d="M29.7,357.4c0,1.4,0.9,2,2,2c0.8,0,1.2-0.1,1.6-0.3l0.2,0.8c-0.4,0.2-1,0.4-1.9,0.4
			c-1.8,0-2.9-1.2-2.9-2.9s1-3.1,2.7-3.1c1.9,0,2.4,1.7,2.4,2.7c0,0.2,0,0.4,0,0.5H29.7z M32.8,356.6c0-0.7-0.3-1.7-1.5-1.7
			c-1.1,0-1.5,1-1.6,1.7H32.8z M33,351.8l-1.5,1.7h-0.8l1.1-1.7H33z"/>
		<path fill="#FFFFFF" d="M35,359c0.3,0.2,0.9,0.4,1.4,0.4c0.8,0,1.1-0.4,1.1-0.9c0-0.5-0.3-0.8-1.1-1.1c-1-0.4-1.5-0.9-1.5-1.6
			c0-0.9,0.8-1.7,2-1.7c0.6,0,1.1,0.2,1.4,0.4l-0.3,0.8c-0.2-0.1-0.6-0.3-1.2-0.3c-0.6,0-1,0.4-1,0.8c0,0.5,0.3,0.7,1.1,1
			c1,0.4,1.5,0.9,1.5,1.8c0,1-0.8,1.7-2.2,1.7c-0.6,0-1.2-0.2-1.6-0.4L35,359z"/>
		<path fill="#FFFFFF" d="M40.5,357.4c0,1.4,0.9,2,2,2c0.8,0,1.2-0.1,1.6-0.3l0.2,0.8c-0.4,0.2-1,0.4-1.9,0.4
			c-1.8,0-2.9-1.2-2.9-2.9s1-3.1,2.7-3.1c1.9,0,2.4,1.7,2.4,2.7c0,0.2,0,0.4,0,0.5H40.5z M43.6,356.6c0-0.7-0.3-1.7-1.5-1.7
			c-1.1,0-1.5,1-1.6,1.7H43.6z"/>
		<path fill="#FFFFFF" d="M45.9,355.8c0-0.6,0-1.1,0-1.6h0.9l0.1,1h0c0.3-0.6,1-1.1,1.9-1.1c0.8,0,2.1,0.5,2.1,2.5v3.5h-1.1v-3.3
			c0-0.9-0.3-1.7-1.3-1.7c-0.7,0-1.2,0.5-1.4,1.1c0,0.1-0.1,0.3-0.1,0.5v3.5h-1.1V355.8z"/>
		<path fill="#FFFFFF" d="M53.8,352.6v1.7h1.5v0.8h-1.5v3.1c0,0.7,0.2,1.1,0.8,1.1c0.3,0,0.5,0,0.6-0.1l0,0.8
			c-0.2,0.1-0.5,0.1-0.9,0.1c-0.5,0-0.9-0.2-1.1-0.4c-0.3-0.3-0.4-0.8-0.4-1.5v-3.2h-0.9v-0.8h0.9v-1.4L53.8,352.6z"/>
		<path fill="#FFFFFF" d="M59.7,360.1l-0.1-0.7h0c-0.3,0.5-0.9,0.9-1.8,0.9c-1.2,0-1.8-0.8-1.8-1.7c0-1.4,1.2-2.2,3.5-2.2v-0.1
			c0-0.5-0.1-1.3-1.3-1.3c-0.5,0-1.1,0.2-1.5,0.4l-0.2-0.7c0.5-0.3,1.2-0.5,1.9-0.5c1.8,0,2.2,1.2,2.2,2.4v2.2c0,0.5,0,1,0.1,1.4
			H59.7z M59.5,357.1c-1.2,0-2.5,0.2-2.5,1.3c0,0.7,0.5,1,1,1c0.8,0,1.2-0.5,1.4-1c0-0.1,0.1-0.2,0.1-0.3V357.1z"/>
		<path fill="#FFFFFF" d="M63.5,352.6v1.7H65v0.8h-1.5v3.1c0,0.7,0.2,1.1,0.8,1.1c0.3,0,0.5,0,0.6-0.1l0,0.8
			c-0.2,0.1-0.5,0.1-0.9,0.1c-0.5,0-0.9-0.2-1.1-0.4c-0.3-0.3-0.4-0.8-0.4-1.5v-3.2h-0.9v-0.8h0.9v-1.4L63.5,352.6z"/>
		<path fill="#FFFFFF" d="M67.4,352.6c0,0.4-0.3,0.6-0.7,0.6c-0.4,0-0.6-0.3-0.6-0.6c0-0.4,0.3-0.7,0.7-0.7
			C67.1,352,67.4,352.3,67.4,352.6z M66.2,360.1v-5.8h1.1v5.8H66.2z"/>
		<path fill="#FFFFFF" d="M74.2,357.1c0,2.1-1.5,3.1-2.9,3.1c-1.6,0-2.8-1.2-2.8-3c0-1.9,1.3-3.1,2.9-3.1
			C73.1,354.1,74.2,355.3,74.2,357.1z M69.6,357.2c0,1.3,0.7,2.2,1.8,2.2c1,0,1.8-0.9,1.8-2.3c0-1-0.5-2.2-1.7-2.2
			C70.2,354.9,69.6,356.1,69.6,357.2z"/>
		<path fill="#FFFFFF" d="M75.6,355.8c0-0.6,0-1.1,0-1.6h0.9l0.1,1h0c0.3-0.6,1-1.1,1.9-1.1c0.8,0,2.1,0.5,2.1,2.5v3.5h-1.1v-3.3
			c0-0.9-0.3-1.7-1.3-1.7c-0.7,0-1.2,0.5-1.4,1.1c0,0.1-0.1,0.3-0.1,0.5v3.5h-1.1V355.8z"/>
		<path fill="#FFFFFF" d="M89.8,351.6v7c0,0.5,0,1.1,0,1.5h-0.9l0-1h0c-0.3,0.6-1,1.1-2,1.1c-1.4,0-2.5-1.2-2.5-3
			c0-1.9,1.2-3.1,2.6-3.1c0.9,0,1.5,0.4,1.8,0.9h0v-3.5H89.8z M88.7,356.6c0-0.1,0-0.3,0-0.4c-0.2-0.7-0.7-1.2-1.5-1.2
			c-1.1,0-1.7,1-1.7,2.2c0,1.2,0.6,2.1,1.7,2.1c0.7,0,1.4-0.5,1.5-1.3c0-0.1,0-0.3,0-0.5V356.6z"/>
		<path fill="#FFFFFF" d="M92.3,351.9l-0.2,2.9h-0.6l-0.2-2.9H92.3z"/>
		<path fill="#FFFFFF" d="M98.7,358.5c0,0.6,0,1.1,0,1.6h-0.9l-0.1-0.9h0c-0.3,0.5-0.9,1.1-1.9,1.1c-0.9,0-2-0.5-2-2.5v-3.4h1.1v3.2
			c0,1.1,0.3,1.8,1.3,1.8c0.7,0,1.2-0.5,1.4-1c0.1-0.2,0.1-0.3,0.1-0.5v-3.6h1.1V358.5z"/>
		<path fill="#FFFFFF" d="M100.4,355.8c0-0.6,0-1.1,0-1.6h0.9l0.1,1h0c0.3-0.6,1-1.1,1.9-1.1c0.8,0,2.1,0.5,2.1,2.5v3.5h-1.1v-3.3
			c0-0.9-0.3-1.7-1.3-1.7c-0.7,0-1.2,0.5-1.4,1.1c0,0.1-0.1,0.3-0.1,0.5v3.5h-1.1V355.8z"/>
		<path fill="#FFFFFF" d="M107.7,357.4c0,1.4,0.9,2,2,2c0.8,0,1.2-0.1,1.6-0.3l0.2,0.8c-0.4,0.2-1,0.4-1.9,0.4
			c-1.8,0-2.9-1.2-2.9-2.9s1-3.1,2.7-3.1c1.9,0,2.4,1.7,2.4,2.7c0,0.2,0,0.4,0,0.5H107.7z M110.8,356.6c0-0.7-0.3-1.7-1.5-1.7
			c-1.1,0-1.5,1-1.6,1.7H110.8z"/>
		<path fill="#FFFFFF" d="M115.5,359c0.3,0.2,0.9,0.4,1.4,0.4c0.8,0,1.1-0.4,1.1-0.9c0-0.5-0.3-0.8-1.1-1.1c-1-0.4-1.5-0.9-1.5-1.6
			c0-0.9,0.8-1.7,2-1.7c0.6,0,1.1,0.2,1.4,0.4l-0.3,0.8c-0.2-0.1-0.6-0.3-1.2-0.3c-0.6,0-1,0.4-1,0.8c0,0.5,0.3,0.7,1.1,1
			c1,0.4,1.5,0.9,1.5,1.8c0,1-0.8,1.7-2.2,1.7c-0.6,0-1.2-0.2-1.6-0.4L115.5,359z"/>
		<path fill="#FFFFFF" d="M125.6,357.1c0,2.1-1.5,3.1-2.9,3.1c-1.6,0-2.8-1.2-2.8-3c0-1.9,1.3-3.1,2.9-3.1
			C124.5,354.1,125.6,355.3,125.6,357.1z M121,357.2c0,1.3,0.7,2.2,1.8,2.2c1,0,1.8-0.9,1.8-2.3c0-1-0.5-2.2-1.7-2.2
			C121.6,354.9,121,356.1,121,357.2z"/>
		<path fill="#FFFFFF" d="M127,351.6h1.1v8.5H127V351.6z"/>
		<path fill="#FFFFFF" d="M134.7,358.5c0,0.6,0,1.1,0,1.6h-0.9l-0.1-0.9h0c-0.3,0.5-0.9,1.1-1.9,1.1c-0.9,0-2-0.5-2-2.5v-3.4h1.1
			v3.2c0,1.1,0.3,1.8,1.3,1.8c0.7,0,1.2-0.5,1.4-1c0.1-0.2,0.1-0.3,0.1-0.5v-3.6h1.1V358.5z"/>
		<path fill="#FFFFFF" d="M137.7,352.6v1.7h1.5v0.8h-1.5v3.1c0,0.7,0.2,1.1,0.8,1.1c0.3,0,0.5,0,0.6-0.1l0,0.8
			c-0.2,0.1-0.5,0.1-0.9,0.1c-0.5,0-0.9-0.2-1.1-0.4c-0.3-0.3-0.4-0.8-0.4-1.5v-3.2h-0.9v-0.8h0.9v-1.4L137.7,352.6z"/>
		<path fill="#FFFFFF" d="M141.6,352.6c0,0.4-0.3,0.6-0.7,0.6c-0.4,0-0.6-0.3-0.6-0.6c0-0.4,0.3-0.7,0.7-0.7
			C141.3,352,141.6,352.3,141.6,352.6z M140.4,360.1v-5.8h1.1v5.8H140.4z"/>
		<path fill="#FFFFFF" d="M148.4,357.1c0,2.1-1.5,3.1-2.9,3.1c-1.6,0-2.8-1.2-2.8-3c0-1.9,1.3-3.1,2.9-3.1
			C147.3,354.1,148.4,355.3,148.4,357.1z M143.8,357.2c0,1.3,0.7,2.2,1.8,2.2c1,0,1.8-0.9,1.8-2.3c0-1-0.5-2.2-1.7-2.2
			C144.4,354.9,143.8,356.1,143.8,357.2z"/>
		<path fill="#FFFFFF" d="M149.8,355.8c0-0.6,0-1.1,0-1.6h0.9l0.1,1h0c0.3-0.6,1-1.1,1.9-1.1c0.8,0,2.1,0.5,2.1,2.5v3.5h-1.1v-3.3
			c0-0.9-0.3-1.7-1.3-1.7c-0.7,0-1.2,0.5-1.4,1.1c0,0.1-0.1,0.3-0.1,0.5v3.5h-1.1V355.8z"/>
		<path fill="#FFFFFF" d="M162.2,360.1l-0.1-0.7h0c-0.3,0.5-0.9,0.9-1.8,0.9c-1.2,0-1.8-0.8-1.8-1.7c0-1.4,1.2-2.2,3.5-2.2v-0.1
			c0-0.5-0.1-1.3-1.3-1.3c-0.5,0-1.1,0.2-1.5,0.4l-0.2-0.7c0.5-0.3,1.2-0.5,1.9-0.5c1.8,0,2.2,1.2,2.2,2.4v2.2c0,0.5,0,1,0.1,1.4
			H162.2z M162,357.1c-1.2,0-2.5,0.2-2.5,1.3c0,0.7,0.5,1,1,1c0.8,0,1.2-0.5,1.4-1c0-0.1,0.1-0.2,0.1-0.3V357.1z"/>
		<path fill="#FFFFFF" d="M169.8,351.6v7c0,0.5,0,1.1,0,1.5h-0.9l0-1h0c-0.3,0.6-1,1.1-2,1.1c-1.4,0-2.5-1.2-2.5-3
			c0-1.9,1.2-3.1,2.6-3.1c0.9,0,1.5,0.4,1.8,0.9h0v-3.5H169.8z M168.7,356.6c0-0.1,0-0.3,0-0.4c-0.2-0.7-0.7-1.2-1.5-1.2
			c-1.1,0-1.7,1-1.7,2.2c0,1.2,0.6,2.1,1.7,2.1c0.7,0,1.4-0.5,1.5-1.3c0-0.1,0-0.3,0-0.5V356.6z"/>
		<path fill="#FFFFFF" d="M174.7,360.1l-0.1-0.7h0c-0.3,0.5-0.9,0.9-1.8,0.9c-1.2,0-1.8-0.8-1.8-1.7c0-1.4,1.2-2.2,3.5-2.2v-0.1
			c0-0.5-0.1-1.3-1.3-1.3c-0.5,0-1.1,0.2-1.5,0.4l-0.2-0.7c0.5-0.3,1.2-0.5,1.9-0.5c1.8,0,2.2,1.2,2.2,2.4v2.2c0,0.5,0,1,0.1,1.4
			H174.7z M174.6,357.1c-1.2,0-2.5,0.2-2.5,1.3c0,0.7,0.5,1,1,1c0.8,0,1.2-0.5,1.4-1c0-0.1,0.1-0.2,0.1-0.3V357.1z"/>
		<path fill="#FFFFFF" d="M177.3,356.2c0-0.7,0-1.3,0-1.9h0.9l0,1h0c0.4-0.7,1.1-1.1,2.1-1.1c1.4,0,2.5,1.2,2.5,3
			c0,2.1-1.3,3.1-2.6,3.1c-0.8,0-1.4-0.3-1.8-0.9h0v3.2h-1V356.2z M178.4,357.7c0,0.2,0,0.3,0,0.4c0.2,0.7,0.8,1.2,1.6,1.2
			c1.1,0,1.8-0.9,1.8-2.2c0-1.2-0.6-2.2-1.7-2.2c-0.7,0-1.4,0.5-1.6,1.3c0,0.1-0.1,0.3-0.1,0.4V357.7z"/>
		<path fill="#FFFFFF" d="M185.4,352.6v1.7h1.5v0.8h-1.5v3.1c0,0.7,0.2,1.1,0.8,1.1c0.3,0,0.5,0,0.6-0.1l0,0.8
			c-0.2,0.1-0.5,0.1-0.9,0.1c-0.5,0-0.9-0.2-1.1-0.4c-0.3-0.3-0.4-0.8-0.4-1.5v-3.2h-0.9v-0.8h0.9v-1.4L185.4,352.6z"/>
		<path fill="#FFFFFF" d="M188.6,357.4c0,1.4,0.9,2,2,2c0.8,0,1.2-0.1,1.6-0.3l0.2,0.8c-0.4,0.2-1,0.4-1.9,0.4
			c-1.8,0-2.9-1.2-2.9-2.9s1-3.1,2.7-3.1c1.9,0,2.4,1.7,2.4,2.7c0,0.2,0,0.4,0,0.5H188.6z M191.7,356.6c0-0.7-0.3-1.7-1.5-1.7
			c-1.1,0-1.5,1-1.6,1.7H191.7z M192,351.8l-1.5,1.7h-0.8l1.1-1.7H192z"/>
		<path fill="#FFFFFF" d="M194.6,357.4c0,1.4,0.9,2,2,2c0.8,0,1.2-0.1,1.6-0.3l0.2,0.8c-0.4,0.2-1,0.4-1.9,0.4
			c-1.8,0-2.9-1.2-2.9-2.9s1-3.1,2.7-3.1c1.9,0,2.4,1.7,2.4,2.7c0,0.2,0,0.4,0,0.5H194.6z M197.7,356.6c0-0.7-0.3-1.7-1.5-1.7
			c-1.1,0-1.5,1-1.6,1.7H197.7z"/>
	</g>
	<path fill="none" stroke="#FFFFFF" d="M0.3,369.7c0,6.3,5.1,11.3,11.3,11.3h194.8c6.3,0,11.3-5.1,11.3-11.3v-58.5
		c0-6.3-5.1-11.3-11.3-11.3H11.6c-6.3,0-11.3,5.1-11.3,11.3C0.3,311.2,0.3,369.7,0.3,369.7z"/>
</g>
<g>
	<g enable-background="new    ">
		<path fill="#FFFFFF" d="M377.9,320.6c0.7-0.1,1.8-0.2,3-0.2c1.6,0,2.6,0.3,3.3,0.9c0.6,0.5,0.9,1.2,0.9,2.2c0,1.4-0.9,2.3-2,2.7v0
			c0.8,0.3,1.2,1,1.5,2.1c0.3,1.3,0.6,2.6,0.8,3h-2c-0.2-0.3-0.4-1.2-0.7-2.5c-0.3-1.4-0.8-1.9-1.9-1.9h-1v4.4h-2V320.6z
			 M379.8,325.4h1.2c1.3,0,2.2-0.7,2.2-1.8c0-1.2-0.8-1.7-2.1-1.7c-0.6,0-1,0-1.2,0.1V325.4z"/>
		<path fill="#FFFFFF" d="M388.3,327.9c0,1.4,1.2,2,2.4,2c0.9,0,1.6-0.1,2.2-0.4l0.3,1.4c-0.7,0.3-1.6,0.5-2.7,0.5
			c-2.5,0-4-1.6-4-3.9c0-2.2,1.3-4.2,3.8-4.2c2.5,0,3.4,2.1,3.4,3.8c0,0.4,0,0.7-0.1,0.8H388.3z M391.8,326.6c0-0.7-0.3-1.9-1.6-1.9
			c-1.2,0-1.7,1.1-1.8,1.9H391.8z M392.7,320.1l-2,2.4h-1.4l1.4-2.4H392.7z"/>
		<path fill="#FFFFFF" d="M399.6,331.3l-0.1-0.9h0c-0.5,0.6-1.3,1-2.3,1c-1.6,0-2.4-1.1-2.4-2.3c0-2,1.7-3,4.6-2.9v-0.1
			c0-0.5-0.2-1.4-1.6-1.4c-0.8,0-1.6,0.2-2.1,0.6l-0.4-1.3c0.6-0.4,1.6-0.7,2.8-0.7c2.5,0,3.2,1.6,3.2,3.3v2.8c0,0.7,0,1.4,0.1,1.9
			H399.6z M399.3,327.5c-1.4,0-2.7,0.3-2.7,1.5c0,0.8,0.5,1.1,1.1,1.1c0.8,0,1.4-0.5,1.5-1.1c0-0.1,0.1-0.3,0.1-0.4V327.5z"/>
		<path fill="#FFFFFF" d="M403.3,319.9h2v11.4h-2V319.9z"/>
		<path fill="#FFFFFF" d="M409.5,321.3c0,0.6-0.4,1.1-1.1,1.1c-0.7,0-1.1-0.5-1.1-1.1c0-0.6,0.4-1.1,1.1-1.1
			C409.1,320.2,409.5,320.7,409.5,321.3z M407.4,331.3v-7.8h2v7.8H407.4z"/>
		<path fill="#FFFFFF" d="M411.4,329.5c0.4,0.3,1.3,0.6,2,0.6c0.9,0,1.2-0.4,1.2-0.9c0-0.5-0.3-0.8-1.3-1.1
			c-1.5-0.5-2.2-1.4-2.1-2.3c0-1.4,1.1-2.4,2.9-2.4c0.9,0,1.6,0.2,2.1,0.5l-0.4,1.4c-0.3-0.2-1-0.4-1.6-0.4c-0.7,0-1.1,0.3-1.1,0.8
			c0,0.5,0.4,0.7,1.4,1.1c1.4,0.5,2.1,1.2,2.1,2.4c0,1.4-1.1,2.4-3.2,2.4c-0.9,0-1.8-0.2-2.4-0.5L411.4,329.5z"/>
		<path fill="#FFFFFF" d="M422.6,331.3l-0.1-0.9h0c-0.5,0.6-1.3,1-2.3,1c-1.6,0-2.4-1.1-2.4-2.3c0-2,1.7-3,4.6-2.9v-0.1
			c0-0.5-0.2-1.4-1.6-1.4c-0.8,0-1.6,0.2-2.1,0.6l-0.4-1.3c0.6-0.4,1.6-0.7,2.8-0.7c2.5,0,3.2,1.6,3.2,3.3v2.8c0,0.7,0,1.4,0.1,1.9
			H422.6z M422.3,327.5c-1.4,0-2.7,0.3-2.7,1.5c0,0.8,0.5,1.1,1.1,1.1c0.8,0,1.4-0.5,1.5-1.1c0-0.1,0.1-0.3,0.1-0.4V327.5z"/>
		<path fill="#FFFFFF" d="M428.5,321.3v2.2h1.9v1.5h-1.9v3.4c0,0.9,0.3,1.4,1,1.4c0.3,0,0.6,0,0.8-0.1l0,1.5
			c-0.3,0.1-0.8,0.2-1.4,0.2c-0.7,0-1.3-0.2-1.7-0.6c-0.4-0.4-0.6-1.2-0.6-2.2V325h-1.1v-1.5h1.1v-1.8L428.5,321.3z"/>
		<path fill="#FFFFFF" d="M434,321.3c0,0.6-0.4,1.1-1.1,1.1c-0.7,0-1.1-0.5-1.1-1.1c0-0.6,0.4-1.1,1.1-1.1
			C433.5,320.2,433.9,320.7,434,321.3z M431.9,331.3v-7.8h2v7.8H431.9z"/>
		<path fill="#FFFFFF" d="M443.4,327.3c0,2.9-2,4.1-4,4.1c-2.2,0-3.9-1.5-3.9-4c0-2.6,1.7-4.1,4-4.1
			C441.8,323.3,443.4,324.9,443.4,327.3z M437.5,327.4c0,1.5,0.7,2.6,1.9,2.6c1.1,0,1.9-1.1,1.9-2.7c0-1.2-0.5-2.6-1.9-2.6
			C438.1,324.7,437.5,326.1,437.5,327.4z"/>
		<path fill="#FFFFFF" d="M445,325.8c0-0.9,0-1.6-0.1-2.3h1.7l0.1,1.2h0c0.3-0.6,1.2-1.3,2.5-1.3c1.4,0,2.8,0.9,2.8,3.3v4.6h-2v-4.4
			c0-1.1-0.4-2-1.5-2c-0.8,0-1.3,0.6-1.5,1.2c-0.1,0.2-0.1,0.4-0.1,0.6v4.6h-2V325.8z"/>
	</g>
	<g enable-background="new    ">
		<path fill="#FFFFFF" d="M339.2,352.1c0.5-0.1,1.3-0.2,2-0.2c1.1,0,1.8,0.2,2.3,0.7c0.4,0.4,0.6,0.9,0.6,1.5c0,1.1-0.7,1.8-1.5,2.1
			v0c0.6,0.2,1,0.8,1.2,1.6c0.3,1.1,0.5,1.9,0.6,2.2h-1.1c-0.1-0.2-0.3-0.9-0.5-1.9c-0.2-1.1-0.7-1.5-1.6-1.6h-1v3.5h-1V352.1z
			 M340.2,355.8h1.1c1.1,0,1.8-0.6,1.8-1.5c0-1-0.8-1.5-1.9-1.5c-0.5,0-0.9,0-1,0.1V355.8z"/>
		<path fill="#FFFFFF" d="M346.2,357.4c0,1.4,0.9,2,2,2c0.8,0,1.2-0.1,1.6-0.3l0.2,0.8c-0.4,0.2-1,0.4-1.9,0.4
			c-1.8,0-2.9-1.2-2.9-2.9s1-3.1,2.7-3.1c1.9,0,2.4,1.7,2.4,2.7c0,0.2,0,0.4,0,0.5H346.2z M349.3,356.6c0-0.7-0.3-1.7-1.5-1.7
			c-1.1,0-1.5,1-1.6,1.7H349.3z"/>
		<path fill="#FFFFFF" d="M351.5,359c0.3,0.2,0.9,0.4,1.4,0.4c0.8,0,1.1-0.4,1.1-0.9c0-0.5-0.3-0.8-1.1-1.1c-1-0.4-1.5-0.9-1.5-1.6
			c0-0.9,0.8-1.7,2-1.7c0.6,0,1.1,0.2,1.4,0.4l-0.3,0.8c-0.2-0.1-0.6-0.3-1.2-0.3c-0.6,0-1,0.4-1,0.8c0,0.5,0.3,0.7,1.1,1
			c1,0.4,1.5,0.9,1.5,1.8c0,1-0.8,1.7-2.2,1.7c-0.6,0-1.2-0.2-1.6-0.4L351.5,359z"/>
		<path fill="#FFFFFF" d="M356.4,356.2c0-0.7,0-1.3,0-1.9h0.9l0,1h0c0.4-0.7,1.1-1.1,2.1-1.1c1.4,0,2.5,1.2,2.5,3
			c0,2.1-1.3,3.1-2.6,3.1c-0.8,0-1.4-0.3-1.8-0.9h0v3.2h-1V356.2z M357.4,357.7c0,0.2,0,0.3,0,0.4c0.2,0.7,0.8,1.2,1.6,1.2
			c1.1,0,1.8-0.9,1.8-2.2c0-1.2-0.6-2.2-1.7-2.2c-0.7,0-1.4,0.5-1.6,1.3c0,0.1-0.1,0.3-0.1,0.4V357.7z"/>
		<path fill="#FFFFFF" d="M363.8,357.4c0,1.4,0.9,2,2,2c0.8,0,1.2-0.1,1.6-0.3l0.2,0.8c-0.4,0.2-1,0.4-1.9,0.4
			c-1.8,0-2.9-1.2-2.9-2.9s1-3.1,2.7-3.1c1.9,0,2.4,1.7,2.4,2.7c0,0.2,0,0.4,0,0.5H363.8z M366.9,356.6c0-0.7-0.3-1.7-1.5-1.7
			c-1.1,0-1.5,1-1.6,1.7H366.9z"/>
		<path fill="#FFFFFF" d="M373.4,359.9c-0.3,0.1-0.9,0.3-1.7,0.3c-1.8,0-2.9-1.2-2.9-3c0-1.8,1.2-3.1,3.1-3.1c0.6,0,1.2,0.2,1.5,0.3
			l-0.2,0.8c-0.3-0.1-0.6-0.3-1.2-0.3c-1.3,0-2.1,1-2.1,2.2c0,1.3,0.9,2.2,2,2.2c0.6,0,1-0.2,1.3-0.3L373.4,359.9z"/>
		<path fill="#FFFFFF" d="M376,352.6v1.7h1.5v0.8H376v3.1c0,0.7,0.2,1.1,0.8,1.1c0.3,0,0.5,0,0.6-0.1l0,0.8
			c-0.2,0.1-0.5,0.1-0.9,0.1c-0.5,0-0.9-0.2-1.1-0.4c-0.3-0.3-0.4-0.8-0.4-1.5v-3.2h-0.9v-0.8h0.9v-1.4L376,352.6z"/>
		<path fill="#FFFFFF" d="M386.3,351.6v7c0,0.5,0,1.1,0,1.5h-0.9l0-1h0c-0.3,0.6-1,1.1-2,1.1c-1.4,0-2.5-1.2-2.5-3
			c0-1.9,1.2-3.1,2.6-3.1c0.9,0,1.5,0.4,1.8,0.9h0v-3.5H386.3z M385.2,356.6c0-0.1,0-0.3,0-0.4c-0.2-0.7-0.7-1.2-1.5-1.2
			c-1.1,0-1.7,1-1.7,2.2c0,1.2,0.6,2.1,1.7,2.1c0.7,0,1.4-0.5,1.5-1.3c0-0.1,0-0.3,0-0.5V356.6z"/>
		<path fill="#FFFFFF" d="M388.6,357.4c0,1.4,0.9,2,2,2c0.8,0,1.2-0.1,1.6-0.3l0.2,0.8c-0.4,0.2-1,0.4-1.9,0.4
			c-1.8,0-2.9-1.2-2.9-2.9s1-3.1,2.7-3.1c1.9,0,2.4,1.7,2.4,2.7c0,0.2,0,0.4,0,0.5H388.6z M391.7,356.6c0-0.7-0.3-1.7-1.5-1.7
			c-1.1,0-1.5,1-1.6,1.7H391.7z"/>
		<path fill="#FFFFFF" d="M393.9,359c0.3,0.2,0.9,0.4,1.4,0.4c0.8,0,1.1-0.4,1.1-0.9c0-0.5-0.3-0.8-1.1-1.1c-1-0.4-1.5-0.9-1.5-1.6
			c0-0.9,0.8-1.7,2-1.7c0.6,0,1.1,0.2,1.4,0.4l-0.3,0.8c-0.2-0.1-0.6-0.3-1.2-0.3c-0.6,0-1,0.4-1,0.8c0,0.5,0.3,0.7,1.1,1
			c1,0.4,1.5,0.9,1.5,1.8c0,1-0.8,1.7-2.2,1.7c-0.6,0-1.2-0.2-1.6-0.4L393.9,359z"/>
		<path fill="#FFFFFF" d="M405.5,359.9c-0.3,0.1-0.9,0.3-1.7,0.3c-1.8,0-2.9-1.2-2.9-3c0-1.8,1.2-3.1,3.1-3.1c0.6,0,1.2,0.2,1.5,0.3
			l-0.2,0.8c-0.3-0.1-0.6-0.3-1.2-0.3c-1.3,0-2.1,1-2.1,2.2c0,1.3,0.9,2.2,2,2.2c0.6,0,1-0.2,1.3-0.3L405.5,359.9z"/>
		<path fill="#FFFFFF" d="M411.9,357.1c0,2.1-1.5,3.1-2.9,3.1c-1.6,0-2.8-1.2-2.8-3c0-1.9,1.3-3.1,2.9-3.1
			C410.8,354.1,411.9,355.3,411.9,357.1z M407.3,357.2c0,1.3,0.7,2.2,1.8,2.2c1,0,1.8-0.9,1.8-2.3c0-1-0.5-2.2-1.7-2.2
			C407.8,354.9,407.3,356.1,407.3,357.2z"/>
		<path fill="#FFFFFF" d="M418.1,358.5c0,0.6,0,1.1,0,1.6h-0.9l-0.1-0.9h0c-0.3,0.5-0.9,1.1-1.9,1.1c-0.9,0-2-0.5-2-2.5v-3.4h1.1
			v3.2c0,1.1,0.3,1.8,1.3,1.8c0.7,0,1.2-0.5,1.4-1c0.1-0.2,0.1-0.3,0.1-0.5v-3.6h1.1V358.5z M416,351.8l1.2,1.7h-0.8l-0.7-1.1h0
			l-0.7,1.1h-0.8l1.1-1.7H416z"/>
		<path fill="#FFFFFF" d="M421.1,352.6v1.7h1.5v0.8h-1.5v3.1c0,0.7,0.2,1.1,0.8,1.1c0.3,0,0.5,0,0.6-0.1l0,0.8
			c-0.2,0.1-0.5,0.1-0.9,0.1c-0.5,0-0.9-0.2-1.1-0.4c-0.3-0.3-0.4-0.8-0.4-1.5v-3.2h-0.9v-0.8h0.9v-1.4L421.1,352.6z"/>
		<path fill="#FFFFFF" d="M423.7,359c0.3,0.2,0.9,0.4,1.4,0.4c0.8,0,1.1-0.4,1.1-0.9c0-0.5-0.3-0.8-1.1-1.1c-1-0.4-1.5-0.9-1.5-1.6
			c0-0.9,0.8-1.7,2-1.7c0.6,0,1.1,0.2,1.4,0.4l-0.3,0.8c-0.2-0.1-0.6-0.3-1.2-0.3c-0.6,0-1,0.4-1,0.8c0,0.5,0.3,0.7,1.1,1
			c1,0.4,1.5,0.9,1.5,1.8c0,1-0.8,1.7-2.2,1.7c-0.6,0-1.2-0.2-1.6-0.4L423.7,359z"/>
		<path fill="#FFFFFF" d="M431.7,357.4c0,1.4,0.9,2,2,2c0.8,0,1.2-0.1,1.6-0.3l0.2,0.8c-0.4,0.2-1,0.4-1.9,0.4
			c-1.8,0-2.9-1.2-2.9-2.9s1-3.1,2.7-3.1c1.9,0,2.4,1.7,2.4,2.7c0,0.2,0,0.4,0,0.5H431.7z M434.8,356.6c0-0.7-0.3-1.7-1.5-1.7
			c-1.1,0-1.5,1-1.6,1.7H434.8z"/>
		<path fill="#FFFFFF" d="M438.4,352.6v1.7h1.5v0.8h-1.5v3.1c0,0.7,0.2,1.1,0.8,1.1c0.3,0,0.5,0,0.6-0.1l0,0.8
			c-0.2,0.1-0.5,0.1-0.9,0.1c-0.5,0-0.9-0.2-1.1-0.4c-0.3-0.3-0.4-0.8-0.4-1.5v-3.2h-0.9v-0.8h0.9v-1.4L438.4,352.6z"/>
		<path fill="#FFFFFF" d="M448.7,351.6v7c0,0.5,0,1.1,0,1.5h-0.9l0-1h0c-0.3,0.6-1,1.1-2,1.1c-1.4,0-2.5-1.2-2.5-3
			c0-1.9,1.2-3.1,2.6-3.1c0.9,0,1.5,0.4,1.8,0.9h0v-3.5H448.7z M447.6,356.6c0-0.1,0-0.3,0-0.4c-0.2-0.7-0.7-1.2-1.5-1.2
			c-1.1,0-1.7,1-1.7,2.2c0,1.2,0.6,2.1,1.7,2.1c0.7,0,1.4-0.5,1.5-1.3c0-0.1,0-0.3,0-0.5V356.6z"/>
		<path fill="#FFFFFF" d="M451,357.4c0,1.4,0.9,2,2,2c0.8,0,1.2-0.1,1.6-0.3l0.2,0.8c-0.4,0.2-1,0.4-1.9,0.4c-1.8,0-2.9-1.2-2.9-2.9
			s1-3.1,2.7-3.1c1.9,0,2.4,1.7,2.4,2.7c0,0.2,0,0.4,0,0.5H451z M454.1,356.6c0-0.7-0.3-1.7-1.5-1.7c-1.1,0-1.5,1-1.6,1.7H454.1z"/>
		<path fill="#FFFFFF" d="M456.3,359c0.3,0.2,0.9,0.4,1.4,0.4c0.8,0,1.1-0.4,1.1-0.9c0-0.5-0.3-0.8-1.1-1.1c-1-0.4-1.5-0.9-1.5-1.6
			c0-0.9,0.8-1.7,2-1.7c0.6,0,1.1,0.2,1.4,0.4l-0.3,0.8c-0.2-0.1-0.6-0.3-1.2-0.3c-0.6,0-1,0.4-1,0.8c0,0.5,0.3,0.7,1.1,1
			c1,0.4,1.5,0.9,1.5,1.8c0,1-0.8,1.7-2.2,1.7c-0.6,0-1.2-0.2-1.6-0.4L456.3,359z"/>
		<path fill="#FFFFFF" d="M468.7,351.6v7c0,0.5,0,1.1,0,1.5h-0.9l0-1h0c-0.3,0.6-1,1.1-2,1.1c-1.4,0-2.5-1.2-2.5-3
			c0-1.9,1.2-3.1,2.6-3.1c0.9,0,1.5,0.4,1.8,0.9h0v-3.5H468.7z M467.7,356.6c0-0.1,0-0.3,0-0.4c-0.2-0.7-0.7-1.2-1.5-1.2
			c-1.1,0-1.7,1-1.7,2.2c0,1.2,0.6,2.1,1.7,2.1c0.7,0,1.4-0.5,1.5-1.3c0-0.1,0-0.3,0-0.5V356.6z"/>
		<path fill="#FFFFFF" d="M471.1,357.4c0,1.4,0.9,2,2,2c0.8,0,1.2-0.1,1.6-0.3l0.2,0.8c-0.4,0.2-1,0.4-1.9,0.4
			c-1.8,0-2.9-1.2-2.9-2.9s1-3.1,2.7-3.1c1.9,0,2.4,1.7,2.4,2.7c0,0.2,0,0.4,0,0.5H471.1z M474.2,356.6c0-0.7-0.3-1.7-1.5-1.7
			c-1.1,0-1.5,1-1.6,1.7H474.2z M474.4,351.8l-1.5,1.7h-0.8l1.1-1.7H474.4z"/>
		<path fill="#FFFFFF" d="M476.5,351.6h1.1v8.5h-1.1V351.6z"/>
		<path fill="#FFFFFF" d="M482.6,360.1l-0.1-0.7h0c-0.3,0.5-0.9,0.9-1.8,0.9c-1.2,0-1.8-0.8-1.8-1.7c0-1.4,1.2-2.2,3.5-2.2v-0.1
			c0-0.5-0.1-1.3-1.3-1.3c-0.5,0-1.1,0.2-1.5,0.4l-0.2-0.7c0.5-0.3,1.2-0.5,1.9-0.5c1.8,0,2.2,1.2,2.2,2.4v2.2c0,0.5,0,1,0.1,1.4
			H482.6z M482.4,357.1c-1.2,0-2.5,0.2-2.5,1.3c0,0.7,0.5,1,1,1c0.8,0,1.2-0.5,1.4-1c0-0.1,0.1-0.2,0.1-0.3V357.1z"/>
		<path fill="#FFFFFF" d="M486.3,352.6c0,0.4-0.3,0.6-0.7,0.6c-0.4,0-0.6-0.3-0.6-0.6c0-0.4,0.3-0.7,0.7-0.7
			C486,352,486.3,352.3,486.3,352.6z M485.1,360.1v-5.8h1.1v5.8H485.1z"/>
		<path fill="#FFFFFF" d="M487.8,359c0.3,0.2,0.9,0.4,1.4,0.4c0.8,0,1.1-0.4,1.1-0.9c0-0.5-0.3-0.8-1.1-1.1c-1-0.4-1.5-0.9-1.5-1.6
			c0-0.9,0.8-1.7,2-1.7c0.6,0,1.1,0.2,1.4,0.4l-0.3,0.8c-0.2-0.1-0.6-0.3-1.2-0.3c-0.6,0-1,0.4-1,0.8c0,0.5,0.3,0.7,1.1,1
			c1,0.4,1.5,0.9,1.5,1.8c0,1-0.8,1.7-2.2,1.7c-0.6,0-1.2-0.2-1.6-0.4L487.8,359z"/>
	</g>
	<g enable-background="new    ">
		<path fill="#FFFFFF" d="M338.6,374.2c-0.4,0.2-1.2,0.4-2.1,0.4c-2.3,0-4-1.4-4-4.1c0-2.5,1.7-4.2,4.2-4.2c1,0,1.6,0.2,1.9,0.4
			l-0.3,0.9c-0.4-0.2-1-0.3-1.6-0.3c-1.9,0-3.2,1.2-3.2,3.3c0,2,1.1,3.2,3.1,3.2c0.6,0,1.3-0.1,1.7-0.3L338.6,374.2z"/>
		<path fill="#FFFFFF" d="M345,371.5c0,2.1-1.5,3.1-2.9,3.1c-1.6,0-2.8-1.2-2.8-3c0-1.9,1.3-3.1,2.9-3.1
			C343.9,368.5,345,369.7,345,371.5z M340.4,371.6c0,1.3,0.7,2.2,1.8,2.2c1,0,1.8-0.9,1.8-2.3c0-1-0.5-2.2-1.7-2.2
			S340.4,370.5,340.4,371.6z"/>
		<path fill="#FFFFFF" d="M346.3,370.2c0-0.6,0-1.1,0-1.6h0.9l0.1,1h0c0.3-0.6,1-1.1,1.9-1.1c0.8,0,2.1,0.5,2.1,2.5v3.5h-1.1v-3.3
			c0-0.9-0.3-1.7-1.3-1.7c-0.7,0-1.2,0.5-1.4,1.1c0,0.1-0.1,0.3-0.1,0.5v3.5h-1.1V370.2z"/>
		<path fill="#FFFFFF" d="M354.2,367v1.7h1.5v0.8h-1.5v3.1c0,0.7,0.2,1.1,0.8,1.1c0.3,0,0.5,0,0.6-0.1l0,0.8
			c-0.2,0.1-0.5,0.1-0.9,0.1c-0.5,0-0.9-0.2-1.1-0.4c-0.3-0.3-0.4-0.8-0.4-1.5v-3.2h-0.9v-0.8h0.9v-1.4L354.2,367z"/>
		<path fill="#FFFFFF" d="M356.9,370.5c0-0.7,0-1.3,0-1.8h0.9l0,1.1h0c0.3-0.8,0.9-1.3,1.6-1.3c0.1,0,0.2,0,0.3,0v1
			c-0.1,0-0.2,0-0.4,0c-0.7,0-1.3,0.6-1.4,1.4c0,0.1,0,0.3,0,0.5v3.1h-1V370.5z"/>
		<path fill="#FFFFFF" d="M366,371.5c0,2.1-1.5,3.1-2.9,3.1c-1.6,0-2.8-1.2-2.8-3c0-1.9,1.3-3.1,2.9-3.1
			C364.8,368.5,366,369.7,366,371.5z M361.4,371.6c0,1.3,0.7,2.2,1.8,2.2c1,0,1.8-0.9,1.8-2.3c0-1-0.5-2.2-1.7-2.2
			S361.4,370.5,361.4,371.6z M363.5,366.2l1.2,1.7h-0.8l-0.7-1.1h0l-0.7,1.1h-0.8l1.1-1.7H363.5z"/>
		<path fill="#FFFFFF" d="M367.3,366h1.1v8.5h-1.1V366z"/>
		<path fill="#FFFFFF" d="M370.7,371.8c0,1.4,0.9,2,2,2c0.8,0,1.2-0.1,1.6-0.3l0.2,0.8c-0.4,0.2-1,0.4-1.9,0.4
			c-1.8,0-2.9-1.2-2.9-2.9s1-3.1,2.7-3.1c1.9,0,2.4,1.7,2.4,2.7c0,0.2,0,0.4,0,0.5H370.7z M373.8,371c0-0.7-0.3-1.7-1.5-1.7
			c-1.1,0-1.5,1-1.6,1.7H373.8z"/>
		<path fill="#FFFFFF" d="M378.7,370.6c0-0.7,0-1.3,0-1.9h0.9l0,1h0c0.4-0.7,1.1-1.1,2.1-1.1c1.4,0,2.5,1.2,2.5,3
			c0,2.1-1.3,3.1-2.6,3.1c-0.8,0-1.4-0.3-1.8-0.9h0v3.2h-1V370.6z M379.7,372.1c0,0.2,0,0.3,0,0.4c0.2,0.7,0.8,1.2,1.6,1.2
			c1.1,0,1.8-0.9,1.8-2.2c0-1.2-0.6-2.2-1.7-2.2c-0.7,0-1.4,0.5-1.6,1.3c0,0.1-0.1,0.3-0.1,0.4V372.1z"/>
		<path fill="#FFFFFF" d="M386.1,371.8c0,1.4,0.9,2,2,2c0.8,0,1.2-0.1,1.6-0.3l0.2,0.8c-0.4,0.2-1,0.4-1.9,0.4
			c-1.8,0-2.9-1.2-2.9-2.9s1-3.1,2.7-3.1c1.9,0,2.4,1.7,2.4,2.7c0,0.2,0,0.4,0,0.5H386.1z M389.2,371c0-0.7-0.3-1.7-1.5-1.7
			c-1.1,0-1.5,1-1.6,1.7H389.2z"/>
		<path fill="#FFFFFF" d="M391.5,370.5c0-0.7,0-1.3,0-1.8h0.9l0,1.1h0c0.3-0.8,0.9-1.3,1.6-1.3c0.1,0,0.2,0,0.3,0v1
			c-0.1,0-0.2,0-0.4,0c-0.7,0-1.3,0.6-1.4,1.4c0,0.1,0,0.3,0,0.5v3.1h-1V370.5z"/>
		<path fill="#FFFFFF" d="M395.5,370.2c0-0.6,0-1.1,0-1.6h0.9l0,0.9h0c0.3-0.6,0.9-1.1,1.8-1.1c0.8,0,1.4,0.5,1.6,1.2h0
			c0.2-0.3,0.4-0.6,0.6-0.8c0.3-0.3,0.7-0.4,1.3-0.4c0.8,0,1.9,0.5,1.9,2.5v3.4h-1v-3.3c0-1.1-0.4-1.8-1.3-1.8c-0.6,0-1.1,0.4-1.2,1
			c0,0.1-0.1,0.3-0.1,0.5v3.6h-1V371c0-0.9-0.4-1.6-1.2-1.6c-0.7,0-1.1,0.5-1.3,1.1c-0.1,0.2-0.1,0.3-0.1,0.5v3.5h-1V370.2z"/>
		<path fill="#FFFFFF" d="M408.7,374.5l-0.1-0.7h0c-0.3,0.5-0.9,0.9-1.8,0.9c-1.2,0-1.8-0.8-1.8-1.7c0-1.4,1.2-2.2,3.5-2.2v-0.1
			c0-0.5-0.1-1.3-1.3-1.3c-0.5,0-1.1,0.2-1.5,0.4l-0.2-0.7c0.5-0.3,1.2-0.5,1.9-0.5c1.8,0,2.2,1.2,2.2,2.4v2.2c0,0.5,0,1,0.1,1.4
			H408.7z M408.6,371.5c-1.2,0-2.5,0.2-2.5,1.3c0,0.7,0.5,1,1,1c0.8,0,1.2-0.5,1.4-1c0-0.1,0.1-0.2,0.1-0.3V371.5z"/>
		<path fill="#FFFFFF" d="M411.3,370.2c0-0.6,0-1.1,0-1.6h0.9l0.1,1h0c0.3-0.6,1-1.1,1.9-1.1c0.8,0,2.1,0.5,2.1,2.5v3.5h-1.1v-3.3
			c0-0.9-0.3-1.7-1.3-1.7c-0.7,0-1.2,0.5-1.4,1.1c0,0.1-0.1,0.3-0.1,0.5v3.5h-1.1V370.2z"/>
		<path fill="#FFFFFF" d="M418.5,371.8c0,1.4,0.9,2,2,2c0.8,0,1.2-0.1,1.6-0.3l0.2,0.8c-0.4,0.2-1,0.4-1.9,0.4
			c-1.8,0-2.9-1.2-2.9-2.9s1-3.1,2.7-3.1c1.9,0,2.4,1.7,2.4,2.7c0,0.2,0,0.4,0,0.5H418.5z M421.6,371c0-0.7-0.3-1.7-1.5-1.7
			c-1.1,0-1.5,1-1.6,1.7H421.6z"/>
		<path fill="#FFFFFF" d="M424,370.2c0-0.6,0-1.1,0-1.6h0.9l0.1,1h0c0.3-0.6,1-1.1,1.9-1.1c0.8,0,2.1,0.5,2.1,2.5v3.5h-1.1v-3.3
			c0-0.9-0.3-1.7-1.3-1.7c-0.7,0-1.2,0.5-1.4,1.1c0,0.1-0.1,0.3-0.1,0.5v3.5H424V370.2z"/>
		<path fill="#FFFFFF" d="M431.9,367v1.7h1.5v0.8h-1.5v3.1c0,0.7,0.2,1.1,0.8,1.1c0.3,0,0.5,0,0.6-0.1l0,0.8
			c-0.2,0.1-0.5,0.1-0.9,0.1c-0.5,0-0.9-0.2-1.1-0.4c-0.3-0.3-0.4-0.8-0.4-1.5v-3.2h-0.9v-0.8h0.9v-1.4L431.9,367z"/>
		<path fill="#FFFFFF" d="M442.1,366v7c0,0.5,0,1.1,0,1.5h-0.9l0-1h0c-0.3,0.6-1,1.1-2,1.1c-1.4,0-2.5-1.2-2.5-3
			c0-1.9,1.2-3.1,2.6-3.1c0.9,0,1.5,0.4,1.8,0.9h0V366H442.1z M441.1,371c0-0.1,0-0.3,0-0.4c-0.2-0.7-0.7-1.2-1.5-1.2
			c-1.1,0-1.7,1-1.7,2.2c0,1.2,0.6,2.1,1.7,2.1c0.7,0,1.4-0.5,1.5-1.3c0-0.1,0-0.3,0-0.5V371z"/>
		<path fill="#FFFFFF" d="M444.5,371.8c0,1.4,0.9,2,2,2c0.8,0,1.2-0.1,1.6-0.3l0.2,0.8c-0.4,0.2-1,0.4-1.9,0.4
			c-1.8,0-2.9-1.2-2.9-2.9s1-3.1,2.7-3.1c1.9,0,2.4,1.7,2.4,2.7c0,0.2,0,0.4,0,0.5H444.5z M447.6,371c0-0.7-0.3-1.7-1.5-1.7
			c-1.1,0-1.5,1-1.6,1.7H447.6z"/>
		<path fill="#FFFFFF" d="M452.4,366h1.1v8.5h-1.1V366z"/>
		<path fill="#FFFFFF" d="M458.5,374.5l-0.1-0.7h0c-0.3,0.5-0.9,0.9-1.8,0.9c-1.2,0-1.8-0.8-1.8-1.7c0-1.4,1.2-2.2,3.5-2.2v-0.1
			c0-0.5-0.1-1.3-1.3-1.3c-0.5,0-1.1,0.2-1.5,0.4l-0.2-0.7c0.5-0.3,1.2-0.5,1.9-0.5c1.8,0,2.2,1.2,2.2,2.4v2.2c0,0.5,0,1,0.1,1.4
			H458.5z M458.3,371.5c-1.2,0-2.5,0.2-2.5,1.3c0,0.7,0.5,1,1,1c0.8,0,1.2-0.5,1.4-1c0-0.1,0.1-0.2,0.1-0.3V371.5z"/>
		<path fill="#FFFFFF" d="M467.5,373.6L467.5,373.6c-0.3,0.6-1,1-1.9,1c-1.4,0-2.5-1.2-2.5-2.9c0-2.2,1.4-3.1,2.6-3.1
			c0.9,0,1.5,0.4,1.8,1h0l0-0.9h1c0,0.5,0,1,0,1.6v6.6h-1.1V373.6z M467.5,371c0-0.1,0-0.3,0-0.4c-0.2-0.6-0.7-1.2-1.5-1.2
			c-1.1,0-1.8,0.9-1.8,2.2c0,1.2,0.6,2.2,1.7,2.2c0.7,0,1.3-0.4,1.5-1.2c0-0.1,0.1-0.3,0.1-0.5V371z"/>
		<path fill="#FFFFFF" d="M475.2,372.9c0,0.6,0,1.1,0,1.6h-0.9l-0.1-0.9h0c-0.3,0.5-0.9,1.1-1.9,1.1c-0.9,0-2-0.5-2-2.5v-3.4h1.1
			v3.2c0,1.1,0.3,1.8,1.3,1.8c0.7,0,1.2-0.5,1.4-1c0.1-0.2,0.1-0.3,0.1-0.5v-3.6h1.1V372.9z"/>
		<path fill="#FFFFFF" d="M480.2,374.5l-0.1-0.7h0c-0.3,0.5-0.9,0.9-1.8,0.9c-1.2,0-1.8-0.8-1.8-1.7c0-1.4,1.2-2.2,3.5-2.2v-0.1
			c0-0.5-0.1-1.3-1.3-1.3c-0.5,0-1.1,0.2-1.5,0.4l-0.2-0.7c0.5-0.3,1.2-0.5,1.9-0.5c1.8,0,2.2,1.2,2.2,2.4v2.2c0,0.5,0,1,0.1,1.4
			H480.2z M480,371.5c-1.2,0-2.5,0.2-2.5,1.3c0,0.7,0.5,1,1,1c0.8,0,1.2-0.5,1.4-1c0-0.1,0.1-0.2,0.1-0.3V371.5z"/>
		<path fill="#FFFFFF" d="M482.7,366h1.1v8.5h-1.1V366z"/>
		<path fill="#FFFFFF" d="M486.7,367c0,0.4-0.3,0.6-0.7,0.6c-0.4,0-0.6-0.3-0.6-0.6c0-0.4,0.3-0.7,0.7-0.7
			C486.5,366.4,486.7,366.7,486.7,367z M485.6,374.5v-5.8h1.1v5.8H485.6z"/>
		<path fill="#FFFFFF" d="M489.6,367v1.7h1.5v0.8h-1.5v3.1c0,0.7,0.2,1.1,0.8,1.1c0.3,0,0.5,0,0.6-0.1l0,0.8
			c-0.2,0.1-0.5,0.1-0.9,0.1c-0.5,0-0.9-0.2-1.1-0.4c-0.3-0.3-0.4-0.8-0.4-1.5v-3.2h-0.9v-0.8h0.9v-1.4L489.6,367z"/>
		<path fill="#FFFFFF" d="M492.9,371.8c0,1.4,0.9,2,2,2c0.8,0,1.2-0.1,1.6-0.3l0.2,0.8c-0.4,0.2-1,0.4-1.9,0.4
			c-1.8,0-2.9-1.2-2.9-2.9s1-3.1,2.7-3.1c1.9,0,2.4,1.7,2.4,2.7c0,0.2,0,0.4,0,0.5H492.9z M496,371c0-0.7-0.3-1.7-1.5-1.7
			c-1.1,0-1.5,1-1.6,1.7H496z M496.2,366.2l-1.5,1.7H494l1.1-1.7H496.2z"/>
	</g>
	<path fill="none" stroke="#FFFFFF" d="M314.1,384.1c0,6.3,5.1,11.3,11.3,11.3h179.1c6.3,0,11.3-5.1,11.3-11.3v-72.9
		c0-6.3-5.1-11.3-11.3-11.3H325.4c-6.3,0-11.3,5.1-11.3,11.3V384.1z"/>
</g>
<g>
	<g enable-background="new    ">
		<path fill="#FFFFFF" d="M229.9,508.5l-3.5-10.8h2.1l1.5,4.9c0.4,1.4,0.8,2.6,1.1,3.9h0c0.3-1.3,0.7-2.6,1.1-3.9l1.6-4.9h2.1
			l-3.7,10.8H229.9z"/>
		<path fill="#FFFFFF" d="M240.8,508.5l-0.1-0.9h0c-0.5,0.6-1.3,1-2.3,1c-1.6,0-2.4-1.1-2.4-2.3c0-2,1.7-3,4.6-2.9v-0.1
			c0-0.5-0.2-1.4-1.6-1.4c-0.8,0-1.6,0.2-2.1,0.6l-0.4-1.3c0.6-0.4,1.6-0.7,2.8-0.7c2.5,0,3.2,1.6,3.2,3.3v2.8c0,0.7,0,1.4,0.1,1.9
			H240.8z M240.5,504.6c-1.4,0-2.7,0.3-2.7,1.5c0,0.8,0.5,1.1,1.1,1.1c0.8,0,1.4-0.5,1.5-1.1c0-0.1,0.1-0.3,0.1-0.4V504.6z"/>
		<path fill="#FFFFFF" d="M244.5,497.1h2v11.4h-2V497.1z"/>
		<path fill="#FFFFFF" d="M250.7,498.5c0,0.6-0.4,1.1-1.1,1.1c-0.7,0-1.1-0.5-1.1-1.1c0-0.6,0.4-1.1,1.1-1.1
			C250.3,497.4,250.7,497.9,250.7,498.5z M248.6,508.5v-7.8h2v7.8H248.6z"/>
		<path fill="#FFFFFF" d="M259.9,497.1v9.2c0,0.8,0,1.7,0.1,2.2h-1.8l-0.1-1.2h0c-0.5,0.9-1.4,1.4-2.5,1.4c-1.9,0-3.3-1.6-3.3-4
			c0-2.6,1.6-4.2,3.5-4.2c1.1,0,1.8,0.4,2.2,1h0v-4.4H259.9z M257.9,503.9c0-0.2,0-0.4,0-0.5c-0.2-0.8-0.8-1.4-1.7-1.4
			c-1.3,0-2,1.1-2,2.6c0,1.4,0.7,2.5,2,2.5c0.8,0,1.5-0.5,1.7-1.4c0-0.2,0.1-0.4,0.1-0.6V503.9z"/>
		<path fill="#FFFFFF" d="M266.4,508.5l-0.1-0.9h0c-0.5,0.6-1.3,1-2.3,1c-1.6,0-2.4-1.1-2.4-2.3c0-2,1.7-3,4.6-2.9v-0.1
			c0-0.5-0.2-1.4-1.6-1.4c-0.8,0-1.6,0.2-2.1,0.6l-0.4-1.3c0.6-0.4,1.6-0.7,2.8-0.7c2.5,0,3.2,1.6,3.2,3.3v2.8c0,0.7,0,1.4,0.1,1.9
			H266.4z M266.2,504.6c-1.4,0-2.7,0.3-2.7,1.5c0,0.8,0.5,1.1,1.1,1.1c0.8,0,1.4-0.5,1.5-1.1c0-0.1,0.1-0.3,0.1-0.4V504.6z"/>
		<path fill="#FFFFFF" d="M272.3,498.4v2.2h1.9v1.5h-1.9v3.4c0,0.9,0.3,1.4,1,1.4c0.3,0,0.6,0,0.8-0.1l0,1.5
			c-0.3,0.1-0.8,0.2-1.4,0.2c-0.7,0-1.3-0.2-1.7-0.6c-0.4-0.4-0.6-1.2-0.6-2.2v-3.7h-1.1v-1.5h1.1v-1.8L272.3,498.4z"/>
		<path fill="#FFFFFF" d="M277.8,498.5c0,0.6-0.4,1.1-1.1,1.1c-0.7,0-1.1-0.5-1.1-1.1c0-0.6,0.4-1.1,1.1-1.1
			C277.3,497.4,277.8,497.9,277.8,498.5z M275.7,508.5v-7.8h2v7.8H275.7z"/>
		<path fill="#FFFFFF" d="M287.2,504.5c0,2.9-2,4.1-4,4.1c-2.2,0-3.9-1.5-3.9-4c0-2.6,1.7-4.1,4-4.1
			C285.6,500.5,287.2,502.1,287.2,504.5z M281.3,504.6c0,1.5,0.7,2.6,1.9,2.6c1.1,0,1.9-1.1,1.9-2.7c0-1.2-0.5-2.6-1.9-2.6
			C281.9,501.9,281.3,503.3,281.3,504.6z"/>
		<path fill="#FFFFFF" d="M288.8,503c0-0.9,0-1.6-0.1-2.3h1.7l0.1,1.2h0c0.3-0.6,1.2-1.3,2.5-1.3c1.4,0,2.8,0.9,2.8,3.3v4.6h-2v-4.4
			c0-1.1-0.4-2-1.5-2c-0.8,0-1.3,0.6-1.5,1.2c-0.1,0.2-0.1,0.4-0.1,0.6v4.6h-2V503z"/>
	</g>
	<g enable-background="new    ">
		<path fill="#FFFFFF" d="M193.8,529.3c0.5-0.1,1.3-0.2,2-0.2c1.1,0,1.8,0.2,2.3,0.7c0.4,0.4,0.6,0.9,0.6,1.5c0,1.1-0.7,1.8-1.5,2.1
			v0c0.6,0.2,1,0.8,1.2,1.6c0.3,1.1,0.5,1.9,0.6,2.2H198c-0.1-0.2-0.3-0.9-0.5-1.9c-0.2-1.1-0.7-1.5-1.6-1.6h-1v3.5h-1V529.3z
			 M194.9,533h1.1c1.1,0,1.8-0.6,1.8-1.5c0-1-0.8-1.5-1.9-1.5c-0.5,0-0.9,0-1,0.1V533z"/>
		<path fill="#FFFFFF" d="M200.9,534.5c0,1.4,0.9,2,2,2c0.8,0,1.2-0.1,1.6-0.3l0.2,0.8c-0.4,0.2-1,0.4-1.9,0.4
			c-1.8,0-2.9-1.2-2.9-2.9s1-3.1,2.7-3.1c1.9,0,2.4,1.7,2.4,2.7c0,0.2,0,0.4,0,0.5H200.9z M204,533.8c0-0.7-0.3-1.7-1.5-1.7
			c-1.1,0-1.5,1-1.6,1.7H204z"/>
		<path fill="#FFFFFF" d="M206.3,533c0-0.6,0-1.1,0-1.6h0.9l0,0.9h0c0.3-0.6,0.9-1.1,1.8-1.1c0.8,0,1.4,0.5,1.6,1.2h0
			c0.2-0.3,0.4-0.6,0.6-0.8c0.3-0.3,0.7-0.4,1.3-0.4c0.8,0,1.9,0.5,1.9,2.5v3.4h-1V534c0-1.1-0.4-1.8-1.3-1.8c-0.6,0-1.1,0.4-1.2,1
			c0,0.1-0.1,0.3-0.1,0.5v3.6h-1v-3.5c0-0.9-0.4-1.6-1.2-1.6c-0.7,0-1.1,0.5-1.3,1.1c-0.1,0.2-0.1,0.3-0.1,0.5v3.5h-1V533z"/>
		<path fill="#FFFFFF" d="M217.5,529.8c0,0.4-0.3,0.6-0.7,0.6c-0.4,0-0.6-0.3-0.6-0.6c0-0.4,0.3-0.7,0.7-0.7
			C217.2,529.2,217.5,529.4,217.5,529.8z M216.3,537.3v-5.8h1.1v5.8H216.3z"/>
		<path fill="#FFFFFF" d="M219,536.2c0.3,0.2,0.9,0.4,1.4,0.4c0.8,0,1.1-0.4,1.1-0.9c0-0.5-0.3-0.8-1.1-1.1c-1-0.4-1.5-0.9-1.5-1.6
			c0-0.9,0.8-1.7,2-1.7c0.6,0,1.1,0.2,1.4,0.4l-0.3,0.8c-0.2-0.1-0.6-0.3-1.2-0.3c-0.6,0-1,0.4-1,0.8c0,0.5,0.3,0.7,1.1,1
			c1,0.4,1.5,0.9,1.5,1.8c0,1-0.8,1.7-2.2,1.7c-0.6,0-1.2-0.2-1.6-0.4L219,536.2z"/>
		<path fill="#FFFFFF" d="M224.5,534.5c0,1.4,0.9,2,2,2c0.8,0,1.2-0.1,1.6-0.3l0.2,0.8c-0.4,0.2-1,0.4-1.9,0.4
			c-1.8,0-2.9-1.2-2.9-2.9s1-3.1,2.7-3.1c1.9,0,2.4,1.7,2.4,2.7c0,0.2,0,0.4,0,0.5H224.5z M227.6,533.8c0-0.7-0.3-1.7-1.5-1.7
			c-1.1,0-1.5,1-1.6,1.7H227.6z"/>
		<path fill="#FFFFFF" d="M233,534.5c0,1.4,0.9,2,2,2c0.8,0,1.2-0.1,1.6-0.3l0.2,0.8c-0.4,0.2-1,0.4-1.9,0.4c-1.8,0-2.9-1.2-2.9-2.9
			s1-3.1,2.7-3.1c1.9,0,2.4,1.7,2.4,2.7c0,0.2,0,0.4,0,0.5H233z M236.1,533.8c0-0.7-0.3-1.7-1.5-1.7c-1.1,0-1.5,1-1.6,1.7H236.1z"/>
		<path fill="#FFFFFF" d="M239.7,529.8v1.7h1.5v0.8h-1.5v3.1c0,0.7,0.2,1.1,0.8,1.1c0.3,0,0.5,0,0.6-0.1l0,0.8
			c-0.2,0.1-0.5,0.1-0.9,0.1c-0.5,0-0.9-0.2-1.1-0.4c-0.3-0.3-0.4-0.8-0.4-1.5v-3.2h-0.9v-0.8h0.9v-1.4L239.7,529.8z"/>
		<path fill="#FFFFFF" d="M244.8,536.2c0.3,0.2,0.9,0.4,1.4,0.4c0.8,0,1.1-0.4,1.1-0.9c0-0.5-0.3-0.8-1.1-1.1
			c-1-0.4-1.5-0.9-1.5-1.6c0-0.9,0.8-1.7,2-1.7c0.6,0,1.1,0.2,1.4,0.4l-0.3,0.8c-0.2-0.1-0.6-0.3-1.2-0.3c-0.6,0-1,0.4-1,0.8
			c0,0.5,0.3,0.7,1.1,1c1,0.4,1.5,0.9,1.5,1.8c0,1-0.8,1.7-2.2,1.7c-0.6,0-1.2-0.2-1.6-0.4L244.8,536.2z"/>
		<path fill="#FFFFFF" d="M254.6,535.7c0,0.6,0,1.1,0,1.6h-0.9l-0.1-0.9h0c-0.3,0.5-0.9,1.1-1.9,1.1c-0.9,0-2-0.5-2-2.5v-3.4h1.1
			v3.2c0,1.1,0.3,1.8,1.3,1.8c0.7,0,1.2-0.5,1.4-1c0.1-0.2,0.1-0.3,0.1-0.5v-3.6h1.1V535.7z"/>
		<path fill="#FFFFFF" d="M257.5,529.8c0,0.4-0.3,0.6-0.7,0.6c-0.4,0-0.6-0.3-0.6-0.6c0-0.4,0.3-0.7,0.7-0.7
			C257.3,529.2,257.5,529.4,257.5,529.8z M256.3,537.3v-5.8h1.1v5.8H256.3z"/>
		<path fill="#FFFFFF" d="M259.5,531.5l1.1,3.3c0.2,0.5,0.3,1,0.5,1.5h0c0.1-0.5,0.3-1,0.5-1.5l1.1-3.3h1.1l-2.3,5.8h-1l-2.2-5.8
			H259.5z"/>
		<path fill="#FFFFFF" d="M266.1,529.8c0,0.4-0.3,0.6-0.7,0.6c-0.4,0-0.6-0.3-0.6-0.6c0-0.4,0.3-0.7,0.7-0.7
			C265.8,529.2,266.1,529.4,266.1,529.8z M264.9,537.3v-5.8h1.1v5.8H264.9z"/>
		<path fill="#FFFFFF" d="M275.3,528.7v7c0,0.5,0,1.1,0,1.5h-0.9l0-1h0c-0.3,0.6-1,1.1-2,1.1c-1.4,0-2.5-1.2-2.5-3
			c0-1.9,1.2-3.1,2.6-3.1c0.9,0,1.5,0.4,1.8,0.9h0v-3.5H275.3z M274.2,533.8c0-0.1,0-0.3,0-0.4c-0.2-0.7-0.7-1.2-1.5-1.2
			c-1.1,0-1.7,1-1.7,2.2c0,1.2,0.6,2.1,1.7,2.1c0.7,0,1.4-0.5,1.5-1.3c0-0.1,0-0.3,0-0.5V533.8z"/>
		<path fill="#FFFFFF" d="M277.6,534.5c0,1.4,0.9,2,2,2c0.8,0,1.2-0.1,1.6-0.3l0.2,0.8c-0.4,0.2-1,0.4-1.9,0.4
			c-1.8,0-2.9-1.2-2.9-2.9s1-3.1,2.7-3.1c1.9,0,2.4,1.7,2.4,2.7c0,0.2,0,0.4,0,0.5H277.6z M280.7,533.8c0-0.7-0.3-1.7-1.5-1.7
			c-1.1,0-1.5,1-1.6,1.7H280.7z"/>
		<path fill="#FFFFFF" d="M282.9,536.2c0.3,0.2,0.9,0.4,1.4,0.4c0.8,0,1.1-0.4,1.1-0.9c0-0.5-0.3-0.8-1.1-1.1
			c-1-0.4-1.5-0.9-1.5-1.6c0-0.9,0.8-1.7,2-1.7c0.6,0,1.1,0.2,1.4,0.4l-0.3,0.8c-0.2-0.1-0.6-0.3-1.2-0.3c-0.6,0-1,0.4-1,0.8
			c0,0.5,0.3,0.7,1.1,1c1,0.4,1.5,0.9,1.5,1.8c0,1-0.8,1.7-2.2,1.7c-0.6,0-1.2-0.2-1.6-0.4L282.9,536.2z"/>
		<path fill="#FFFFFF" d="M290.3,528.7h1.1v8.5h-1.1V528.7z"/>
		<path fill="#FFFFFF" d="M294.3,529.8c0,0.4-0.3,0.6-0.7,0.6c-0.4,0-0.6-0.3-0.6-0.6c0-0.4,0.3-0.7,0.7-0.7
			C294.1,529.2,294.3,529.4,294.3,529.8z M293.2,537.3v-5.8h1.1v5.8H293.2z"/>
		<path fill="#FFFFFF" d="M296.4,531.5l1.1,3.3c0.2,0.5,0.3,1,0.5,1.5h0c0.1-0.5,0.3-1,0.5-1.5l1.1-3.3h1.1l-2.3,5.8h-1l-2.2-5.8
			H296.4z"/>
		<path fill="#FFFFFF" d="M301.8,533.3c0-0.7,0-1.3,0-1.8h0.9l0,1.1h0c0.3-0.8,0.9-1.3,1.6-1.3c0.1,0,0.2,0,0.3,0v1
			c-0.1,0-0.2,0-0.4,0c-0.7,0-1.3,0.6-1.4,1.4c0,0.1,0,0.3,0,0.5v3.1h-1V533.3z"/>
		<path fill="#FFFFFF" d="M308.8,537.3l-0.1-0.7h0c-0.3,0.5-0.9,0.9-1.8,0.9c-1.2,0-1.8-0.8-1.8-1.7c0-1.4,1.2-2.2,3.5-2.2v-0.1
			c0-0.5-0.1-1.3-1.3-1.3c-0.5,0-1.1,0.2-1.5,0.4l-0.2-0.7c0.5-0.3,1.2-0.5,1.9-0.5c1.8,0,2.2,1.2,2.2,2.4v2.2c0,0.5,0,1,0.1,1.4
			H308.8z M308.7,534.3c-1.2,0-2.5,0.2-2.5,1.3c0,0.7,0.5,1,1,1c0.8,0,1.2-0.5,1.4-1c0-0.1,0.1-0.2,0.1-0.3V534.3z"/>
		<path fill="#FFFFFF" d="M311.4,537.3c0-0.4,0-1,0-1.5v-7h1v3.6h0c0.4-0.6,1-1.1,2-1.1c1.4,0,2.5,1.2,2.4,3c0,2.1-1.3,3.1-2.6,3.1
			c-0.8,0-1.5-0.3-1.9-1.1h0l0,1H311.4z M312.4,534.9c0,0.1,0,0.3,0,0.4c0.2,0.7,0.8,1.2,1.6,1.2c1.1,0,1.8-0.9,1.8-2.2
			c0-1.2-0.6-2.2-1.7-2.2c-0.7,0-1.4,0.5-1.6,1.3c0,0.1-0.1,0.3-0.1,0.4V534.9z"/>
		<path fill="#FFFFFF" d="M318.2,528.7h1.1v8.5h-1.1V528.7z"/>
		<path fill="#FFFFFF" d="M321.6,534.5c0,1.4,0.9,2,2,2c0.8,0,1.2-0.1,1.6-0.3l0.2,0.8c-0.4,0.2-1,0.4-1.9,0.4
			c-1.8,0-2.9-1.2-2.9-2.9s1-3.1,2.7-3.1c1.9,0,2.4,1.7,2.4,2.7c0,0.2,0,0.4,0,0.5H321.6z M324.7,533.8c0-0.7-0.3-1.7-1.5-1.7
			c-1.1,0-1.5,1-1.6,1.7H324.7z"/>
		<path fill="#FFFFFF" d="M326.9,536.2c0.3,0.2,0.9,0.4,1.4,0.4c0.8,0,1.1-0.4,1.1-0.9c0-0.5-0.3-0.8-1.1-1.1
			c-1-0.4-1.5-0.9-1.5-1.6c0-0.9,0.8-1.7,2-1.7c0.6,0,1.1,0.2,1.4,0.4l-0.3,0.8c-0.2-0.1-0.6-0.3-1.2-0.3c-0.6,0-1,0.4-1,0.8
			c0,0.5,0.3,0.7,1.1,1c1,0.4,1.5,0.9,1.5,1.8c0,1-0.8,1.7-2.2,1.7c-0.6,0-1.2-0.2-1.6-0.4L326.9,536.2z"/>
	</g>
	<g enable-background="new    ">
		<path fill="#FFFFFF" d="M196.8,552.8c-1.1-0.3-2.2-0.6-3.1-0.9c-0.2-0.1-0.3-0.1-0.5-0.1c-1.9-0.1-3.6-1.5-3.6-4.1
			c0-2.6,1.6-4.3,3.8-4.3c2.2,0,3.6,1.7,3.6,4.1c0,2.1-1,3.4-2.3,3.9v0c0.8,0.2,1.7,0.4,2.4,0.5L196.8,552.8z M195.9,547.6
			c0-1.6-0.8-3.3-2.6-3.3c-1.8,0-2.6,1.6-2.6,3.4c0,1.7,0.9,3.3,2.6,3.3C195,550.9,195.9,549.4,195.9,547.6z"/>
		<path fill="#FFFFFF" d="M203.3,550.1c0,0.6,0,1.1,0,1.6h-0.9l-0.1-0.9h0c-0.3,0.5-0.9,1.1-1.9,1.1c-0.9,0-2-0.5-2-2.5v-3.4h1.1
			v3.2c0,1.1,0.3,1.8,1.3,1.8c0.7,0,1.2-0.5,1.4-1c0.1-0.2,0.1-0.3,0.1-0.5v-3.6h1.1V550.1z"/>
		<path fill="#FFFFFF" d="M205.6,548.9c0,1.4,0.9,2,2,2c0.8,0,1.2-0.1,1.6-0.3l0.2,0.8c-0.4,0.2-1,0.4-1.9,0.4
			c-1.8,0-2.9-1.2-2.9-2.9s1-3.1,2.7-3.1c1.9,0,2.4,1.7,2.4,2.7c0,0.2,0,0.4,0,0.5H205.6z M208.7,548.2c0-0.7-0.3-1.7-1.5-1.7
			c-1.1,0-1.5,1-1.6,1.7H208.7z"/>
		<path fill="#FFFFFF" d="M210.9,550.6c0.3,0.2,0.9,0.4,1.4,0.4c0.8,0,1.1-0.4,1.1-0.9c0-0.5-0.3-0.8-1.1-1.1
			c-1-0.4-1.5-0.9-1.5-1.6c0-0.9,0.8-1.7,2-1.7c0.6,0,1.1,0.2,1.4,0.4l-0.3,0.8c-0.2-0.1-0.6-0.3-1.2-0.3c-0.6,0-1,0.4-1,0.8
			c0,0.5,0.3,0.7,1.1,1c1,0.4,1.5,0.9,1.5,1.8c0,1-0.8,1.7-2.2,1.7c-0.6,0-1.2-0.2-1.6-0.4L210.9,550.6z"/>
		<path fill="#FFFFFF" d="M217.1,544.2v1.7h1.5v0.8h-1.5v3.1c0,0.7,0.2,1.1,0.8,1.1c0.3,0,0.5,0,0.6-0.1l0,0.8
			c-0.2,0.1-0.5,0.1-0.9,0.1c-0.5,0-0.9-0.2-1.1-0.4c-0.3-0.3-0.4-0.8-0.4-1.5v-3.2h-0.9v-0.8h0.9v-1.4L217.1,544.2z"/>
		<path fill="#FFFFFF" d="M220.9,544.2c0,0.4-0.3,0.6-0.7,0.6c-0.4,0-0.6-0.3-0.6-0.6c0-0.4,0.3-0.7,0.7-0.7
			C220.7,543.6,220.9,543.8,220.9,544.2z M219.8,551.7v-5.8h1.1v5.8H219.8z"/>
		<path fill="#FFFFFF" d="M227.8,548.7c0,2.1-1.5,3.1-2.9,3.1c-1.6,0-2.8-1.2-2.8-3c0-1.9,1.3-3.1,2.9-3.1
			C226.7,545.7,227.8,546.9,227.8,548.7z M223.2,548.8c0,1.3,0.7,2.2,1.8,2.2c1,0,1.8-0.9,1.8-2.3c0-1-0.5-2.2-1.7-2.2
			C223.7,546.5,223.2,547.7,223.2,548.8z"/>
		<path fill="#FFFFFF" d="M229.1,547.4c0-0.6,0-1.1,0-1.6h0.9l0.1,1h0c0.3-0.6,1-1.1,1.9-1.1c0.8,0,2.1,0.5,2.1,2.5v3.5H233v-3.3
			c0-0.9-0.3-1.7-1.3-1.7c-0.7,0-1.2,0.5-1.4,1.1c0,0.1-0.1,0.3-0.1,0.5v3.5h-1.1V547.4z"/>
		<path fill="#FFFFFF" d="M235.8,547.4c0-0.6,0-1.1,0-1.6h0.9l0.1,1h0c0.3-0.6,1-1.1,1.9-1.1c0.8,0,2.1,0.5,2.1,2.5v3.5h-1.1v-3.3
			c0-0.9-0.3-1.7-1.3-1.7c-0.7,0-1.2,0.5-1.4,1.1c0,0.1-0.1,0.3-0.1,0.5v3.5h-1.1V547.4z"/>
		<path fill="#FFFFFF" d="M245.7,551.7l-0.1-0.7h0c-0.3,0.5-0.9,0.9-1.8,0.9c-1.2,0-1.8-0.8-1.8-1.7c0-1.4,1.2-2.2,3.5-2.2v-0.1
			c0-0.5-0.1-1.3-1.3-1.3c-0.5,0-1.1,0.2-1.5,0.4l-0.2-0.7c0.5-0.3,1.2-0.5,1.9-0.5c1.8,0,2.2,1.2,2.2,2.4v2.2c0,0.5,0,1,0.1,1.4
			H245.7z M245.5,548.7c-1.2,0-2.5,0.2-2.5,1.3c0,0.7,0.5,1,1,1c0.8,0,1.2-0.5,1.4-1c0-0.1,0.1-0.2,0.1-0.3V548.7z"/>
		<path fill="#FFFFFF" d="M249.4,544.2c0,0.4-0.3,0.6-0.7,0.6c-0.4,0-0.6-0.3-0.6-0.6c0-0.4,0.3-0.7,0.7-0.7
			C249.2,543.6,249.4,543.8,249.4,544.2z M248.3,551.7v-5.8h1.1v5.8H248.3z"/>
		<path fill="#FFFFFF" d="M251.1,547.7c0-0.7,0-1.3,0-1.8h0.9l0,1.1h0c0.3-0.8,0.9-1.3,1.6-1.3c0.1,0,0.2,0,0.3,0v1
			c-0.1,0-0.2,0-0.4,0c-0.7,0-1.3,0.6-1.4,1.4c0,0.1,0,0.3,0,0.5v3.1h-1V547.7z"/>
		<path fill="#FFFFFF" d="M255.5,548.9c0,1.4,0.9,2,2,2c0.8,0,1.2-0.1,1.6-0.3l0.2,0.8c-0.4,0.2-1,0.4-1.9,0.4
			c-1.8,0-2.9-1.2-2.9-2.9s1-3.1,2.7-3.1c1.9,0,2.4,1.7,2.4,2.7c0,0.2,0,0.4,0,0.5H255.5z M258.5,548.2c0-0.7-0.3-1.7-1.5-1.7
			c-1.1,0-1.5,1-1.6,1.7H258.5z"/>
		<path fill="#FFFFFF" d="M268.4,543.1v7c0,0.5,0,1.1,0,1.5h-0.9l0-1h0c-0.3,0.6-1,1.1-2,1.1c-1.4,0-2.5-1.2-2.5-3
			c0-1.9,1.2-3.1,2.6-3.1c0.9,0,1.5,0.4,1.8,0.9h0v-3.5H268.4z M267.4,548.2c0-0.1,0-0.3,0-0.4c-0.2-0.7-0.7-1.2-1.5-1.2
			c-1.1,0-1.7,1-1.7,2.2c0,1.2,0.6,2.1,1.7,2.1c0.7,0,1.4-0.5,1.5-1.3c0-0.1,0-0.3,0-0.5V548.2z"/>
		<path fill="#FFFFFF" d="M270.8,548.9c0,1.4,0.9,2,2,2c0.8,0,1.2-0.1,1.6-0.3l0.2,0.8c-0.4,0.2-1,0.4-1.9,0.4
			c-1.8,0-2.9-1.2-2.9-2.9s1-3.1,2.7-3.1c1.9,0,2.4,1.7,2.4,2.7c0,0.2,0,0.4,0,0.5H270.8z M273.9,548.2c0-0.7-0.3-1.7-1.5-1.7
			c-1.1,0-1.5,1-1.6,1.7H273.9z"/>
		<path fill="#FFFFFF" d="M278.6,550.6c0.3,0.2,0.9,0.4,1.4,0.4c0.8,0,1.1-0.4,1.1-0.9c0-0.5-0.3-0.8-1.1-1.1
			c-1-0.4-1.5-0.9-1.5-1.6c0-0.9,0.8-1.7,2-1.7c0.6,0,1.1,0.2,1.4,0.4l-0.3,0.8c-0.2-0.1-0.6-0.3-1.2-0.3c-0.6,0-1,0.4-1,0.8
			c0,0.5,0.3,0.7,1.1,1c1,0.4,1.5,0.9,1.5,1.8c0,1-0.8,1.7-2.2,1.7c-0.6,0-1.2-0.2-1.6-0.4L278.6,550.6z"/>
		<path fill="#FFFFFF" d="M286.7,551.7l-0.1-0.7h0c-0.3,0.5-0.9,0.9-1.8,0.9c-1.2,0-1.8-0.8-1.8-1.7c0-1.4,1.2-2.2,3.5-2.2v-0.1
			c0-0.5-0.1-1.3-1.3-1.3c-0.5,0-1.1,0.2-1.5,0.4l-0.2-0.7c0.5-0.3,1.2-0.5,1.9-0.5c1.8,0,2.2,1.2,2.2,2.4v2.2c0,0.5,0,1,0.1,1.4
			H286.7z M286.6,548.7c-1.2,0-2.5,0.2-2.5,1.3c0,0.7,0.5,1,1,1c0.8,0,1.2-0.5,1.4-1c0-0.1,0.1-0.2,0.1-0.3V548.7z"/>
		<path fill="#FFFFFF" d="M290.5,544.2v1.7h1.5v0.8h-1.5v3.1c0,0.7,0.2,1.1,0.8,1.1c0.3,0,0.5,0,0.6-0.1l0,0.8
			c-0.2,0.1-0.5,0.1-0.9,0.1c-0.5,0-0.9-0.2-1.1-0.4c-0.3-0.3-0.4-0.8-0.4-1.5v-3.2h-0.9v-0.8h0.9v-1.4L290.5,544.2z"/>
		<path fill="#FFFFFF" d="M294.4,544.2c0,0.4-0.3,0.6-0.7,0.6c-0.4,0-0.6-0.3-0.6-0.6c0-0.4,0.3-0.7,0.7-0.7
			C294.1,543.6,294.4,543.8,294.4,544.2z M293.2,551.7v-5.8h1.1v5.8H293.2z"/>
		<path fill="#FFFFFF" d="M295.9,550.6c0.3,0.2,0.9,0.4,1.4,0.4c0.8,0,1.1-0.4,1.1-0.9c0-0.5-0.3-0.8-1.1-1.1
			c-1-0.4-1.5-0.9-1.5-1.6c0-0.9,0.8-1.7,2-1.7c0.6,0,1.1,0.2,1.4,0.4l-0.3,0.8c-0.2-0.1-0.6-0.3-1.2-0.3c-0.6,0-1,0.4-1,0.8
			c0,0.5,0.3,0.7,1.1,1c1,0.4,1.5,0.9,1.5,1.8c0,1-0.8,1.7-2.2,1.7c-0.6,0-1.2-0.2-1.6-0.4L295.9,550.6z"/>
		<path fill="#FFFFFF" d="M300.9,551.7v-5h-0.8v-0.8h0.8v-0.3c0-0.8,0.2-1.6,0.7-2c0.4-0.4,0.9-0.5,1.4-0.5c0.4,0,0.7,0.1,0.9,0.2
			l-0.1,0.8c-0.2-0.1-0.4-0.1-0.7-0.1c-0.9,0-1.1,0.8-1.1,1.7v0.3h1.4v0.8h-1.4v5H300.9z"/>
		<path fill="#FFFFFF" d="M307.5,551.7l-0.1-0.7h0c-0.3,0.5-0.9,0.9-1.8,0.9c-1.2,0-1.8-0.8-1.8-1.7c0-1.4,1.2-2.2,3.5-2.2v-0.1
			c0-0.5-0.1-1.3-1.3-1.3c-0.5,0-1.1,0.2-1.5,0.4l-0.2-0.7c0.5-0.3,1.2-0.5,1.9-0.5c1.8,0,2.2,1.2,2.2,2.4v2.2c0,0.5,0,1,0.1,1.4
			H307.5z M307.3,548.7c-1.2,0-2.5,0.2-2.5,1.3c0,0.7,0.5,1,1,1c0.8,0,1.2-0.5,1.4-1c0-0.1,0.1-0.2,0.1-0.3V548.7z"/>
		<path fill="#FFFFFF" d="M314.2,551.4c-0.3,0.1-0.9,0.3-1.7,0.3c-1.8,0-2.9-1.2-2.9-3c0-1.8,1.2-3.1,3.1-3.1c0.6,0,1.2,0.2,1.5,0.3
			l-0.2,0.8c-0.3-0.1-0.6-0.3-1.2-0.3c-1.3,0-2.1,1-2.1,2.2c0,1.3,0.9,2.2,2,2.2c0.6,0,1-0.2,1.3-0.3L314.2,551.4z"/>
		<path fill="#FFFFFF" d="M316.9,544.2v1.7h1.5v0.8h-1.5v3.1c0,0.7,0.2,1.1,0.8,1.1c0.3,0,0.5,0,0.6-0.1l0,0.8
			c-0.2,0.1-0.5,0.1-0.9,0.1c-0.5,0-0.9-0.2-1.1-0.4c-0.3-0.3-0.4-0.8-0.4-1.5v-3.2h-0.9v-0.8h0.9v-1.4L316.9,544.2z"/>
		<path fill="#FFFFFF" d="M320.7,544.2c0,0.4-0.3,0.6-0.7,0.6c-0.4,0-0.6-0.3-0.6-0.6c0-0.4,0.3-0.7,0.7-0.7
			C320.5,543.6,320.7,543.8,320.7,544.2z M319.6,551.7v-5.8h1.1v5.8H319.6z"/>
		<path fill="#FFFFFF" d="M327.6,548.7c0,2.1-1.5,3.1-2.9,3.1c-1.6,0-2.8-1.2-2.8-3c0-1.9,1.3-3.1,2.9-3.1
			C326.5,545.7,327.6,546.9,327.6,548.7z M323,548.8c0,1.3,0.7,2.2,1.8,2.2c1,0,1.8-0.9,1.8-2.3c0-1-0.5-2.2-1.7-2.2
			S323,547.7,323,548.8z"/>
		<path fill="#FFFFFF" d="M329,547.4c0-0.6,0-1.1,0-1.6h0.9l0.1,1h0c0.3-0.6,1-1.1,1.9-1.1c0.8,0,2.1,0.5,2.1,2.5v3.5h-1.1v-3.3
			c0-0.9-0.3-1.7-1.3-1.7c-0.7,0-1.2,0.5-1.4,1.1c0,0.1-0.1,0.3-0.1,0.5v3.5H329V547.4z"/>
	</g>
	<path fill="none" stroke="#FFFFFF" d="M171.2,561.3c0,6.3,5.1,11.3,11.3,11.3h158.8c6.3,0,11.3-5.1,11.3-11.3v-72.9
		c0-6.3-5.1-11.3-11.3-11.3H182.6c-6.3,0-11.3,5.1-11.3,11.3v72.9H171.2z"/>
</g>
<g>
	<g>
		<line fill="none" stroke="#FFFFFF" x1="262" y1="63.8" x2="262" y2="121"/>
		<g>
			<path fill="#FFFFFF" d="M257.2,114.1c0.2-0.1,0.5-0.1,0.7,0.2l4.1,6.5l4.1-6.5c0.1-0.2,0.5-0.3,0.7-0.2c0.2,0.1,0.3,0.5,0.2,0.7
				l-4.5,7.1c-0.1,0.1-0.3,0.2-0.4,0.2c-0.2,0-0.3-0.1-0.4-0.2l-4.5-7.1c-0.1-0.1-0.1-0.2-0.1-0.3
				C256.9,114.4,257,114.2,257.2,114.1z"/>
		</g>
	</g>
</g>
<g>
	<g>
		<line fill="none" stroke="#FFFFFF" x1="250.9" y1="232.4" x2="178.8" y2="291.3"/>
		<g>
			<path fill="#FFFFFF" d="M181,283.3c0.3,0.1,0.4,0.4,0.3,0.6l-2.4,7.3l7.6-0.9c0.3,0,0.5,0.2,0.6,0.4c0,0.3-0.2,0.5-0.4,0.6
				l-8.4,1c-0.2,0-0.3,0-0.4-0.2s-0.1-0.3-0.1-0.5l2.6-8c0-0.1,0.1-0.2,0.2-0.2C180.7,283.2,180.9,283.2,181,283.3z"/>
		</g>
	</g>
</g>
<g>
	<g>
		<line fill="none" stroke="#FFFFFF" x1="227.9" y1="341.6" x2="296.5" y2="341.6"/>
		<g>
			<path fill="#FFFFFF" d="M289.7,346.4c-0.1-0.2-0.1-0.5,0.2-0.7l6.5-4.1l-6.5-4.1c-0.2-0.1-0.3-0.5-0.2-0.7s0.5-0.3,0.7-0.2
				l7.1,4.5c0.1,0.1,0.2,0.3,0.2,0.4s-0.1,0.3-0.2,0.4l-7.1,4.5c-0.1,0.1-0.2,0.1-0.3,0.1C289.9,346.6,289.8,346.6,289.7,346.4z"/>
		</g>
	</g>
</g>
<g>
	<g>
		<line fill="none" stroke="#FFFFFF" x1="342.6" y1="403.2" x2="292.4" y2="467.8"/>
		<g>
			<path fill="#FFFFFF" d="M292.8,459.4c0.3,0,0.5,0.3,0.5,0.5l-0.7,7.6l7.2-2.6c0.3-0.1,0.5,0,0.6,0.3s0,0.5-0.3,0.6l-7.9,2.8
				c-0.2,0.1-0.3,0-0.5-0.1s-0.2-0.3-0.2-0.4l0.8-8.4c0-0.1,0-0.2,0.1-0.3C292.4,459.5,292.6,459.4,292.8,459.4z"/>
		</g>
	</g>
</g>
</svg>
