<?xml version="1.0" encoding="utf-8"?>
<!-- Generator: Adobe Illustrator 17.1.0, SVG Export Plug-In . SVG Version: 6.00 Build 0)  -->
<!DOCTYPE svg PUBLIC "-//W3C//DTD SVG 1.1//EN" "http://www.w3.org/Graphics/SVG/1.1/DTD/svg11.dtd">
<svg version="1.1" id="Calque_1" xmlns="http://www.w3.org/2000/svg" xmlns:xlink="http://www.w3.org/1999/xlink" x="0px" y="0px"
	 width="332px" height="69px" viewBox="0 0 332 69" enable-background="new 0 0 332 69" xml:space="preserve">
<g id="Calque_2">
	<circle fill="#334960" cx="34.5" cy="34.5" r="32.4"/>
	<circle fill="#334960" cx="121.5" cy="34.5" r="32.4"/>
	<circle fill="#334960" cx="209.5" cy="34.5" r="32.4"/>
	<circle fill="#334960" cx="297.5" cy="34.5" r="32.4"/>
	<path id="f_1_" fill="#FFFFFF" d="M37.4,53.5V36.2h5.8l0.9-6.7h-6.7v-4.3c0-2,0.5-3.3,3.3-3.3h3.6v-6c-0.6-0.1-2.7-0.3-5.2-0.3
		c-5.2,0-8.7,3.1-8.7,8.9v5h-5.8v6.7h5.8v17.3H37.4z"/>
	<path fill="#FFFFFF" d="M141.3,22.2c-1.5,0.6-3,1.1-4.7,1.3c1.7-1,3-2.6,3.6-4.5c-1.6,0.9-3.3,1.6-5.2,2c-1.5-1.6-3.6-2.6-5.9-2.6
		c-4.5,0-8.1,3.6-8.1,8.1c0,0.6,0.1,1.3,0.2,1.9c-6.8-0.3-12.8-3.6-16.8-8.5c-0.7,1.2-1.1,2.6-1.1,4.1c0,2.8,1.4,5.3,3.6,6.8
		c-1.3,0-2.6-0.4-3.7-1v0.1c0,3.9,2.8,7.2,6.5,8c-0.7,0.2-1.4,0.3-2.1,0.3c-0.5,0-1-0.1-1.5-0.1c1,3.2,4,5.6,7.6,5.6
		c-2.8,2.2-6.3,3.5-10.1,3.5c-0.7,0-1.3,0-1.9-0.1c3.6,2.3,7.9,3.7,12.5,3.7c15,0,23.1-12.4,23.1-23.1c0-0.4,0-0.7,0-1.1
		C138.9,25.3,140.2,23.8,141.3,22.2L141.3,22.2z"/>
	<g>
		<path fill="#FFFFFF" d="M210.4,37l-1.7-1.3c-0.5-0.4-1.2-1-1.2-2s0.7-1.7,1.3-2.3c1.9-1.5,3.9-3.1,3.9-6.6s-2.2-5.4-3.3-6.2h2.9
			l3-1.9h-9.1c-2.5,0-6.1,0.6-8.7,2.8c-2,1.7-3,4.1-3,6.2c0,3.6,2.8,7.3,7.7,7.3c0.5,0,1,0,1.5-0.1c-0.2,0.6-0.5,1-0.5,1.8
			c0,1.4,0.7,2.3,1.4,3.1c-2.1,0.1-6,0.4-8.8,2.1c-2.7,1.6-3.6,4-3.6,5.6c0,3.4,3.2,6.6,9.9,6.6c7.9,0,12.1-4.4,12.1-8.7
			C214.3,40.3,212.4,38.7,210.4,37z M204.4,31.7c-4,0-5.8-5.1-5.8-8.2c0-1.2,0.2-2.5,1-3.4c0.7-0.9,2-1.5,3.2-1.5
			c3.8,0,5.8,5.2,5.8,8.5c0,0.8-0.1,2.3-1.2,3.4C206.7,31.1,205.5,31.7,204.4,31.7z M204.4,50.3c-4.9,0-8.1-2.4-8.1-5.6
			c0-3.3,3-4.4,4-4.8c1.9-0.7,4.4-0.7,4.8-0.7c0.5,0,0.7,0,1.1,0c3.5,2.5,5,3.7,5,6.1C211.2,48.2,208.8,50.3,204.4,50.3z"/>
		<polygon fill="#FFFFFF" points="222,31.6 222,27 219.8,27 219.8,31.6 215.1,31.6 215.1,33.9 219.8,33.9 219.8,38.6 222,38.6 
			222,33.9 226.7,33.9 226.7,31.6 		"/>
	</g>
</g>
<path id="path28" fill="#FFFFFF" d="M287.3,52.5V28.4h-8v24.1H287.3z M283.3,25.1
	c2.8,0,4.5-1.9,4.5-4.2c-0.1-2.4-1.7-4.2-4.5-4.2c-2.7,0-4.5,1.8-4.5,4.2C278.8,23.2,280.5,25.1,283.3,25.1L283.3,25.1L283.3,25.1z"
	/>
<path id="path30" fill="#FFFFFF" d="M291.7,52.5h8V39c0-0.7,0.1-1.4,0.3-2
	c0.6-1.4,1.9-2.9,4.1-2.9c2.9,0,4.1,2.2,4.1,5.5v12.9h8V38.6c0-7.4-4-10.9-9.2-10.9c-4.3,0-6.2,2.4-7.3,4.1h0.1v-3.5h-8
	C291.8,30.6,291.7,52.5,291.7,52.5L291.7,52.5z"/>
</svg>
