<?xml version="1.0" encoding="utf-8"?>
<!-- Generator: Adobe Illustrator 17.1.0, SVG Export Plug-In . SVG Version: 6.00 Build 0)  -->
<!DOCTYPE svg PUBLIC "-//W3C//DTD SVG 1.1//EN" "http://www.w3.org/Graphics/SVG/1.1/DTD/svg11.dtd">
<svg version="1.1" id="Calque_1" xmlns="http://www.w3.org/2000/svg" xmlns:xlink="http://www.w3.org/1999/xlink" x="0px" y="0px"
	 width="543px" height="543px" viewBox="-59 -59 543 543" enable-background="new -59 -59 543 543" xml:space="preserve">
<g id="Calque_2">
	<g id="XMLID_1_">
		<g>
			<path fill="#27AEA3" d="M372.4,342.9c-36.1,36.5-86.3,59.1-141.7,59.1c-95.6,0-175.4-67.2-194.9-156.9h41.8
				c18.6,67.1,80.1,116.3,153.1,116.3c44.1,0,84-18,112.8-47L372.4,342.9L372.4,342.9z"/>
			<path fill="#3598DC" d="M230.6,3.3c55.4,0,105.6,22.6,141.7,59.1l-28.7,28.4c-28.8-29.1-68.8-47.2-113-47.2
				c-73,0-134.5,49.2-153.1,116.3H35.9C55.4,70.3,135.2,3.3,230.6,3.3z"/>
			<path fill="#96A6A6" d="M343.6,90.8c28.4,28.7,45.9,68.1,45.9,111.7s-17.6,83.1-46,111.8l-22.3-22.1c22.8-23,36.8-54.6,36.8-89.6
				S343.9,136,321.2,113L343.6,90.8z"/>
			<path fill="#F49C14" d="M321.1,113.1l-18.7,18.5l0,0c-18.3-18.5-43.7-30-71.8-30c-40.5,0-75.5,23.9-91.6,58.3l0,0h-28.3l0,0
				c17.6-49.3,64.6-84.6,120-84.6C266,75.3,298.1,89.8,321.1,113.1z"/>
			<path fill="#F1C40F" d="M321.1,292.2C298,315.5,266,330,230.6,330c-55.4,0-102.6-35.4-120.1-84.9l0,0h28.3l0,0
				c16,34.6,51.1,58.6,91.7,58.6c28.1,0,53.5-11.5,71.8-30L321.1,292.2z"/>
			<path fill="#E84C3D" d="M109.1,375.3v46.4c-48.1,0-73.6-33.3-73.6-71.8v-66.5C50.9,320.5,76.6,352.4,109.1,375.3z"/>
		</g>
	</g>
</g>
<g id="Calque_1_1_" display="none">
</g>
</svg>
