<?xml version="1.0" encoding="utf-8"?>
<!-- Generator: Adobe Illustrator 17.1.0, SVG Export Plug-In . SVG Version: 6.00 Build 0)  -->
<!DOCTYPE svg PUBLIC "-//W3C//DTD SVG 1.1//EN" "http://www.w3.org/Graphics/SVG/1.1/DTD/svg11.dtd">
<svg version="1.1" id="Calque_1" xmlns="http://www.w3.org/2000/svg" xmlns:xlink="http://www.w3.org/1999/xlink" x="0px" y="0px"
	 width="1749.5px" height="418.6px" viewBox="0 0 1749.5 418.6" enable-background="new 0 0 1749.5 418.6" xml:space="preserve">
<g id="Calque_2">
	<g id="XMLID_1_">
		<g>
			<path fill="#E84C3D" d="M0,346.6v-66.5c15.4,37.2,41.1,69,73.6,91.9v46.4C25.5,418.4,0,385.1,0,346.6z"/>
			<path fill="#F49C14" d="M285.6,109.8L267,128.3l0,0c-18.3-18.5-43.7-30-71.8-30c-40.5,0-75.5,23.9-91.6,58.3l0,0H75.2l0,0
				c17.6-49.3,64.6-84.6,120-84.6C230.5,72.1,262.5,86.5,285.6,109.8z"/>
			<path fill="#3598DC" d="M195.1,0c55.4,0,105.6,22.6,141.7,59.1l-28.7,28.4c-28.8-29.1-68.8-47.2-113-47.2
				c-73,0-134.5,49.2-153.1,116.3H0.3C19.9,67.1,99.7,0,195.1,0z"/>
			<path fill="#27AEA3" d="M336.9,339.6c-36.1,36.5-86.3,59.1-141.7,59.1c-95.6,0-175.4-67.2-194.9-156.9H42
				c18.6,67.1,80.1,116.3,153.1,116.3c44.1,0,84-18,112.8-47L336.9,339.6L336.9,339.6z"/>
			<path fill="#96A6A6" d="M308.1,87.6c28.4,28.7,45.9,68.1,45.9,111.7s-17.6,83.1-46,111.8L285.7,289c22.8-23,36.8-54.6,36.8-89.6
				s-14.1-66.6-36.8-89.6L308.1,87.6z"/>
			<path fill="#F1C40F" d="M285.6,288.9c-23.1,23.3-55.1,37.8-90.5,37.8c-55.4,0-102.6-35.4-120.1-84.9l0,0h28.3l0,0
				c16,34.6,51.1,58.6,91.7,58.6c28.1,0,53.5-11.5,71.8-30L285.6,288.9z"/>
		</g>
	</g>
</g>
<g id="Calque_3">
	<g>
		<path fill="#FFFFFF" d="M613.4,85.1c24.1,0,42.2,5.7,54.3,17.2c12.6,11.7,18.9,30.6,18.9,56.6s-6.4,45.2-19.1,57.6
			c-12.2,12-30.3,18-54.1,18h-53.7v76.8h-33.2V85.1H613.4z M559.7,115.2v89.6h51.8c14.2-0.1,24.8-3.7,31.8-10.7
			c7.5-7.5,11.3-19,11.3-34.4s-3.8-26.8-11.3-34.2c-3.1-3.3-7.7-5.8-13.9-7.6c-6.1-1.8-12.1-2.7-18-2.7
			C611.4,115.2,559.7,115.2,559.7,115.2z"/>
		<path fill="#FFFFFF" d="M777.8,140.4c29.7-0.1,50.3,6.4,61.9,19.7c11.3,12.8,17,35.2,17,67.4c0,32-5.7,54.5-17,67.4
			c-13.7,13.3-34.3,19.9-61.9,19.9c-29.7,0-50.5-6.6-62.3-19.9c-11.3-12.9-17-35.4-17-67.4c0-32.2,5.7-54.6,17-67.4
			C729.3,146.8,750.1,140.2,777.8,140.4z M777.8,168.3c-19.8,0-32.8,4.9-39.1,14.6c-5.5,7.4-8.2,22.3-8.2,44.7
			c0,22.1,2.7,36.9,8.2,44.3c7,10.5,20,15.5,39.1,14.8c19.8-0.1,32.9-5.1,39.5-14.8c4.9-7.7,7.5-22.7,7.8-44.9
			c0.3-22.4-2.3-37.1-7.8-44.1C810,172.8,796.8,167.9,777.8,168.3z"/>
		<path fill="#FFFFFF" d="M909.5,70.8v240.4h-35.2V70.8H909.5z"/>
		<path fill="#FFFFFF" d="M1050.2,143.9L990.8,295l-7.6,16.4c-0.4,2.5-1.5,7-3.3,13.7c-1.4,6.5-2.7,12.1-3.9,16.8
			c-0.8,4.5-1.6,9-2.3,13.3c-1.2,8.2-2,18.9-2.5,32h35.9c1.1-25.1,5.2-49.8,12.5-74l66.3-169.3L1050.2,143.9L1050.2,143.9z"/>
		<polygon fill="#FFFFFF" points="1014,295.4 1006.3,311.8 983.3,311.8 925.3,143.9 961.3,143.9 		"/>
		<path fill="#FFFFFF" d="M1170.5,140.6c14.5,0,26.9,2.1,37.3,6.2c10.7,4.2,18.9,10.2,24.8,18.2c4.3,5.9,7.4,13,9.2,21.3
			c2.1,8.2,3.1,16.8,3.1,25.8s-0.4,18.6-1.2,28.7h-117.8c-0.1,12.9,2.3,23.3,7.2,31.2c6.6,9.8,19.3,14.6,38.1,14.6
			c20.7,0,44.3-2.8,70.7-8.4V307c-30.1,5.2-53.9,7.8-71.5,7.8c-28.1,0-48-6.6-59.8-19.7c-11.3-12.9-17-35.4-17-67.4
			c0-31,5.7-52.9,17-65.6C1123.6,147.7,1143.5,140.6,1170.5,140.6z M1170.5,169.1c-18.6,0-31.1,4.8-37.3,14.5
			c-3.9,6.2-6.3,16.4-7.2,30.5h88.9c1-13.7-0.8-23.8-5.5-30.5C1203.1,173.9,1190.1,169.1,1170.5,169.1z"/>
		<path fill="#FFFFFF" d="M1304.9,143.9v22.7c13.8-10.5,26.5-17.6,38.1-21.3c11.3-3.5,21.7-4.7,31.1-3.5s17.9,4.1,25.6,8.8
			c7.4,4.4,13.3,11.1,17.8,20.1c4.4,8.6,6.6,18.9,6.6,31.1v109.6h-33.6v-96.5c0-12.8-2.7-22.8-8.2-30.1
			c-5.7-7.8-12.9-12.2-21.5-13.1c-8.6-1.2-17.6,0.1-27.1,3.7c-8.2,2.7-17.7,8.4-28.5,17v118.9h-33.8V143.9H1304.9z"/>
		<path fill="#FFFFFF" d="M1449.7,181.8c5.1-13.3,13.2-23.4,24.2-30.5c11.3-7.2,24.7-10.7,40-10.7c19.9,0,38.9,4,56.8,11.9
			l-5.1,27.9c-17.3-8.3-33.8-12-49.4-11.1c-14.5,0.7-25.2,6.1-32.2,16.2c-6.6,9.4-10,24.6-10,45.7c0,17.2,3.3,30.3,10,39.5
			c4,5.2,8.6,9,13.7,11.3c5.2,2,11.5,3.3,18.8,4.1c16.5,1.2,35.5,0.3,57-2.7v27.7c-20.4,3.3-40.3,4.4-59.6,3.3
			c-33.9-1.8-55.3-15.4-64.3-40.6c-1.6-5.1-2.7-8.7-3.5-10.7c-0.5-2.3-1.4-6.4-2.5-12.3c-0.8-6-1.3-12.5-1.6-19.5
			C1441.9,211.9,1444.4,195.4,1449.7,181.8z"/>
		<path fill="#FFFFFF" d="M1670.5,140.4c29.7-0.1,50.3,6.4,61.9,19.7c11.3,12.8,17,35.2,17,67.4c0,32-5.7,54.5-17,67.4
			c-13.7,13.3-34.3,19.9-61.9,19.9c-29.7,0-50.5-6.6-62.3-19.9c-11.3-12.9-17-35.4-17-67.4c0-32.2,5.7-54.6,17-67.4
			C1622,146.8,1642.8,140.2,1670.5,140.4z M1670.5,168.3c-19.8,0-32.8,4.9-39.1,14.6c-5.5,7.4-8.2,22.3-8.2,44.7
			c0,22.1,2.7,36.9,8.2,44.3c7,10.5,20,15.5,39.1,14.8c19.8-0.1,32.9-5.1,39.5-14.8c4.9-7.7,7.5-22.7,7.8-44.9
			c0.3-22.4-2.3-37.1-7.8-44.1C1702.7,172.8,1689.6,167.9,1670.5,168.3z"/>
	</g>
</g>
</svg>
