<?xml version="1.0" encoding="UTF-8" standalone="no"?>
<!-- Created with Inkscape (http://www.inkscape.org/) -->

<svg
   xmlns:dc="http://purl.org/dc/elements/1.1/"
   xmlns:cc="http://creativecommons.org/ns#"
   xmlns:rdf="http://www.w3.org/1999/02/22-rdf-syntax-ns#"
   xmlns:svg="http://www.w3.org/2000/svg"
   xmlns="http://www.w3.org/2000/svg"
   xmlns:sodipodi="http://sodipodi.sourceforge.net/DTD/sodipodi-0.dtd"
   xmlns:inkscape="http://www.inkscape.org/namespaces/inkscape"
   width="93.050652mm"
   height="24.959028mm"
   viewBox="0 0 329.70703 88.437501"
   id="svg2"
   version="1.1"
   inkscape:version="0.91 r13725"
   sodipodi:docname="Recrutement.svg">
  <defs
     id="defs4" />
  <sodipodi:namedview
     id="base"
     pagecolor="#ffffff"
     bordercolor="#666666"
     borderopacity="1.0"
     inkscape:pageopacity="0.0"
     inkscape:pageshadow="2"
     inkscape:zoom="0.35"
     inkscape:cx="278.46819"
     inkscape:cy="-241.95312"
     inkscape:document-units="px"
     inkscape:current-layer="layer1"
     showgrid="false"
     fit-margin-top="0"
     fit-margin-left="0"
     fit-margin-right="0"
     fit-margin-bottom="0"
     inkscape:window-width="1920"
     inkscape:window-height="1027"
     inkscape:window-x="-8"
     inkscape:window-y="-8"
     inkscape:window-maximized="1" />
  <metadata
     id="metadata7">
    <rdf:RDF>
      <cc:Work
         rdf:about="">
        <dc:format>image/svg+xml</dc:format>
        <dc:type
           rdf:resource="http://purl.org/dc/dcmitype/StillImage" />
        <dc:title></dc:title>
      </cc:Work>
    </rdf:RDF>
  </metadata>
  <g
     inkscape:label="Layer 1"
     inkscape:groupmode="layer"
     id="layer1"
     transform="translate(-96.531807,-87.685867)">
    <g
       style="font-style:normal;font-weight:normal;font-size:40px;line-height:125%;font-family:sans-serif;letter-spacing:0px;word-spacing:0px;fill:#ffffff;fill-opacity:1;stroke:none;stroke-width:1px;stroke-linecap:butt;stroke-linejoin:miter;stroke-opacity:1"
       id="text3336">
      <path
         d="m 117.2154,97.783524 q 0,1.933593 -0.68359,3.593746 -0.66407,1.64063 -1.875,2.85157 -1.50391,1.5039 -3.55469,2.26562 -2.05078,0.74219 -5.17578,0.74219 l -3.86719,0 0,10.83984 -3.867187,0 0,-29.082029 7.890627,0 q 2.61719,0 4.43359,0.449219 1.81641,0.429687 3.22266,1.367187 1.66015,1.113282 2.55859,2.773438 0.91797,1.660156 0.91797,4.199219 z m -4.02344,0.09766 q 0,-1.503906 -0.52734,-2.617188 -0.52734,-1.113281 -1.60156,-1.816406 -0.9375,-0.605469 -2.14844,-0.859375 -1.19141,-0.273437 -3.02734,-0.273437 l -3.82813,0 0,11.621096 3.26172,0 q 2.34375,0 3.80859,-0.41016 1.46485,-0.42969 2.38282,-1.34766 0.91796,-0.9375 1.28906,-1.97265 0.39062,-1.035158 0.39062,-2.32422 z"
         style=""
         id="path3343" />
      <path
         d="m 139.69587,107.17805 q 0,5.33204 -2.73438,8.41797 -2.73437,3.08594 -7.32421,3.08594 -4.62891,0 -7.36329,-3.08594 -2.71484,-3.08593 -2.71484,-8.41797 0,-5.33203 2.71484,-8.417964 2.73438,-3.105469 7.36329,-3.105469 4.58984,0 7.32421,3.105469 2.73438,3.085934 2.73438,8.417964 z m -3.78906,0 q 0,-4.23828 -1.66016,-6.28906 -1.66016,-2.07031 -4.60937,-2.07031 -2.98829,0 -4.64844,2.07031 -1.64063,2.05078 -1.64063,6.28906 0,4.10157 1.66016,6.23047 1.66016,2.10938 4.62891,2.10938 2.92968,0 4.58984,-2.08985 1.67969,-2.10937 1.67969,-6.25 z"
         style=""
         id="path3345" />
      <path
         d="m 149.10993,118.07649 -3.67187,0 0,-30.390623 3.67187,0 0,30.390623 z"
         style=""
         id="path3347" />
      <path
         d="m 175.12556,96.260086 -12.73438,29.863284 -3.92578,0 4.0625,-9.10157 -8.69141,-20.761714 3.98438,0 6.69922,16.171874 6.75781,-16.171874 3.84766,0 z"
         style=""
         id="path3349" />
      <path
         d="m 197.87946,107.54915 -16.07422,0 q 0,2.01172 0.60547,3.51562 0.60547,1.48438 1.66016,2.44141 1.01562,0.9375 2.40234,1.40625 1.40625,0.46875 3.08594,0.46875 2.22656,0 4.47266,-0.87891 2.26562,-0.89843 3.22265,-1.75781 l 0.19532,0 0,4.00391 q -1.85547,0.78125 -3.78907,1.30859 -1.93359,0.52734 -4.0625,0.52734 -5.42968,0 -8.47656,-2.92968 -3.04687,-2.94922 -3.04687,-8.35938 0,-5.35156 2.91015,-8.496091 2.92969,-3.144532 7.69531,-3.144532 4.41407,0 6.79688,2.578125 2.40234,2.578128 2.40234,7.324218 l 0,1.99219 z m -3.57422,-2.8125 q -0.0195,-2.89063 -1.46484,-4.47266 -1.42578,-1.582029 -4.35547,-1.582029 -2.94922,0 -4.70703,1.738279 -1.73828,1.73828 -1.97266,4.31641 l 12.5,0 z"
         style=""
         id="path3351" />
      <path
         d="m 221.68806,118.07649 -3.67188,0 0,-12.42187 q 0,-1.50391 -0.17578,-2.8125 -0.17578,-1.32813 -0.64453,-2.07032 -0.48828,-0.820308 -1.40625,-1.210933 -0.91797,-0.410156 -2.38281,-0.410156 -1.50391,0 -3.14453,0.742188 -1.64063,0.742191 -3.14454,1.894531 l 0,16.28906 -3.67187,0 0,-21.816404 3.67187,0 0,2.421875 q 1.71875,-1.425781 3.55469,-2.226562 1.83594,-0.800782 3.76953,-0.800782 3.53516,0 5.39063,2.128907 1.85547,2.128906 1.85547,6.132816 l 0,14.16015 z"
         style=""
         id="path3353" />
      <path
         d="m 244.89118,116.7093 q -1.83594,0.87891 -3.49609,1.36719 -1.64063,0.48828 -3.4961,0.48828 -2.36328,0 -4.33593,-0.68359 -1.97266,-0.70313 -3.37891,-2.10938 -1.42578,-1.40625 -2.20703,-3.55468 -0.78125,-2.14844 -0.78125,-5.01953 0,-5.35157 2.92969,-8.398441 2.94922,-3.046875 7.77343,-3.046875 1.875,0 3.67188,0.527343 1.81641,0.527344 3.32031,1.289063 l 0,4.08203 -0.19531,0 q -1.67969,-1.30859 -3.47656,-2.011718 -1.77735,-0.703125 -3.47657,-0.703125 -3.125,0 -4.9414,2.109373 -1.79688,2.08985 -1.79688,6.15235 0,3.94531 1.75782,6.07421 1.77734,2.10938 4.98046,2.10938 1.11329,0 2.26563,-0.29297 1.15234,-0.29297 2.07031,-0.76172 0.80078,-0.41015 1.50391,-0.85937 0.70312,-0.46875 1.11328,-0.80078 l 0.19531,0 0,4.04296 z"
         style=""
         id="path3355" />
      <path
         d="m 268.21149,107.17805 q 0,5.33204 -2.73437,8.41797 -2.73438,3.08594 -7.32422,3.08594 -4.62891,0 -7.36328,-3.08594 -2.71484,-3.08593 -2.71484,-8.41797 0,-5.33203 2.71484,-8.417964 2.73437,-3.105469 7.36328,-3.105469 4.58984,0 7.32422,3.105469 2.73437,3.085934 2.73437,8.417964 z m -3.78906,0 q 0,-4.23828 -1.66015,-6.28906 -1.66016,-2.07031 -4.60938,-2.07031 -2.98828,0 -4.64844,2.07031 -1.64062,2.05078 -1.64062,6.28906 0,4.10157 1.66015,6.23047 1.66016,2.10938 4.62891,2.10938 2.92969,0 4.58984,-2.08985 1.67969,-2.10937 1.67969,-6.25 z"
         style=""
         id="path3357" />
      <path
         d="m 301.5904,100.26399 -0.19531,0 q -0.82031,-0.19531 -1.60156,-0.273435 -0.76172,-0.09766 -1.81641,-0.09766 -1.69922,0 -3.28125,0.761721 -1.58203,0.74218 -3.04688,1.93359 l 0,15.48828 -3.67187,0 0,-21.816404 3.67187,0 0,3.222656 q 2.1875,-1.757812 3.84766,-2.480468 1.67969,-0.742188 3.41797,-0.742188 0.95703,0 1.38672,0.05859 0.42969,0.03906 1.28906,0.175781 l 0,3.769529 z"
         style=""
         id="path3359" />
      <path
         d="m 323.34821,107.54915 -16.07422,0 q 0,2.01172 0.60547,3.51562 0.60547,1.48438 1.66016,2.44141 1.01562,0.9375 2.40234,1.40625 1.40625,0.46875 3.08594,0.46875 2.22656,0 4.47266,-0.87891 2.26562,-0.89843 3.22265,-1.75781 l 0.19532,0 0,4.00391 q -1.85547,0.78125 -3.78907,1.30859 -1.93359,0.52734 -4.0625,0.52734 -5.42968,0 -8.47656,-2.92968 -3.04687,-2.94922 -3.04687,-8.35938 0,-5.35156 2.91015,-8.496091 2.92969,-3.144532 7.69531,-3.144532 4.41407,0 6.79688,2.578125 2.40234,2.578128 2.40234,7.324218 l 0,1.99219 z m -3.57422,-2.8125 q -0.0195,-2.89063 -1.46484,-4.47266 -1.42578,-1.582029 -4.35547,-1.582029 -2.94922,0 -4.70703,1.738279 -1.73828,1.73828 -1.97266,4.31641 l 12.5,0 z"
         style=""
         id="path3361" />
      <path
         d="m 345.04743,116.7093 q -1.83594,0.87891 -3.49609,1.36719 -1.64063,0.48828 -3.4961,0.48828 -2.36328,0 -4.33593,-0.68359 -1.97266,-0.70313 -3.37891,-2.10938 -1.42578,-1.40625 -2.20703,-3.55468 -0.78125,-2.14844 -0.78125,-5.01953 0,-5.35157 2.92969,-8.398441 2.94922,-3.046875 7.77343,-3.046875 1.875,0 3.67188,0.527343 1.81641,0.527344 3.32031,1.289063 l 0,4.08203 -0.19531,0 q -1.67969,-1.30859 -3.47656,-2.011718 -1.77735,-0.703125 -3.47657,-0.703125 -3.125,0 -4.9414,2.109373 -1.79688,2.08985 -1.79688,6.15235 0,3.94531 1.75782,6.07421 1.77734,2.10938 4.98046,2.10938 1.11329,0 2.26563,-0.29297 1.15234,-0.29297 2.07031,-0.76172 0.80078,-0.41015 1.50391,-0.85937 0.70312,-0.46875 1.11328,-0.80078 l 0.19531,0 0,4.04296 z"
         style=""
         id="path3363" />
      <path
         d="m 363.38728,100.26399 -0.19532,0 q -0.82031,-0.19531 -1.60156,-0.273435 -0.76172,-0.09766 -1.81641,-0.09766 -1.69921,0 -3.28125,0.761721 -1.58203,0.74218 -3.04687,1.93359 l 0,15.48828 -3.67188,0 0,-21.816404 3.67188,0 0,3.222656 q 2.1875,-1.757812 3.84766,-2.480468 1.67968,-0.742188 3.41796,-0.742188 0.95704,0 1.38672,0.05859 0.42969,0.03906 1.28907,0.175781 l 0,3.769529 z"
         style=""
         id="path3365" />
      <path
         d="m 384.96931,118.07649 -3.67188,0 0,-2.42187 q -1.85547,1.46484 -3.55469,2.24609 -1.69921,0.78125 -3.75,0.78125 -3.4375,0 -5.35156,-2.08984 -1.91406,-2.10938 -1.91406,-6.17188 l 0,-14.160154 3.67187,0 0,12.421874 q 0,1.66016 0.15625,2.85156 0.15625,1.17188 0.66407,2.01172 0.52734,0.85938 1.36718,1.25 0.83985,0.39063 2.44141,0.39063 1.42578,0 3.10547,-0.74219 1.69922,-0.74219 3.16406,-1.89453 l 0,-16.289064 3.67188,0 0,21.816404 z"
         style=""
         id="path3367" />
      <path
         d="m 403.52399,117.88118 q -1.03515,0.27344 -2.26562,0.44922 -1.21094,0.17578 -2.16797,0.17578 -3.33984,0 -5.07812,-1.79688 -1.73829,-1.79687 -1.73829,-5.76171 l 0,-11.601566 -2.48046,0 0,-3.085938 2.48046,0 0,-6.269531 3.67188,0 0,6.269531 7.57812,0 0,3.085938 -7.57812,0 0,9.941406 q 0,1.71875 0.0781,2.69531 0.0781,0.95703 0.54688,1.79688 0.42969,0.78125 1.17187,1.15234 0.76172,0.35156 2.30469,0.35156 0.89844,0 1.875,-0.2539 0.97656,-0.27344 1.40625,-0.44922 l 0.19531,0 0,3.30078 z"
         style=""
         id="path3369" />
      <path
         d="m 426.23884,107.54915 -16.07422,0 q 0,2.01172 0.60547,3.51562 0.60547,1.48438 1.66015,2.44141 1.01563,0.9375 2.40235,1.40625 1.40625,0.46875 3.08594,0.46875 2.22656,0 4.47265,-0.87891 2.26563,-0.89843 3.22266,-1.75781 l 0.19531,0 0,4.00391 q -1.85547,0.78125 -3.78906,1.30859 -1.9336,0.52734 -4.0625,0.52734 -5.42969,0 -8.47656,-2.92968 -3.04688,-2.94922 -3.04688,-8.35938 0,-5.35156 2.91016,-8.496091 2.92968,-3.144532 7.69531,-3.144532 4.41406,0 6.79687,2.578125 2.40235,2.578128 2.40235,7.324218 l 0,1.99219 z m -3.57422,-2.8125 q -0.0195,-2.89063 -1.46484,-4.47266 -1.42579,-1.582029 -4.35547,-1.582029 -2.94922,0 -4.70703,1.738279 -1.73829,1.73828 -1.97266,4.31641 l 12.5,0 z"
         style=""
         id="path3371" />
      <path
         d="m 120.6529,165.96712 q -1.07422,0.46875 -1.95312,0.8789 -0.85938,0.41016 -2.26563,0.85938 -1.19141,0.37109 -2.59766,0.625 -1.38671,0.27344 -3.0664,0.27344 -3.16406,0 -5.76172,-0.87891 -2.57813,-0.89844 -4.49219,-2.79297 -1.874998,-1.85547 -2.929686,-4.70703 -1.054687,-2.87109 -1.054687,-6.66016 0,-3.59375 1.015625,-6.42578 1.015625,-2.83203 2.929688,-4.78515 1.85547,-1.89454 4.47266,-2.89063 2.63671,-0.99609 5.83984,-0.99609 2.34375,0 4.66797,0.5664 2.34375,0.56641 5.19531,1.99219 l 0,4.58984 -0.29297,0 q -2.40234,-2.01171 -4.76562,-2.92968 -2.36328,-0.91797 -5.0586,-0.91797 -2.20703,0 -3.98437,0.72265 -1.75781,0.70313 -3.14453,2.20704 -1.34766,1.46484 -2.10938,3.71093 -0.74219,2.22657 -0.74219,5.15625 0,3.06641 0.82032,5.27344 0.83984,2.20703 2.14843,3.59375 1.36719,1.44531 3.1836,2.14844 1.83594,0.68359 3.86719,0.68359 2.79296,0 5.23437,-0.95703 2.44141,-0.95703 4.57031,-2.87109 l 0.27344,0 0,4.53125 z"
         style=""
         id="path3373" />
      <path
         d="m 129.57868,168.07649 -3.67187,0 0,-30.39062 3.67187,0 0,30.39062 z"
         style=""
         id="path3375" />
      <path
         d="m 140.67243,142.60774 -4.14062,0 0,-3.80859 4.14062,0 0,3.80859 z m -0.23437,25.46875 -3.67188,0 0,-21.8164 3.67188,0 0,21.8164 z"
         style=""
         id="path3377" />
      <path
         d="m 165.28181,176.12337 -3.67188,0 0,-10.50782 q -1.69922,1.46485 -3.3789,2.1875 -1.67969,0.70313 -3.63282,0.70313 -3.88672,0 -6.21093,-2.98828 -2.30469,-3.00781 -2.30469,-8.28125 0,-2.8125 0.80078,-4.96094 0.82031,-2.16797 2.14844,-3.63281 1.28906,-1.42578 3.02734,-2.20703 1.73828,-0.78125 3.67188,-0.78125 1.75781,0 3.10546,0.39062 1.36719,0.39063 2.77344,1.15235 l 0.23438,-0.9375 3.4375,0 0,29.86328 z m -3.67188,-13.59375 0,-12.34375 q -1.52344,-0.6836 -2.69531,-0.95703 -1.17188,-0.27344 -2.53906,-0.27344 -3.1836,0 -4.84375,2.16797 -1.66016,2.14843 -1.66016,5.9375 0,3.82812 1.32813,5.89843 1.34765,2.05079 4.21875,2.05079 1.60156,0 3.20312,-0.6836 1.60156,-0.70312 2.98828,-1.79687 z"
         style=""
         id="path3379" />
      <path
         d="m 190.59431,168.07649 -3.67188,0 0,-2.42187 q -1.85547,1.46484 -3.55469,2.24609 -1.69921,0.78125 -3.75,0.78125 -3.4375,0 -5.35156,-2.08984 -1.91406,-2.10938 -1.91406,-6.17188 l 0,-14.16015 3.67187,0 0,12.42187 q 0,1.66016 0.15625,2.85156 0.15625,1.17188 0.66407,2.01172 0.52734,0.85938 1.36718,1.25 0.83985,0.39063 2.44141,0.39063 1.42578,0 3.10547,-0.74219 1.69922,-0.74219 3.16406,-1.89453 l 0,-16.28906 3.67188,0 0,21.8164 z"
         style=""
         id="path3381" />
      <path
         d="m 216.08259,157.54915 -16.07422,0 q 0,2.01172 0.60547,3.51562 0.60547,1.48438 1.66015,2.44141 1.01563,0.9375 2.40235,1.40625 1.40625,0.46875 3.08594,0.46875 2.22656,0 4.47265,-0.87891 2.26563,-0.89843 3.22266,-1.75781 l 0.19531,0 0,4.00391 q -1.85547,0.78125 -3.78906,1.30859 -1.9336,0.52734 -4.0625,0.52734 -5.42969,0 -8.47656,-2.92968 -3.04688,-2.94922 -3.04688,-8.35938 0,-5.35156 2.91016,-8.49609 2.92968,-3.14453 7.69531,-3.14453 4.41406,0 6.79687,2.57812 2.40235,2.57813 2.40235,7.32422 l 0,1.99219 z m -3.57422,-2.8125 q -0.0195,-2.89063 -1.46484,-4.47266 -1.42579,-1.58203 -4.35547,-1.58203 -2.94922,0 -4.70703,1.73828 -1.73829,1.73828 -1.97266,4.31641 l 12.5,0 z"
         style=""
         id="path3383" />
      <path
         d="m 237.46931,168.07649 -17.61719,0 0,-2.71484 12.71484,-16.03516 -12.4414,0 0,-3.0664 17.01172,0 0,2.61718 -12.77344,16.09375 13.10547,0 0,3.10547 z"
         style=""
         id="path3385" />
      <path
         d="m 260.67243,142.60774 -4.14062,0 0,-3.80859 4.14062,0 0,3.80859 z m -0.23437,25.46875 -3.67188,0 0,-21.8164 3.67188,0 0,21.8164 z"
         style=""
         id="path3387" />
      <path
         d="m 283.71931,166.7093 q -1.83594,0.87891 -3.4961,1.36719 -1.64062,0.48828 -3.49609,0.48828 -2.36328,0 -4.33594,-0.68359 -1.97265,-0.70313 -3.3789,-2.10938 -1.42579,-1.40625 -2.20704,-3.55468 -0.78125,-2.14844 -0.78125,-5.01953 0,-5.35157 2.92969,-8.39844 2.94922,-3.04688 7.77344,-3.04688 1.875,0 3.67187,0.52735 1.81641,0.52734 3.32032,1.28906 l 0,4.08203 -0.19532,0 q -1.67968,-1.30859 -3.47656,-2.01172 -1.77734,-0.70312 -3.47656,-0.70312 -3.125,0 -4.94141,2.10937 -1.79687,2.08985 -1.79687,6.15235 0,3.94531 1.75781,6.07421 1.77734,2.10938 4.98047,2.10938 1.11328,0 2.26562,-0.29297 1.15235,-0.29297 2.07032,-0.76172 0.80078,-0.41015 1.5039,-0.85937 0.70313,-0.46875 1.11328,-0.80078 l 0.19532,0 0,4.04296 z"
         style=""
         id="path3389" />
      <path
         d="m 292.39118,142.60774 -4.14062,0 0,-3.80859 4.14062,0 0,3.80859 z m -0.23437,25.46875 -3.67188,0 0,-21.8164 3.67188,0 0,21.8164 z"
         style=""
         id="path3391" />
      <path
         d="m 319.81306,138.99446 -0.50782,21.07422 -3.32031,0 -0.54687,-21.07422 4.375,0 z m -0.19532,29.08203 -3.98437,0 0,-4.12109 3.98437,0 0,4.12109 z"
         style=""
         id="path3393" />
    </g>
  </g>
</svg>
