<?xml version="1.0" encoding="utf-8"?>
<!-- Generator: Adobe Illustrator 17.1.0, SVG Export Plug-In . SVG Version: 6.00 Build 0)  -->
<!DOCTYPE svg PUBLIC "-//W3C//DTD SVG 1.1//EN" "http://www.w3.org/Graphics/SVG/1.1/DTD/svg11.dtd">
<svg version="1.1"
	 id="Calque_1" xmlns:rdf="http://www.w3.org/1999/02/22-rdf-syntax-ns#" xmlns:cc="http://web.resource.org/cc/" xmlns:dc="http://purl.org/dc/elements/1.1/" xmlns:svg="http://www.w3.org/2000/svg"
	 xmlns="http://www.w3.org/2000/svg" xmlns:xlink="http://www.w3.org/1999/xlink" x="0px" y="0px" width="150px" height="150px"
	 viewBox="0 0 150 150" enable-background="new 0 0 150 150" xml:space="preserve">
<desc>Produced by GNUPLOT 4.2 patchlevel 2</desc>
<g>
	<path fill="#FFFFFF" stroke="#FFFFFF" stroke-width="2" d="M25.8,118h-3"/>
	<path fill="#FFFFFF" stroke="#FFFFFF" stroke-width="2" d="M25.8,85.1h-3"/>
	<path fill="#FFFFFF" stroke="#FFFFFF" stroke-width="2" d="M25.8,29h-3"/>
	<path fill="#FFFFFF" stroke="#FFFFFF" stroke-width="2" d="M25.8,118v3"/>
	<path fill="#FFFFFF" stroke="#FFFFFF" stroke-width="2" d="M40.2,118v3"/>
	<path fill="#FFFFFF" stroke="#FFFFFF" stroke-width="2" d="M98.2,118v3"/>
	<path fill="#FFFFFF" stroke="#FFFFFF" stroke-width="2" d="M25.8,118h101.3 M25.8,118V29"/>
</g>
<g>
	<g>
		<polygon fill="#FFFFFF" fill-opacity="0" stroke="#FFFFFF" stroke-width="2" points="25.8,118 40.2,118 40.2,85.1 25.8,85.1 		"/>
	</g>
</g>
<g>
	<path fill="none" stroke="#FFFFFF" stroke-width="2" d="M25.8,118V85.1h14.5V118H25.8"/>
</g>
<g>
	<path fill="none" stroke="#FFFFFF" stroke-width="4" d="M25.8,29l1,6.1l1,5.6l1,5.2l1,4.9l1,4.6l1,4.3l1,4l1,3.7l1,3.5l1,3.2l1,3
		l1,2.8l1,2.7l1,2.5l1,2.2l1,2l1,1.9l1,1.8l1,1.7l1,1.5l1,1.5l1,1.3l1,1.2l1,1.2l1,1.1l1,1l1,1l1,0.9l1,0.8l1,0.8l1,0.7l1,0.7l1,0.6
		l1,0.6l1,0.5l1,0.5l1,0.5l1,0.4l1,0.4l1,0.4l1,0.3l1,0.3l1,0.3l1,0.3l1,0.3l1,0.2l1,0.2l1,0.2l1,0.2l1,0.2l1,0.2l1,0.2l1,0.1l1,0.2
		l1,0.1l1,0.1l1,0.1l1,0.1l1,0.1l1,0.1l1,0.1l1,0.1l1,0.1l1,0.1l1,0.1h1l1,0.1h1h1l1,0.1h1h1h1h1h1h1h1h1h1h1h1h1h1h1h1h1h1h1h1h1h1
		h2h1h2h1h2"/>
</g>
</svg>
