<?xml version="1.0" encoding="utf-8"?>
<!-- Generator: Adobe Illustrator 17.1.0, SVG Export Plug-In . SVG Version: 6.00 Build 0)  -->
<!DOCTYPE svg PUBLIC "-//W3C//DTD SVG 1.1//EN" "http://www.w3.org/Graphics/SVG/1.1/DTD/svg11.dtd">
<svg version="1.1" id="Capa_1" xmlns="http://www.w3.org/2000/svg" xmlns:xlink="http://www.w3.org/1999/xlink" x="0px" y="0px"
	 width="20px" height="20px" viewBox="51.6 51.6 20 20" enable-background="new 51.6 51.6 20 20" xml:space="preserve">
<g>
	<polygon fill="#FFFFFF" points="61.6,64.8 66.1,60.2 63.4,60.2 63.4,54.8 59.8,54.8 59.8,60.2 57.1,60.2 	"/>
	<polygon fill="#FFFFFF" points="65.2,64.8 65.2,66.6 58,66.6 58,64.8 56.2,64.8 56.2,66.6 56.2,68.4 67.1,68.4 67.1,64.8 	"/>
</g>
<path fill="none" stroke="#FFFFFF" stroke-miterlimit="10" d="M70.8,68.9c0,1-0.8,1.9-1.9,1.9H54.3c-1,0-1.9-0.8-1.9-1.9V54.3
	c0-1,0.8-1.9,1.9-1.9h14.7c1,0,1.9,0.8,1.9,1.9V68.9z"/>
</svg>
